<?xml version="1.0" encoding="UTF-8" standalone="no"?>
<!-- Created with Inkscape (http://www.inkscape.org/) -->

<svg
   width="900mm"
   height="900mm"
   viewBox="0 0 900 900"
   version="1.1"
   id="svg5188"
   inkscape:export-filename="bitmap.png"
   inkscape:export-xdpi="96"
   inkscape:export-ydpi="96"
   inkscape:version="1.2.2 (b0a8486541, 2022-12-01)"
   sodipodi:docname="mag-favicon.svg"
   xmlns:inkscape="http://www.inkscape.org/namespaces/inkscape"
   xmlns:sodipodi="http://sodipodi.sourceforge.net/DTD/sodipodi-0.dtd"
   xmlns:xlink="http://www.w3.org/1999/xlink"
   xmlns="http://www.w3.org/2000/svg"
   xmlns:svg="http://www.w3.org/2000/svg">
  <sodipodi:namedview
     id="namedview5190"
     pagecolor="#ffffff"
     bordercolor="#000000"
     borderopacity="0.25"
     inkscape:showpageshadow="2"
     inkscape:pageopacity="0.0"
     inkscape:pagecheckerboard="0"
     inkscape:deskcolor="#d1d1d1"
     inkscape:document-units="mm"
     showgrid="false"
     inkscape:zoom="0.1866066"
     inkscape:cx="1468.3296"
     inkscape:cy="2272.1597"
     inkscape:window-width="1920"
     inkscape:window-height="1125"
     inkscape:window-x="0"
     inkscape:window-y="0"
     inkscape:window-maximized="1"
     inkscape:current-layer="layer2" />
  <defs
     id="defs5185">
    <rect
       x="45.977429"
       y="58.207878"
       width="3287.4692"
       height="1172.0545"
       id="rect2152" />
    <rect
       x="54.901127"
       y="68.732105"
       width="3209.904"
       height="1172.4773"
       id="rect2146" />
    <linearGradient
       inkscape:collect="always"
       xlink:href="#linearGradient7"
       id="linearGradient8-18-3"
       x1="370.94385"
       y1="571.71887"
       x2="445.84369"
       y2="438.13504"
       gradientUnits="userSpaceOnUse"
       gradientTransform="translate(-7.7750852,-227.59796)" />
    <linearGradient
       id="linearGradient7"
       inkscape:collect="always">
      <stop
         style="stop-color:#f1efed;stop-opacity:0.93180078;"
         offset="0"
         id="stop7" />
      <stop
         style="stop-color:#f4f39b;stop-opacity:0.85920578;"
         offset="0.5"
         id="stop10" />
      <stop
         style="stop-color:#f583c4;stop-opacity:0.86793017;"
         offset="0.75"
         id="stop11" />
      <stop
         style="stop-color:#8459dd;stop-opacity:0.90178084;"
         offset="0.875"
         id="stop12" />
      <stop
         style="stop-color:#432f80;stop-opacity:0.85095096;"
         offset="0.9375"
         id="stop13" />
      <stop
         style="stop-color:#4e4338;stop-opacity:1;"
         offset="1"
         id="stop8" />
    </linearGradient>
    <rect
       x="45.977428"
       y="58.207878"
       width="3287.4692"
       height="1172.0544"
       id="rect2152-4" />
  </defs>
  <g
     inkscape:label="Layer 1"
     inkscape:groupmode="layer"
     id="layer1"
     sodipodi:insensitive="true">
    <g
       id="g16-6-7-4"
       transform="matrix(3.8623538,0,0,3.878828,-1264.7827,-487.769)">
      <path
         style="mix-blend-mode:normal;fill:#000000;fill-opacity:1;stroke:none"
         d="m 481.68125,306.64658 c 0.37974,3.61509 2.0661,7.25221 5.25,9.19791 1.51216,0.92409 3.49212,1.02965 4.86459,2.14584 3.65865,2.97546 6.78042,7.05125 10.13541,10.40625 5.79188,5.79187 11.40949,11.82385 17.10416,17.70833 2.12045,2.19113 3.76614,5.05408 6.14584,6.94792 11.62702,9.25302 32.23989,-5.32659 32.98959,-18.28125 0.46969,-8.1159 -4.89663,-11.28205 -10.11459,-16.5 -8.4575,-8.45751 -16.81904,-16.93634 -25.125,-25.5 -4.25006,-4.38192 -5.08177,-10.82827 -12.375,-11.625 24.05789,-26.88167 28.31395,-69.4555 12.41668,-101.25 -8.55011,-17.10025 -22.3528,-30.61112 -38.66668,-40.35416 -28.56333,-17.0587 -66.39347,-16.3838 -96,-2.67709 -45.62122,21.12089 -72.53727,76.3721 -54.30208,124.40625 3.36199,8.85598 8.12173,16.97525 14.03125,24.375 6.02632,7.54598 13.38738,14.43665 21.52083,19.70832 24.64516,15.97371 55.80953,19.87336 84,12.76044 5.9922,-1.51195 12.02074,-3.71796 17.625,-6.31251 3.46216,-1.60286 6.87378,-4.02878 10.5,-5.15625 m -49.875,-175.79167 c 5.80101,-0.79227 12.62895,0.86634 18.375,1.77084 40.28119,6.34064 68.95894,45.01066 63.29167,85.14583 -5.91122,41.86262 -44.92573,74.89325 -86.16667,79.09373 -16.50232,1.68082 -33.54527,-0.52327 -48.75,-7.56248 -28.66108,-13.26899 -46.21026,-43.97159 -43.09375,-75.28125 1.12511,-11.30326 4.82876,-22.27169 10.1875,-32.25 11.68726,-21.76243 33.79695,-39.61618 57.65625,-46.35416 9.54589,-2.69579 18.80426,-3.23829 28.5,-4.56251 m -3,9.06251 c -7.86981,1.29343 -15.50411,1.54067 -23.25,3.97916 -23.63098,7.43925 -43.82058,24.27992 -54.28125,46.875 -3.38179,7.30471 -5.3139,15.28653 -6.125,23.25 -0.67798,6.65647 -0.39655,13.30243 0.92709,19.875 7.69469,38.20832 46.64883,58.998 83.47916,53.54166 38.83372,-5.75311 71.03598,-36.53139 74.96876,-76.04166 3.48516,-35.01327 -26.40479,-66.25807 -59.96876,-70.53125 -4.97406,-0.63327 -10.75408,-1.769 -15.75,-0.94791 m -60.375,32.47916 c -1.91566,3.61841 -5.09774,6.66346 -7.33333,10.125 -3.17091,4.90981 -5.5395,10.55928 -7.29167,16.125 -8.85928,28.14129 1.39147,64.0784 30.375,76.5 -10.69037,-8.48946 -19.04751,-16.6859 -24.22916,-29.625 -2.64191,-6.59711 -3.52084,-13.96363 -3.52084,-21 0,-42.02449 39.44178,-74.74704 80.25,-72.38542 8.58342,0.49674 17.20725,1.68855 25.125,5.35417 23.46028,10.86122 40.49192,34.80171 37.84376,61.40625 -1.32685,13.33012 -8.77892,26.92607 -17.625,36.75 -21.51853,23.89721 -55.07389,34.89976 -86.21876,26.10415 -12.33331,-3.48303 -23.64862,-10.58668 -32.21874,-20.10415 -16.70935,-18.55642 -18.93523,-46.88935 -8.75001,-69 3.04309,-6.60613 7.36773,-16.09021 13.59375,-20.25 m 153.75,26.25 -0.375,0.375 0.375,-0.375 m 0.375,1.125 c 0.42222,4.01934 1.44278,7.97158 1.84376,12 1.44923,14.55958 -1.45477,30.61596 -7.56251,43.875 -3.28271,7.12632 -8.21644,12.91889 -12.28125,19.5 l -2.625,-1.875 c 1.15361,-4.42836 6.0952,-8.75826 8.47916,-12.75 5.01952,-8.40473 8.77016,-18.17862 10.875,-27.75 1.74138,-7.91856 2.09569,-15.5406 2.02084,-23.625 -0.0229,-2.46893 -1.88598,-7.30834 -0.75,-9.375 m -138.375,75.375 0.375,0.375 -0.375,-0.375 m 119.625,7.125 c -9.48621,2.71039 -16.41785,9.23281 -19.875,18.375 -10.87646,-5.75821 -3.30443,-18.11861 4.875,-22.20834 2.87803,-1.439 6.59349,-2.71447 9.75,-1.26041 2.02645,0.9335 4.07907,3.24813 5.25,5.09375 m -20.625,1.875 c -3.71869,4.23472 -0.54519,7.35072 1.125,11.625 h 0.75 l 3.125,-5.625 -5,-6 m 30.75,3.375 c -8.50117,0 -19.59377,5.56718 -22.875,13.875 h -0.375 l 2.25,-5.625 c -2.96901,0.21206 -4.11515,4.15686 -5.625,6.375 -0.49186,-1.95452 1.97182,-4.70632 2.9375,-6.375 3.45128,-5.96384 17.56636,-16.72243 23.6875,-8.25 m 27,36.75 c -4.81036,1.5563 -6.81516,-2.31519 -10.125,-5.625 -5.94079,-5.94082 -11.81742,-11.94409 -17.65624,-17.96874 -2.38172,-2.45755 -6.66522,-5.05733 -7.84376,-8.28126 4.71561,-1.78322 7.27721,2.7772 10.5,6 5.88325,5.88327 11.92356,11.56228 17.63542,17.625 2.41509,2.56343 6.04312,5.00221 7.48958,8.25 m -67.875,-26.25 1.5,2.625 c -12.34101,8.34832 -29.58835,12.26609 -44.25,13.11458 -6.24001,0.36111 -12.21135,-0.80381 -18.375,-1.11458 1.61668,-0.93146 4.82553,0 6.75,0 5.30659,0 10.51559,0.025 15.75,-0.89585 8.80051,-1.54822 17.22748,-3.58605 25.5,-7.05208 4.55699,-1.90928 8.62805,-4.7498 13.125,-6.67707 m 79.125,31.125 c -8.24242,0.0346 -12.43325,5.7423 -18.75,9.75 l 0.375,-1.5 c -4.14576,1.08 -5.83525,7.8159 -4.875,11.625 -3.08624,-2.47884 -1.37418,-6.39267 -0.0625,-9.375 2.56867,-5.84036 8.2662,-10.52752 14.3125,-12.375 3.16981,-0.96854 7.0104,-1.20825 9,1.875 z"
         id="path3-9-2-5-7"
         sodipodi:nodetypes="csssscssscsscssssscccssssssccccscssscccscssssssssscccccssccsssccccccsscccccccccccscccscsscccscssscccccssc" />
      <path
         style="mix-blend-mode:hard-light;fill:none;fill-opacity:1;stroke:url(#linearGradient8-18-3);stroke-width:3;stroke-dasharray:none;stroke-opacity:1"
         d="m 405.56661,305.80975 c 0.60616,-0.59342 0.80866,-1.65154 3,-1.86459 0.76645,-0.0745 2.10908,-0.0104 3,-0.0104 h 4.125 2.25 1.875 3 c 3.16696,0 6.72133,-0.0377 9.75,-0.45834 3.05549,-0.42437 6.34837,-0.90108 9.75,-1.56251 3.26809,-0.63544 6.22462,-1.81132 9.375,-2.70831 5.39179,-1.53518 10.49128,-3.78731 15.375,-6.22918 1.65617,-0.82807 3.52483,-1.90015 5.25,-2.23958 2.06039,-0.4054 2.19228,-0.0856 2.625,0.19791 0.88234,0.578 2.36169,1.19625 4.35418,5.50001 1.34887,2.91353 1.85207,3.69635 1.48956,5.25 -0.15303,0.65588 -1.5788,1.80366 -2.46874,2.31248 -3.52517,2.01556 -7.8265,3.8034 -11.625,5.33336 -3.30572,1.33145 -7.17966,2.55885 -10.5,3.60416 -1.74529,0.54945 -3.44016,0.98968 -5.25,1.35415 -4.79787,0.96625 -9.78085,1.43139 -14.625,2.10418 -0.96862,0.13452 -1.71922,0.28329 -2.625,0.29167 -0.98418,0.009 -1.90418,0 -3,0 -3.64476,0 -6.94981,-0.14708 -10.5,-0.38542 -1.56528,-0.10508 -3.78407,-0.488 -5.25,-0.71875 -2.45564,-0.38654 -3.28315,-0.71647 -4.09375,-1.53125 -1.91584,-1.92572 -2.62083,-3.60523 -3.41666,-4.86458 -0.33106,-0.52387 -0.18525,-1.17082 -1.81251,-2.87501 -0.76863,-0.80495 -2.47205,-0.8793 -3.42708,-1.09376 -1.60665,-0.36074 -3.49291,-0.63947 -5.25,-1.06247 -1.18708,-0.28578 -1.68752,-0.65886 -3,-0.96876 -2.61161,-0.61666 -4.3995,-1.53788 -6.75,-2.47916 -7.87833,-3.155 -14.39867,-6.73995 -21.00001,-11.84376 -5.2305,-4.04396 -9.60041,-8.75368 -13.85417,-13.80208 -5.41705,-6.42902 -9.572,-14.2739 -12.69791,-22.125 -1.47949,-3.7159 -2.3266,-7.47862 -3.20834,-11.25 -0.66311,-2.83631 -1.04965,-6.19647 -1.51041,-9 -0.14099,-0.85785 -0.22078,-1.34425 -0.22917,-2.25 -0.0183,-1.98216 0,-4.42944 0,-6.375 0,-0.85055 -0.002,-1.36286 0,-2.25 0.005,-2.12181 0.50546,-4.60719 0.71875,-6.75 0.0856,-0.86005 -0.002,-1.41326 0.11459,-2.25 0.49829,-3.5877 1.48962,-7.60977 2.23958,-11.25 1.58051,-7.67171 5.31786,-15.80278 9.30208,-22.5 1.49542,-2.5137 3.08386,-5.15959 4.82292,-7.5 9.72656,-13.08996 22.20096,-24.65779 36.80209,-31.95834 4.63003,-2.315 9.66018,-4.62524 14.625,-6.29166 14.38038,-4.82673 29.30317,-5.76419 44.25,-4.86459 10.15453,0.61116 20.12924,4.29827 29.25,8.52084 2.53967,1.17576 5.11908,2.23425 7.5,3.5625 7.36652,4.10957 14.8705,10.33138 19.875,16.40625 3.77204,4.5788 7.38155,9.37573 10.41666,14.25 2.45993,3.95057 4.79542,8.86251 6.07293,13.5 0.42773,1.55273 1.0437,4.31364 1.78125,5.96876 0.71383,1.60189 1.53504,1.49933 1.97916,1.76039 0.86089,0.50606 3.15571,1.35093 3.35417,2.42709 0.1539,0.83457 -0.68234,1.39929 -1.10417,1.84376 -0.15763,0.16607 -0.8413,0.8413 -1.875,1.875 -0.63174,0.63173 -1.01095,1.01095 -1.125,1.125 -0.58001,0.58001 -3.50029,0.8711 -2.25,4.5 1.20737,-1.20738 1.80038,-1.80039 2.625,-2.625 l 1.5,-1.5 c 0.68527,-0.68527 0.9278,-0.92471 1.125,-1.125 0.54588,-0.55445 1.42616,-0.45662 1.875,-3 m -96.75,-50.85416 c 1.80488,-0.29663 2.67494,-0.19654 4.5,-0.14584 4.86779,0.1352 10.63996,0.49994 15.375,1.76042 9.31073,2.47852 17.9453,5.06573 25.5,10.85417 2.46309,1.88725 5.22391,4.11784 7.5,6.10417 0.81926,0.71495 1.44239,1.12424 2.16666,1.91665 1.32649,1.45127 2.89135,3.26029 4.13542,4.86459 2.05021,2.64386 3.93706,5.07042 5.625,7.875 1.27238,2.11411 2.25476,4.44916 3.21876,6.75 1.92907,4.60416 3.92308,9.33835 4.34375,14.25 0.12341,1.44106 0.31661,3.13126 0.39582,4.5 0.30865,5.33349 0.37313,10.81084 -0.61457,16.5 -0.83152,4.78965 -2.45791,10.2328 -4.5625,14.625 -2.61708,5.46174 -5.59058,10.8788 -9.32293,15.75 -1.30051,1.69734 -2.53526,3.34089 -3.91665,4.875 -0.9931,1.10286 -1.85612,1.88736 -2.96876,3 -2.41447,2.41447 -4.62959,4.62657 -7.125,6.72917 -5.22201,4.40002 -11.5784,8.57913 -18,11.55208 -7.7953,3.60891 -15.94183,6.35884 -24.375,7.8229 -29.30414,5.0875 -64.50863,-7.91844 -77.31251,-35.85415 -1.07154,-2.33789 -2.05398,-5.04058 -3.01042,-7.5 -1.77373,-4.561 -3.30208,-10.35029 -3.30208,-15 0,-1.15462 -0.0122,-1.67986 -0.22917,-3 -0.24217,-1.47347 -0.14583,-2.22853 -0.14583,-3.75 0,-1.71799 -0.0961,-3.20819 0.0833,-4.5 0.10624,-0.76502 0.23761,-1.121 0.28125,-1.875 0.0428,-0.74041 -0.02,-1.16881 0.0208,-1.875 0.48225,-8.33295 4.3196,-18.02616 8.33334,-25.5 1.93436,-3.60192 4.19346,-7.23763 6.72917,-10.5 1.10516,-1.42186 2.83958,-3.40432 4,-4.63541 2.63093,-2.79114 4.71465,-2.0142 5.67708,-1.66667 0.49802,0.17983 0.8525,0.74828 2.25,-0.45834 0.81602,-0.70456 2.10171,-2.09307 3,-2.84374 2.77164,-2.31612 5.61786,-4.52302 8.62501,-6.52084 3.93077,-2.61143 8.05169,-4.79176 12.375,-6.83334 4.4631,-2.10759 9.43761,-3.96835 14.25,-4.93751 4.08186,-0.82202 8.22166,-1.3843 12,-1.76039 2.37711,-0.23662 1.98061,-0.15885 4.5,-0.57292 m -56.25001,24.60419 c -0.16077,1.47157 -0.17332,2.76535 -1.875,5.25 l -3,-2.77085 -1.5,-1.35415 m 1.5,0.75 0.375,0.375 m -3,1.125 1.5,0.75 0.375,-0.375 -1.125,1.125 m 0.75,-0.375 c 0.5825,0.58005 1.0102,1.26198 1.875,1.71874 0.45594,0.24081 0.70124,0.51904 2.25,-0.59374 m -1.875,1.125 -4.875,7.875 -1.875,-1.875 -1.47917,-1.47917 -1.14577,-1.14587 m 4.5,4.875 c -5.1615,7.58297 -8.1898,16.01021 -9.66666,24.75 -0.34346,2.03256 -0.81541,4.81366 -0.83334,6.75 -0.008,0.85608 0,1.36205 0,2.25 0,2.48623 0.21964,5.3703 0.36459,7.875 0.0608,1.05013 -0.0462,1.61735 0.0937,2.625 0.27234,1.96092 0.56592,4.39222 1.09374,6.375 1.87839,7.0562 4.50311,12.90239 8.10417,19.125 1.39449,2.40967 3.07092,4.79796 4.96875,6.75 0.81327,0.83652 1.43837,1.43078 2.25,2.25 1.81139,1.82831 3.64476,3.6869 5.625,5.25 2.74911,2.17 4.98232,3.59298 8.25001,5.625 m 135.375,-82.875 c -0.88426,0.90323 -1.875,1.29064 -1.875,4.5 0,0.627 -0.0585,1.97898 0.0833,3 0.12094,0.87069 0.27804,1.81453 0.29166,2.625 m 7.875,-3.75 c 0.16079,3.18935 1.8449,7.62407 1.875,10.875 0.008,0.89644 -0.0381,1.37569 0.0833,2.25 0.11361,0.81804 0.26637,1.33946 0.29166,2.25 0.22565,8.12446 -0.18258,16.37313 -1.64584,24.375 -0.33328,1.82245 -0.81695,3.48894 -1.30207,5.25 -1.77001,6.4254 -4.39913,13.40181 -7.69793,19.125 -2.28955,3.97224 -4.60167,7.98147 -7.42708,11.625 -0.89461,1.15365 -2.27777,2.38554 -2.80209,3.75 -1.10634,2.87913 0.5809,3.97508 2.87501,4.72915 0.79667,0.26189 1.85149,0.59244 2.625,0.97918 3.35314,1.67659 3.10556,3.24829 3.42709,4.79167 0.13589,0.65227 0.59466,1.35919 -0.46875,2.04167 -0.79653,0.51118 -2.04341,-0.11781 -2.20834,-0.16667 -1.25631,-0.37226 -4.45976,-2.24645 -8.61459,0.10416 -2.74635,1.55377 -2.2237,3.20538 -2.5729,4.02084 -1.3236,3.09077 -0.81251,6.45904 -0.81251,9.375 0,0.76455 -1.02773,2.87951 0.82292,5.16666 0.82617,1.02102 1.99828,2.08644 2.93749,3.08334 3.48363,3.69761 7.25551,7.26594 10.86459,10.875 1.05107,1.05107 3.55623,3.76657 4.5,4.08334 1.6547,0.55541 2.15204,0.0417 3,0.0417 h 6 c 1.75486,0 3.68765,0.21281 5.625,0.20833 0.6853,-0.002 1.82231,-0.11188 3.75,-0.75 3.68079,-1.21843 4.55653,-3.06606 4.88541,-3.58333 0.15855,-0.24935 0.51597,-0.52126 0.29167,-1.5 -0.11801,-0.51496 -1.32376,-2.10498 -1.81249,-2.625 -2.51809,-2.67934 -5.22089,-5.14362 -7.57293,-7.875 -2.28357,-2.65192 -4.53341,-4.61675 -7.04166,-7.125 -2.93754,-2.93754 -6.71542,-5.80564 -9.28125,-9 -1.10593,-1.37684 -1.59956,-2.3627 -2.71875,-3.75 m 10.125,-91.125 -2.25,2.25 -1.125,1.125 c -0.61288,0.61287 -0.94373,0.94372 -1.125,1.125 -0.81237,0.81237 -1.6731,0.88788 -2.72916,3 -0.48606,0.9721 0.0483,3.3652 0.0937,4.875 0.0395,1.31323 -0.36175,3.27418 -0.36459,4.5 -0.009,4.0215 -0.93434,8.07069 -2.01041,12.375 -1.30277,5.21111 -3.01053,9.96798 -5.1771,15 -2.97548,6.91079 -6.56708,12.98458 -11.07291,19.125 -0.91026,1.24049 -3.31268,4.19382 -3.73959,5.25 -0.73542,1.81947 -1.13202,1.91903 -2.37499,2.37501 -0.92773,0.3403 -2.23018,0.71157 -3.375,1.125 -2.56883,0.92762 -4.5745,2.40658 -7.125,4.26041 -4.77058,3.46751 -8.29642,7.45438 -9.97916,10.23958 -0.89403,1.47976 -1.60295,3.34936 -2.39584,4.5 m 47.25,-86.25 v 1.875 m -22.5,63.75 c 0.93784,0.93786 1.71828,1.75387 3,3 0.40768,0.39638 1.30836,1.14443 2.625,2.28126 2.32059,2.00363 3.90173,2.13163 4.875,2.59374 m 0.75,2.25 c -0.89676,0.89676 -1.23244,1.92027 -3.375,2.82291 -0.80338,0.33845 -3.42464,1.22276 -4.5,1.76042 -4.05618,2.0281 -7.71373,4.84605 -10.32291,8.54167 -1.04995,1.48716 -2.92349,4.12131 -2.97918,5.625 -0.018,0.48752 0.50858,1.39444 0.9375,1.875 1.15121,1.28984 1.65693,1.66731 1.86459,1.875 0.4807,-1.15563 -0.29459,-2.82427 2.625,-6.75 m -8.25,-9 c 0.12753,0.40471 0.78685,1.4073 1.26041,2.625 0.39134,1.00632 0.2352,1.4946 0.23959,1.875 0.0118,1.02225 0,1.9725 0,3 m 0.75,5.625 -1.875,2.72916 -2.625,0.12499 -3,-0.60415 m 11.25,0.375 5.625,5.35416 3,0.58335 3.75,-0.68751 m -17.25,-4.5 c 0.85316,2.21617 2.99913,2.76526 4.875,3.52084 1.32813,0.53494 3.07809,1.44727 4.875,0.97916 m 51,14.25 c 0.8988,0.18505 1.53612,0.3546 2.625,0.76041 0.99591,0.37118 2.04096,0.86382 3.375,1.58334 3.08899,1.66605 3.86115,5.14872 3.59374,6.28125 -0.68245,2.89039 -3.00792,3.52437 -6.59374,6.52084 -2.51015,2.09759 -4.58471,4.52239 -7.875,6.70832 -0.68191,0.45303 -1.58752,0.75575 -2.25,1.03125 -3.26026,1.3559 -3.39503,3.37995 -4.5,4.48959 l -3.375,-2.22917 -1.5,0.47918 -1.875,2.12499 c 3.76266,2.40303 5.29298,0.66609 6.375,-0.375 m -12.75,-22.125 c 0.77769,4.1131 1.15139,9.34932 2.37499,13.125 0.35234,1.08723 0.69638,1.9693 1.37501,4.125 0.42558,1.35184 1.20959,3.7326 2.625,5.25"
         id="path4-9-9-6"
         sodipodi:nodetypes="csscccsssssscsscsssscsssssscsscssssscscscsscscsssssssssssscssscccsssssssssssssssscssssssccssssscsscsccccccccccccscccccccscsccsssssccsscccsssssssscsscscssssssscssssssscccsssscssssscssccccssccscscscccssccccccccccsccssssscccccccssc" />
    </g>
  </g>
  <g
     inkscape:groupmode="layer"
     id="layer2"
     inkscape:label="Layer 2">
    <text
       xml:space="preserve"
       transform="scale(0.26458333)"
       id="text2144"
       style="fill:#d90000;stroke:#000000;white-space:pre;shape-inside:url(#rect2146)" />
    <text
       xml:space="preserve"
       transform="matrix(29.889838,0,0,29.889838,-2269.4057,-1651.852)"
       id="text2150"
       style="font-style:normal;font-variant:normal;font-weight:normal;font-stretch:normal;font-size:12px;font-family:Carlito;-inkscape-font-specification:'Carlito, Normal';font-variant-ligatures:normal;font-variant-caps:normal;font-variant-numeric:normal;font-variant-east-asian:normal;white-space:pre;shape-inside:url(#rect2152);fill:#d46767;fill-opacity:0.890196;stroke:#000000;stroke-width:0.468739;stroke-linecap:round;stroke-linejoin:round;stroke-dasharray:none;paint-order:stroke fill markers"><tspan
         x="45.976562"
         y="68.707031"
         id="tspan6809">file://</tspan></text>
    <text
       xml:space="preserve"
       transform="matrix(25.318417,0,0,25.318417,-2096.0532,-1059.4808)"
       id="text2150-5"
       style="font-style:normal;font-variant:normal;font-weight:normal;font-stretch:normal;font-size:12px;font-family:Carlito;-inkscape-font-specification:'Carlito, Normal';font-variant-ligatures:normal;font-variant-caps:normal;font-variant-numeric:normal;font-variant-east-asian:normal;white-space:pre;shape-inside:url(#rect2152-4);display:inline;fill:#67d4af;fill-opacity:0.890196;stroke:#000000;stroke-width:0.46875;stroke-linecap:round;stroke-linejoin:round;stroke-dasharray:none;paint-order:stroke fill markers"><tspan
         x="45.976562"
         y="68.707031"
         id="tspan6811">http://</tspan></text>
  </g>
</svg>
