<svg xmlns="http://www.w3.org/2000/svg" xmlns:xlink="http://www.w3.org/1999/xlink" contentStyleType="text/css" data-diagram-type="CLASS" height="506px" preserveAspectRatio="none" style="width:490px;height:506px;background:#FFFFFF;" version="1.1" viewBox="0 0 490 506" width="490px" zoomAndPan="magnify"><defs/><g><!--class Timeline--><g class="entity" data-qualified-name="Timeline" data-source-line="2" id="ent0002"><rect fill="#F1F1F1" height="96.8906" rx="2.5" ry="2.5" style="stroke:#181818;stroke-width:0.5;" width="133.3652" x="162.69" y="7"/><ellipse cx="196.3233" cy="23" fill="#ADD1B2" rx="11" ry="11" style="stroke:#181818;stroke-width:1;"/><path d="M199.292,28.6406 Q198.7139,28.9375 198.0733,29.0781 Q197.4326,29.2344 196.7295,29.2344 Q194.2295,29.2344 192.9014,27.5938 Q191.5889,25.9375 191.5889,22.8125 Q191.5889,19.6875 192.9014,18.0313 Q194.2295,16.375 196.7295,16.375 Q197.4326,16.375 198.0733,16.5313 Q198.7295,16.6875 199.292,16.9844 L199.292,19.7031 Q198.667,19.125 198.0733,18.8594 Q197.4795,18.5781 196.8545,18.5781 Q195.5108,18.5781 194.8233,19.6563 Q194.1358,20.7188 194.1358,22.8125 Q194.1358,24.9063 194.8233,25.9844 Q195.5108,27.0469 196.8545,27.0469 Q197.4795,27.0469 198.0733,26.7813 Q198.667,26.5 199.292,25.9219 L199.292,28.6406 Z " fill="#000000"/><text fill="#000000" font-family="sans-serif" font-size="14" lengthAdjust="spacing" textLength="59.958" x="214.464" y="27.8467">Timeline</text><line style="stroke:#181818;stroke-width:0.5;" x1="163.69" x2="295.0552" y1="39" y2="39"/><g data-visibility-modifier="PUBLIC_FIELD"><ellipse cx="173.69" cy="52.6484" fill="none" rx="3" ry="3" style="stroke:#038048;stroke-width:1;"/></g><text fill="#000000" font-family="sans-serif" font-size="14" lengthAdjust="spacing" textLength="80.2471" x="182.69" y="55.9951">meta: Meta</text><g data-visibility-modifier="PUBLIC_FIELD"><ellipse cx="173.69" cy="68.9453" fill="none" rx="3" ry="3" style="stroke:#038048;stroke-width:1;"/></g><text fill="#000000" font-family="sans-serif" font-size="14" lengthAdjust="spacing" textLength="66.9717" x="182.69" y="72.292">title: Title</text><g data-visibility-modifier="PUBLIC_FIELD"><ellipse cx="173.69" cy="85.2422" fill="none" rx="3" ry="3" style="stroke:#038048;stroke-width:1;"/></g><text fill="#000000" font-family="sans-serif" font-size="14" lengthAdjust="spacing" textLength="107.3652" x="182.69" y="88.5889">events: Event[]</text><line style="stroke:#181818;stroke-width:0.5;" x1="163.69" x2="295.0552" y1="95.8906" y2="95.8906"/></g><!--class Meta--><g class="entity" data-qualified-name="Meta" data-source-line="8" id="ent0003"><rect fill="#F1F1F1" height="129.4844" rx="2.5" ry="2.5" style="stroke:#181818;stroke-width:0.5;" width="140.748" x="7" y="188.34"/><ellipse cx="55.7437" cy="204.34" fill="#ADD1B2" rx="11" ry="11" style="stroke:#181818;stroke-width:1;"/><path d="M58.7124,209.9806 Q58.1343,210.2775 57.4937,210.4181 Q56.853,210.5744 56.1499,210.5744 Q53.6499,210.5744 52.3218,208.9338 Q51.0093,207.2775 51.0093,204.1525 Q51.0093,201.0275 52.3218,199.3713 Q53.6499,197.715 56.1499,197.715 Q56.853,197.715 57.4937,197.8713 Q58.1499,198.0275 58.7124,198.3244 L58.7124,201.0431 Q58.0874,200.465 57.4937,200.1994 Q56.8999,199.9181 56.2749,199.9181 Q54.9312,199.9181 54.2437,200.9963 Q53.5562,202.0588 53.5562,204.1525 Q53.5562,206.2463 54.2437,207.3244 Q54.9312,208.3869 56.2749,208.3869 Q56.8999,208.3869 57.4937,208.1213 Q58.0874,207.84 58.7124,207.2619 L58.7124,209.9806 Z " fill="#000000"/><text fill="#000000" font-family="sans-serif" font-size="14" lengthAdjust="spacing" textLength="34.7607" x="76.2437" y="209.1867">Meta</text><line style="stroke:#181818;stroke-width:0.5;" x1="8" x2="146.748" y1="220.34" y2="220.34"/><g data-visibility-modifier="PUBLIC_FIELD"><ellipse cx="18" cy="233.9884" fill="none" rx="3" ry="3" style="stroke:#038048;stroke-width:1;"/></g><text fill="#000000" font-family="sans-serif" font-size="14" lengthAdjust="spacing" textLength="97.084" x="27" y="237.3351">author: String</text><g data-visibility-modifier="PUBLIC_FIELD"><ellipse cx="18" cy="250.2853" fill="none" rx="3" ry="3" style="stroke:#038048;stroke-width:1;"/></g><text fill="#000000" font-family="sans-serif" font-size="14" lengthAdjust="spacing" textLength="99.8457" x="27" y="253.632">project: String</text><g data-visibility-modifier="PUBLIC_FIELD"><ellipse cx="18" cy="266.5822" fill="none" rx="3" ry="3" style="stroke:#038048;stroke-width:1;"/></g><text fill="#000000" font-family="sans-serif" font-size="14" lengthAdjust="spacing" textLength="107.8232" x="27" y="269.9289">purpose: String</text><g data-visibility-modifier="PUBLIC_FIELD"><ellipse cx="18" cy="282.8791" fill="none" rx="3" ry="3" style="stroke:#038048;stroke-width:1;"/></g><text fill="#000000" font-family="sans-serif" font-size="14" lengthAdjust="spacing" textLength="114.748" x="27" y="286.2257">authority: String</text><g data-visibility-modifier="PUBLIC_FIELD"><ellipse cx="18" cy="299.1759" fill="none" rx="3" ry="3" style="stroke:#038048;stroke-width:1;"/></g><text fill="#000000" font-family="sans-serif" font-size="14" lengthAdjust="spacing" textLength="96.2637" x="27" y="302.5226">created: Date</text><line style="stroke:#181818;stroke-width:0.5;" x1="8" x2="146.748" y1="309.8244" y2="309.8244"/></g><!--class Title--><g class="entity" data-qualified-name="Title" data-source-line="16" id="ent0004"><rect fill="#F1F1F1" height="64.2969" rx="2.5" ry="2.5" style="stroke:#181818;stroke-width:0.5;" width="93.9834" x="182.38" y="220.93"/><ellipse cx="211.5774" cy="236.93" fill="#ADD1B2" rx="11" ry="11" style="stroke:#181818;stroke-width:1;"/><path d="M214.5462,242.5706 Q213.968,242.8675 213.3274,243.0081 Q212.6868,243.1644 211.9837,243.1644 Q209.4837,243.1644 208.1555,241.5238 Q206.843,239.8675 206.843,236.7425 Q206.843,233.6175 208.1555,231.9613 Q209.4837,230.305 211.9837,230.305 Q212.6868,230.305 213.3274,230.4613 Q213.9837,230.6175 214.5462,230.9144 L214.5462,233.6331 Q213.9212,233.055 213.3274,232.7894 Q212.7337,232.5081 212.1087,232.5081 Q210.7649,232.5081 210.0774,233.5863 Q209.3899,234.6488 209.3899,236.7425 Q209.3899,238.8363 210.0774,239.9144 Q210.7649,240.9769 212.1087,240.9769 Q212.7337,240.9769 213.3274,240.7113 Q213.9212,240.43 214.5462,239.8519 L214.5462,242.5706 Z " fill="#000000"/><text fill="#000000" font-family="sans-serif" font-size="14" lengthAdjust="spacing" textLength="30.4336" x="228.7324" y="241.7767">Title</text><line style="stroke:#181818;stroke-width:0.5;" x1="183.38" x2="275.3634" y1="252.93" y2="252.93"/><g data-visibility-modifier="PUBLIC_FIELD"><ellipse cx="193.38" cy="266.5784" fill="none" rx="3" ry="3" style="stroke:#038048;stroke-width:1;"/></g><text fill="#000000" font-family="sans-serif" font-size="14" lengthAdjust="spacing" textLength="67.9834" x="202.38" y="269.9251">text: Text</text><line style="stroke:#181818;stroke-width:0.5;" x1="183.38" x2="275.3634" y1="277.2269" y2="277.2269"/></g><!--class Text--><g class="entity" data-qualified-name="Text" data-source-line="20" id="ent0005"><rect fill="#F1F1F1" height="80.5938" rx="2.5" ry="2.5" style="stroke:#181818;stroke-width:0.5;" width="137.166" x="167.79" y="410.42"/><ellipse cx="216.6533" cy="426.42" fill="#ADD1B2" rx="11" ry="11" style="stroke:#181818;stroke-width:1;"/><path d="M219.622,432.0606 Q219.0439,432.3575 218.4033,432.4981 Q217.7627,432.6544 217.0595,432.6544 Q214.5595,432.6544 213.2314,431.0138 Q211.9189,429.3575 211.9189,426.2325 Q211.9189,423.1075 213.2314,421.4513 Q214.5595,419.795 217.0595,419.795 Q217.7627,419.795 218.4033,419.9513 Q219.0595,420.1075 219.622,420.4044 L219.622,423.1231 Q218.997,422.545 218.4033,422.2794 Q217.8095,421.9981 217.1845,421.9981 Q215.8408,421.9981 215.1533,423.0763 Q214.4658,424.1388 214.4658,426.2325 Q214.4658,428.3263 215.1533,429.4044 Q215.8408,430.4669 217.1845,430.4669 Q217.8095,430.4669 218.4033,430.2013 Q218.997,429.92 219.622,429.3419 L219.622,432.0606 Z " fill="#000000"/><text fill="#000000" font-family="sans-serif" font-size="14" lengthAdjust="spacing" textLength="30.9395" x="237.1533" y="431.2667">Text</text><line style="stroke:#181818;stroke-width:0.5;" x1="168.79" x2="303.956" y1="442.42" y2="442.42"/><g data-visibility-modifier="PUBLIC_FIELD"><ellipse cx="178.79" cy="456.0684" fill="none" rx="3" ry="3" style="stroke:#038048;stroke-width:1;"/></g><text fill="#000000" font-family="sans-serif" font-size="14" lengthAdjust="spacing" textLength="111.166" x="187.79" y="459.4151">headline: String</text><g data-visibility-modifier="PUBLIC_FIELD"><ellipse cx="178.79" cy="472.3653" fill="none" rx="3" ry="3" style="stroke:#038048;stroke-width:1;"/></g><text fill="#000000" font-family="sans-serif" font-size="14" lengthAdjust="spacing" textLength="78.8252" x="187.79" y="475.712">text: String</text><line style="stroke:#181818;stroke-width:0.5;" x1="168.79" x2="303.956" y1="483.0138" y2="483.0138"/></g><!--class Event--><g class="entity" data-qualified-name="Event" data-source-line="25" id="ent0006"><rect fill="#F1F1F1" height="178.375" rx="2.5" ry="2.5" style="stroke:#181818;stroke-width:0.5;" width="172.2822" x="311.23" y="163.89"/><ellipse cx="373.0679" cy="179.89" fill="#ADD1B2" rx="11" ry="11" style="stroke:#181818;stroke-width:1;"/><path d="M376.0366,185.5306 Q375.4585,185.8275 374.8179,185.9681 Q374.1773,186.1244 373.4741,186.1244 Q370.9741,186.1244 369.646,184.4838 Q368.3335,182.8275 368.3335,179.7025 Q368.3335,176.5775 369.646,174.9213 Q370.9741,173.265 373.4741,173.265 Q374.1773,173.265 374.8179,173.4213 Q375.4741,173.5775 376.0366,173.8744 L376.0366,176.5931 Q375.4116,176.015 374.8179,175.7494 Q374.2241,175.4681 373.5991,175.4681 Q372.2554,175.4681 371.5679,176.5463 Q370.8804,177.6088 370.8804,179.7025 Q370.8804,181.7963 371.5679,182.8744 Q372.2554,183.9369 373.5991,183.9369 Q374.2241,183.9369 374.8179,183.6713 Q375.4116,183.39 376.0366,182.8119 L376.0366,185.5306 Z " fill="#000000"/><text fill="#000000" font-family="sans-serif" font-size="14" lengthAdjust="spacing" textLength="40.1064" x="393.5679" y="184.7367">Event</text><line style="stroke:#181818;stroke-width:0.5;" x1="312.23" x2="482.5122" y1="195.89" y2="195.89"/><g data-visibility-modifier="PUBLIC_FIELD"><ellipse cx="322.23" cy="209.5384" fill="none" rx="3" ry="3" style="stroke:#038048;stroke-width:1;"/></g><text fill="#000000" font-family="sans-serif" font-size="14" lengthAdjust="spacing" textLength="63.7246" x="331.23" y="212.8851">id: String</text><g data-visibility-modifier="PUBLIC_FIELD"><ellipse cx="322.23" cy="225.8353" fill="none" rx="3" ry="3" style="stroke:#038048;stroke-width:1;"/></g><text fill="#000000" font-family="sans-serif" font-size="14" lengthAdjust="spacing" textLength="137.6006" x="331.23" y="229.182">start_date: DateObj</text><g data-visibility-modifier="PUBLIC_FIELD"><ellipse cx="322.23" cy="242.1322" fill="none" rx="3" ry="3" style="stroke:#038048;stroke-width:1;"/></g><text fill="#000000" font-family="sans-serif" font-size="14" lengthAdjust="spacing" textLength="67.9834" x="331.23" y="245.4789">text: Text</text><g data-visibility-modifier="PUBLIC_FIELD"><ellipse cx="322.23" cy="258.4291" fill="none" rx="3" ry="3" style="stroke:#038048;stroke-width:1;"/></g><text fill="#000000" font-family="sans-serif" font-size="14" lengthAdjust="spacing" textLength="91.916" x="331.23" y="261.7757">group: String</text><g data-visibility-modifier="PUBLIC_FIELD"><ellipse cx="322.23" cy="274.7259" fill="none" rx="3" ry="3" style="stroke:#038048;stroke-width:1;"/></g><text fill="#000000" font-family="sans-serif" font-size="14" lengthAdjust="spacing" textLength="92.1211" x="331.23" y="278.0726">tags: String[]</text><g data-visibility-modifier="PUBLIC_FIELD"><ellipse cx="322.23" cy="291.0228" fill="none" rx="3" ry="3" style="stroke:#038048;stroke-width:1;"/></g><text fill="#000000" font-family="sans-serif" font-size="14" lengthAdjust="spacing" textLength="127.5859" x="331.23" y="294.3695">confidence: String</text><g data-visibility-modifier="PUBLIC_FIELD"><ellipse cx="322.23" cy="307.3197" fill="none" rx="3" ry="3" style="stroke:#038048;stroke-width:1;"/></g><text fill="#000000" font-family="sans-serif" font-size="14" lengthAdjust="spacing" textLength="97.7471" x="331.23" y="310.6664">source: String</text><g data-visibility-modifier="PUBLIC_FIELD"><ellipse cx="322.23" cy="323.6166" fill="none" rx="3" ry="3" style="stroke:#038048;stroke-width:1;"/></g><text fill="#000000" font-family="sans-serif" font-size="14" lengthAdjust="spacing" textLength="146.2822" x="331.23" y="326.9632">private_notes: String</text><line style="stroke:#181818;stroke-width:0.5;" x1="312.23" x2="482.5122" y1="334.265" y2="334.265"/></g><!--class DateObj--><g class="entity" data-qualified-name="DateObj" data-source-line="36" id="ent0007"><rect fill="#F1F1F1" height="96.8906" rx="2.5" ry="2.5" style="stroke:#181818;stroke-width:0.5;" width="99.0967" x="347.83" y="402.27"/><ellipse cx="367.2575" cy="418.27" fill="#ADD1B2" rx="11" ry="11" style="stroke:#181818;stroke-width:1;"/><path d="M370.2262,423.9106 Q369.6481,424.2075 369.0075,424.3481 Q368.3669,424.5044 367.6637,424.5044 Q365.1637,424.5044 363.8356,422.8638 Q362.5231,421.2075 362.5231,418.0825 Q362.5231,414.9575 363.8356,413.3013 Q365.1637,411.645 367.6637,411.645 Q368.3669,411.645 369.0075,411.8013 Q369.6637,411.9575 370.2262,412.2544 L370.2262,414.9731 Q369.6012,414.395 369.0075,414.1294 Q368.4137,413.8481 367.7887,413.8481 Q366.445,413.8481 365.7575,414.9263 Q365.07,415.9888 365.07,418.0825 Q365.07,420.1763 365.7575,421.2544 Q366.445,422.3169 367.7887,422.3169 Q368.4137,422.3169 369.0075,422.0513 Q369.6012,421.77 370.2262,421.1919 L370.2262,423.9106 Z " fill="#000000"/><text fill="#000000" font-family="sans-serif" font-size="14" lengthAdjust="spacing" textLength="57.2578" x="382.2414" y="423.1167">DateObj</text><line style="stroke:#181818;stroke-width:0.5;" x1="348.83" x2="445.9267" y1="434.27" y2="434.27"/><g data-visibility-modifier="PUBLIC_FIELD"><ellipse cx="358.83" cy="447.9184" fill="none" rx="3" ry="3" style="stroke:#038048;stroke-width:1;"/></g><text fill="#000000" font-family="sans-serif" font-size="14" lengthAdjust="spacing" textLength="58.8916" x="367.83" y="451.2651">year: Int</text><g data-visibility-modifier="PUBLIC_FIELD"><ellipse cx="358.83" cy="464.2153" fill="none" rx="3" ry="3" style="stroke:#038048;stroke-width:1;"/></g><text fill="#000000" font-family="sans-serif" font-size="14" lengthAdjust="spacing" textLength="73.0967" x="367.83" y="467.562">month: Int</text><g data-visibility-modifier="PUBLIC_FIELD"><ellipse cx="358.83" cy="480.5122" fill="none" rx="3" ry="3" style="stroke:#038048;stroke-width:1;"/></g><text fill="#000000" font-family="sans-serif" font-size="14" lengthAdjust="spacing" textLength="53.4092" x="367.83" y="483.8589">day: Int</text><line style="stroke:#181818;stroke-width:0.5;" x1="348.83" x2="445.9267" y1="491.1606" y2="491.1606"/></g><!--link Timeline to Meta--><g class="link" data-entity-1="ent0002" data-entity-2="ent0003" data-link-type="dependency" data-source-line="43" id="lnk8"><path codeLine="43" d="M192.19,104.31 C172.59,129.53 151.9606,156.0815 130.7706,183.3615" fill="none" id="Timeline-to-Meta" style="stroke:#181818;stroke-width:1;"/><polygon fill="#181818" points="127.09,188.1,135.7699,183.4461,130.1572,184.1513,129.452,178.5386,127.09,188.1" style="stroke:#181818;stroke-width:1;"/></g><!--link Timeline to Title--><g class="link" data-entity-1="ent0002" data-entity-2="ent0004" data-link-type="dependency" data-source-line="44" id="lnk9"><path codeLine="44" d="M229.37,104.31 C229.37,140.5 229.37,183.18 229.37,214.6" fill="none" id="Timeline-to-Title" style="stroke:#181818;stroke-width:1;"/><polygon fill="#181818" points="229.37,220.6,233.37,211.6,229.37,215.6,225.37,211.6,229.37,220.6" style="stroke:#181818;stroke-width:1;"/></g><!--link Timeline to Event--><g class="link" data-entity-1="ent0002" data-entity-2="ent0006" data-link-type="dependency" data-source-line="45" id="lnk10"><path codeLine="45" d="M270.47,104.31 C285.82,122.18 299.8712,138.5379 317.3712,158.9179" fill="none" id="Timeline-to-Event" style="stroke:#181818;stroke-width:1;"/><polygon fill="#181818" points="321.28,163.47,318.4515,154.036,318.0227,159.6766,312.3821,159.2478,321.28,163.47" style="stroke:#181818;stroke-width:1;"/></g><!--link Title to Text--><g class="link" data-entity-1="ent0004" data-entity-2="ent0005" data-link-type="dependency" data-source-line="46" id="lnk11"><path codeLine="46" d="M230.5,285.51 C231.71,319.43 233.4363,367.5038 234.7463,404.2538" fill="none" id="Title-to-Text" style="stroke:#181818;stroke-width:1;"/><polygon fill="#181818" points="234.96,410.25,238.6368,401.1132,234.7819,405.2532,230.6419,401.3982,234.96,410.25" style="stroke:#181818;stroke-width:1;"/></g><!--link Event to Text--><g class="link" data-entity-1="ent0006" data-entity-2="ent0005" data-link-type="dependency" data-source-line="47" id="lnk12"><path codeLine="47" d="M324.41,342.74 C304.94,366.4 288.693,386.1374 272.643,405.6374" fill="none" id="Event-to-Text" style="stroke:#181818;stroke-width:1;"/><polygon fill="#181818" points="268.83,410.27,277.6379,405.8631,272.0075,406.4095,271.4611,400.7791,268.83,410.27" style="stroke:#181818;stroke-width:1;"/></g><!--link Event to DateObj--><g class="link" data-entity-1="ent0006" data-entity-2="ent0007" data-link-type="dependency" data-source-line="48" id="lnk13"><path codeLine="48" d="M397.37,342.74 C397.37,363.16 397.37,378.12 397.37,396.01" fill="none" id="Event-to-DateObj" style="stroke:#181818;stroke-width:1;"/><polygon fill="#181818" points="397.37,402.01,401.37,393.01,397.37,397.01,393.37,393.01,397.37,402.01" style="stroke:#181818;stroke-width:1;"/></g><!--SRC=[RL6nJiGm3Dtp5TbkGFS37PYEWG4nS1j2fz3usfpQ98hT4nNYtt7YNcc09SvxoREVxPq-mDbvqErW405LYVheHXWo_QcqlXk1JAEV-Co870tGy1SE6SCLF66Z7t9yVLDVQacI1PB0JDI7rEWNIivtcOafNA2bYffI30XRIdIEvYtP9Z04jj473Z_LYXyfH_31cOzyRfuPoMiFnkRUjZb5iU1LKpeIaRFRxqWcqSboVN7n_7xvLPTHby8KgoAcmnlcEULMWZyx2xwjp62OKit4vAvSvkG30VxrkLWGfpCOdlIZBnx6uAbVaJMpt5cvkoq-mM381O-zYwZMnU_tzxBnYf6bLrGPafBfbo-vVPdSFt2n-Wq0]--></g></svg>