<?xml version="1.0" encoding="UTF-8" standalone="no"?>
<!-- Created with Inkscape (http://www.inkscape.org/) -->

<svg
   width="428.57144"
   height="150"
   viewBox="0 0 428.57144 150"
   version="1.1"
   id="svg1"
   inkscape:version="1.4.3 (0d15f75042, 2025-12-25)"
   sodipodi:docname="adblogo.svg"
   inkscape:export-filename="adblogo.svg"
   inkscape:export-xdpi="96"
   inkscape:export-ydpi="96"
   xmlns:inkscape="http://www.inkscape.org/namespaces/inkscape"
   xmlns:sodipodi="http://sodipodi.sourceforge.net/DTD/sodipodi-0.dtd"
   xmlns="http://www.w3.org/2000/svg"
   xmlns:svg="http://www.w3.org/2000/svg">
  <sodipodi:namedview
     id="namedview1"
     pagecolor="#ffffff"
     bordercolor="#000000"
     borderopacity="0.25"
     inkscape:showpageshadow="2"
     inkscape:pageopacity="0.0"
     inkscape:pagecheckerboard="0"
     inkscape:deskcolor="#d1d1d1"
     inkscape:document-units="px"
     inkscape:zoom="2.5643333"
     inkscape:cx="214.28572"
     inkscape:cy="75.068246"
     inkscape:window-width="1920"
     inkscape:window-height="1122"
     inkscape:window-x="0"
     inkscape:window-y="0"
     inkscape:window-maximized="1"
     inkscape:current-layer="layer1"
     showgrid="true">
    <inkscape:grid
       id="grid1"
       units="px"
       originx="0"
       originy="0"
       spacingx="1"
       spacingy="1"
       empcolor="#0099e5"
       empopacity="0.30196078"
       color="#0099e5"
       opacity="0.14901961"
       empspacing="5"
       enabled="true"
       visible="true" />
  </sodipodi:namedview>
  <defs
     id="defs1" />
  <g
     inkscape:label="Layer 1"
     inkscape:groupmode="layer"
     id="layer1">
    <g
       id="g1"
       transform="matrix(1,0.08778507,0,1,0,-0.0972693)">
      <text
         xml:space="preserve"
         style="font-style:normal;font-variant:normal;font-weight:normal;font-stretch:normal;font-size:91.5645px;font-family:Orbitron;-inkscape-font-specification:'Orbitron, Normal';font-variant-ligatures:normal;font-variant-caps:normal;font-variant-numeric:normal;font-variant-east-asian:normal;writing-mode:lr-tb;direction:ltr;mix-blend-mode:normal;fill:#808080;fill-opacity:1;stroke:#000000;stroke-width:0.5;stroke-dasharray:none;stroke-opacity:1"
         x="291.51779"
         y="96.171959"
         id="text1-9"
         transform="skewY(-4.6596708)"><tspan
           sodipodi:role="line"
           x="291.51779"
           y="96.171959"
           id="tspan2-3"
           style="fill:#808080;fill-opacity:1;stroke:#000000;stroke-width:0.5;stroke-dasharray:none;stroke-opacity:1">De</tspan></text>
      <text
         xml:space="preserve"
         style="font-style:normal;font-variant:normal;font-weight:normal;font-stretch:normal;font-size:91.5645px;font-family:Orbitron;-inkscape-font-specification:'Orbitron, Normal';font-variant-ligatures:normal;font-variant-caps:normal;font-variant-numeric:normal;font-variant-east-asian:normal;writing-mode:lr-tb;direction:ltr;fill:#000000;fill-opacity:1;stroke:#ffffff;stroke-width:0.5;stroke-dasharray:none;stroke-opacity:1"
         x="-3.9525788"
         y="98.461098"
         id="text1-2"
         transform="skewY(-4.6596708)"><tspan
           sodipodi:role="line"
           x="-3.9525788"
           y="98.461098"
           id="tspan2-35"
           style="fill:#000000;fill-opacity:1;stroke:#ffffff;stroke-width:0.5;stroke-dasharray:none;stroke-opacity:1">Annie</tspan></text>
      <path
         d="M 1.6183653,148.22896 V 82.673702 L 57.662288,78.105765 c 2.166904,-0.176617 4.136815,0.14842 5.909733,0.975102 1.838585,0.821331 3.28319,2.03897 4.333809,3.65292 1.050611,1.553251 1.575916,3.331417 1.575916,5.33449 v 13.930503 c 0,0.84978 -0.131318,1.71028 -0.393956,2.58147 -0.197016,0.80516 -0.492464,1.58798 -0.886459,2.34848 1.444606,1.88533 2.528058,3.52696 3.250349,4.92487 0.722292,1.39791 1.083453,2.85561 1.083453,4.37309 v 15.29622 c 0,2.00308 -0.525275,3.89722 -1.575925,5.68244 -1.050618,1.72452 -2.495216,3.1473 -4.333801,4.26834 -1.772933,1.11569 -3.742852,1.76184 -5.909756,1.93846 z m 11.8194587,-8.33832 47.277827,-3.85345 c 1.050619,-0.0856 1.937078,-0.49179 2.659384,-1.21829 0.787989,-0.79262 1.181938,-1.67453 1.181938,-2.64572 v -15.29622 c 0,-0.97119 -0.393957,-1.75852 -1.181938,-2.36199 -0.722291,-0.66952 -1.608765,-0.96146 -2.659384,-0.87583 l -47.277827,3.85345 c -1.050619,0.0856 -1.969911,0.52476 -2.757869,1.31737 -0.7222917,0.72653 -1.0834526,1.57544 -1.0834526,2.54663 v 15.29622 c 0,0.97119 0.3611456,1.79155 1.0834526,2.46107 0.787988,0.60343 1.70725,0.86239 2.757869,0.77676 z m 0,-29.77302 44.224464,-3.60458 c 1.050626,-0.0856 1.937077,-0.49179 2.659384,-1.2183 0.722291,-0.78726 1.083452,-1.66648 1.083452,-2.63767 V 88.726573 c 0,-0.971179 -0.361146,-1.761185 -1.083452,-2.370008 -0.722291,-0.669524 -1.608758,-0.961469 -2.659384,-0.875837 l -44.224464,3.604576 c -1.050619,0.08563 -1.969911,0.524758 -2.757869,1.317377 -0.7222917,0.726529 -1.0834526,1.575446 -1.0834526,2.546625 v 13.930504 c 0,0.97118 0.3611456,1.79153 1.0834526,2.46105 0.787988,0.60343 1.70725,0.86239 2.757869,0.77676 z"
         style="font-size:12.4108px;font-family:Orbitron;-inkscape-font-specification:'Orbitron, Normal';mix-blend-mode:hard-light;fill:#b2b2b2;fill-opacity:1;stroke:#000000;stroke-width:0.5;stroke-dasharray:none;stroke-opacity:1"
         id="path1" />
      <path
         d="m 82.877204,135.23241 v 0 -41.791474 c 0,-2.003072 0.525302,-3.866867 1.575929,-5.591386 1.116276,-1.790562 2.560876,-3.243691 4.3338,-4.359385 1.83858,-1.181747 3.841322,-1.860928 6.008225,-2.037545 l 32.109522,-2.61713 v 7.466018 l -32.109522,2.617131 c -1.050619,0.08563 -1.969909,0.524732 -2.757878,1.317375 -0.72228,0.726544 -1.083452,1.575436 -1.083452,2.546626 v 41.79148 z m 61.756656,-5.03356 c -2.1669,0.17662 -4.16964,-0.14573 -6.00822,-0.96707 -1.77293,-0.88738 -3.21752,-2.10502 -4.33381,-3.65293 -1.05061,-1.61394 -1.57592,-3.42246 -1.57592,-5.42553 V 89.378764 c 0,-2.003073 0.5253,-3.866867 1.57592,-5.591385 1.11629,-1.790564 2.56088,-3.243692 4.33381,-4.359387 1.83858,-1.181746 3.84132,-1.860927 6.00822,-2.037543 l 34.27643,-2.793748 c 2.23256,-0.181968 4.2353,0.170756 6.00822,1.058127 1.83858,0.821334 3.28318,2.038974 4.3338,3.652921 1.11628,1.547902 1.67442,3.32339 1.67442,5.326462 v 30.774559 c 0,2.00307 -0.55816,3.89989 -1.67442,5.69045 -1.05062,1.72452 -2.49522,3.17765 -4.3338,4.3594 -1.77292,1.11568 -3.77566,1.76452 -6.00822,1.94648 z m 0,-7.46601 34.27643,-2.79375 c 1.05062,-0.0856 1.93707,-0.49175 2.65937,-1.21829 0.78799,-0.79265 1.18195,-1.67453 1.18195,-2.64571 V 85.300536 c 0,-0.97119 -0.39396,-1.758519 -1.18195,-2.361981 -0.72228,-0.669548 -1.60875,-0.961467 -2.65937,-0.875835 l -34.27643,2.793747 c -1.05062,0.08563 -1.96991,0.524732 -2.75787,1.317375 -0.72228,0.726544 -1.08346,1.575436 -1.08346,2.546626 v 30.774552 c 0,0.97119 0.36118,1.79154 1.08346,2.46106 0.78799,0.60345 1.70725,0.86239 2.75787,0.77676 z m 73.67459,1.46106 v 0 l -22.45697,-50.978014 8.66761,-0.706465 17.3352,37.920229 18.41865,-40.834396 10.63751,-0.867025 19.60061,37.644531 16.15326,-40.558699 8.76609,-0.714492 -21.57051,54.566541 -6.99318,0.56998 -21.27502,-41.878401 -20.19158,45.258201 z m 94.75262,-7.72294 c -2.1669,0.17662 -4.16964,-0.14574 -6.00823,-0.96707 -1.77291,-0.88738 -3.21751,-2.10503 -4.3338,-3.65293 -1.05062,-1.61394 -1.57593,-3.42246 -1.57593,-5.42553 v -0.72842 l 8.07664,-0.6583 v 0.72842 c 0,0.97119 0.36118,1.79154 1.08345,2.46106 0.78799,0.60345 1.70725,0.86239 2.75787,0.77676 l 34.27642,-2.79375 c 1.05062,-0.0856 1.93708,-0.49176 2.65938,-1.21829 0.788,-0.79265 1.18195,-1.67453 1.18195,-2.64571 v -8.103363 c 0,-0.971183 -0.39395,-1.758512 -1.18195,-2.361982 -0.72228,-0.669547 -1.60876,-0.961466 -2.65938,-0.875834 l -34.27642,2.793747 c -2.1669,0.176616 -4.16964,-0.145735 -6.00823,-0.967076 -1.77291,-0.887379 -3.21751,-2.105019 -4.3338,-3.652921 -1.05062,-1.613947 -1.57593,-3.42246 -1.57593,-5.42554 v -8.103357 c 0,-2.003073 0.52531,-3.866868 1.57593,-5.591387 1.11629,-1.790563 2.56089,-3.243691 4.3338,-4.359385 1.83859,-1.181747 3.84133,-1.860928 6.00823,-2.037544 l 34.27642,-2.793747 c 2.23257,-0.181969 4.23531,0.170755 6.00823,1.058127 1.83859,0.821333 3.28319,2.038973 4.3338,3.652921 1.11628,1.547901 1.67442,3.323388 1.67442,5.326461 v 0.728419 l -8.17512,0.666324 v -0.728418 c 0,-0.97119 -0.39395,-1.758519 -1.18195,-2.361982 -0.72228,-0.669547 -1.60876,-0.961466 -2.65938,-0.875834 l -34.27642,2.793747 c -1.05062,0.08563 -1.96991,0.524733 -2.75787,1.317375 -0.72228,0.726544 -1.08345,1.575436 -1.08345,2.546626 v 8.103357 c 0,0.97119 0.36118,1.791541 1.08345,2.461067 0.78799,0.603448 1.70725,0.862388 2.75787,0.776756 l 34.27642,-2.793747 c 2.23257,-0.181968 4.23531,0.170755 6.00823,1.05812 1.83859,0.821333 3.28319,2.038973 4.3338,3.652921 1.11628,1.547901 1.67442,3.323388 1.67442,5.326461 v 8.103368 c 0,2.00307 -0.55815,3.89989 -1.67442,5.69045 -1.05061,1.72452 -2.49521,3.17765 -4.3338,4.3594 -1.77292,1.11568 -3.77566,1.76451 -6.00823,1.94648 z m 67.96194,-5.53933 c -2.16689,0.17661 -4.16964,-0.14574 -6.00822,-0.96707 -1.77292,-0.88739 -3.21752,-2.10503 -4.3338,-3.65293 -1.05062,-1.61394 -1.57593,-3.42246 -1.57593,-5.42553 V 81.765815 l 50.03571,-4.078229 V 66.033313 c 0,-0.97119 -0.39396,-1.758519 -1.18195,-2.361981 -0.72228,-0.669548 -1.60877,-0.961466 -2.65938,-0.875835 l -46.19438,3.765137 v -7.466018 l 46.19438,-3.765137 c 2.23256,-0.181968 4.23531,0.170756 6.00822,1.058127 1.83859,0.821334 3.28319,2.038974 4.33381,3.65292 1.11627,1.547903 1.67442,3.32339 1.67442,5.326463 v 41.791471 z m 0,-7.46601 38.11776,-3.10684 V 85.153597 l -41.95908,3.419932 V 100.2278 c 0,0.97118 0.36118,1.79154 1.08345,2.46106 0.78799,0.60345 1.70725,0.86239 2.75787,0.77676 z"
         id="text1"
         style="font-size:12.4108px;font-family:Orbitron;-inkscape-font-specification:'Orbitron, Normal';mix-blend-mode:hard-light;fill:#b2b2b2;fill-opacity:1;stroke:#000000;stroke-width:0.5;stroke-dasharray:none;stroke-opacity:1"
         aria-label="Browsa"
         sodipodi:nodetypes="ccsccsccsssccsccssccssccssccssssssscssssscscccccccccccccccsccsccscssssscssccssccssccsccscssssscssccssccsssccsccscsccsccscsscccscs" />
    </g>
  </g>
</svg>
