<?xml version="1.0" encoding="utf-8"?>
<!-- Generator: Adobe Illustrator 21.1.0, SVG Export Plug-In . SVG Version: 6.00 Build 0)  -->
<svg version="1.1" id="Capa_1" xmlns="http://www.w3.org/2000/svg" xmlns:xlink="http://www.w3.org/1999/xlink" x="0px" y="0px"
	 viewBox="0 0 963 963" style="enable-background:new 0 0 963 963;" xml:space="preserve">
<style type="text/css">
	.st0{fill:#FFFFFF;}
</style>
<path class="st0" d="M481.5,0C215.6,0,0,215.6,0,481.5S215.6,963,481.5,963S963,747.4,963,481.5S747.4,0,481.5,0z M742.8,629.8
	c31.1,31.1,31.1,82,0,113.1l0,0c-31.1,31.1-82,31.1-113.1,0l-141-141l-141,141c-31.1,31.1-82,31.1-113.1,0l0,0
	c-31.1-31.1-31.1-82,0-113.1l141-141l-141-141c-31.1-31.1-31.1-82,0-113.1l0,0c31.1-31.1,82-31.1,113.1,0l141,141l141-141
	c31.1-31.1,82-31.1,113.1,0l0,0c31.1,31.1,31.1,82,0,113.1l-141,141L742.8,629.8z"/>
</svg>
