<?xml version="1.0" encoding="utf-8"?>
<!-- Generator: Adobe Illustrator 21.1.0, SVG Export Plug-In . SVG Version: 6.00 Build 0)  -->
<svg version="1.1" id="Capa_1" xmlns="http://www.w3.org/2000/svg" xmlns:xlink="http://www.w3.org/1999/xlink" x="0px" y="0px"
	 viewBox="0 0 963 963" style="enable-background:new 0 0 963 963;" xml:space="preserve">
<style type="text/css">
	.st0{fill:#FFFFFF;}
</style>
<path class="st0" d="M481.5,0C215.6,0,0,215.6,0,481.5S215.6,963,481.5,963S963,747.4,963,481.5S747.4,0,481.5,0z M271.2,377.1
	c5.8-14,19.5-23.3,34.6-23.3h69.2v-91c0-20.7,17.2-37.8,37.9-37.8h136c20.7,0,37.7,17.1,37.7,37.8v91h69.5
	c15.2,0,28.8,9.3,34.6,23.3c5.8,14,2.5,30.3-8.2,41.1L516.2,583.7c-19.5,19.4-50.9,19.4-70.3,0L279.4,418
	C268.7,407.3,265.4,391.1,271.2,377.1z M691.6,737H270.4c-20.7,0-37.5-16.8-37.5-37.5v-30.9c0-20.7,16.8-37.5,37.5-37.5h421.2
	c20.7,0,37.5,16.8,37.5,37.5l0,30.9C729.1,720.2,712.3,737,691.6,737z"/>
</svg>
