<?xml version="1.0" encoding="utf-8"?>
<!-- Generator: Adobe Illustrator 21.1.0, SVG Export Plug-In . SVG Version: 6.00 Build 0)  -->
<svg version="1.1" id="Capa_1" xmlns="http://www.w3.org/2000/svg" xmlns:xlink="http://www.w3.org/1999/xlink" x="0px" y="0px"
	 viewBox="0 0 963 963" style="enable-background:new 0 0 963 963;" xml:space="preserve">
<style type="text/css">
	.st0{fill:#FFFFFF;}
</style>
<g>
	<path class="st0" d="M963,481.5C963,215.6,747.4,0,481.5,0S0,215.6,0,481.5S215.6,963,481.5,963S963,747.4,963,481.5z M271.4,419.7
		l213.4-233.2c17.8-19.4,42.1-29.2,66.4-29.2c21.7,0,43.5,7.8,60.7,23.6c36.7,33.6,39.2,90.5,5.6,127.2L459.8,480.4l162.6,177.3
		c33.6,36.6,31.1,93.6-5.5,127.2s-93.6,31.1-127.2-5.5L271.4,541.3C239.9,506.8,239.9,454.1,271.4,419.7z"/>
</g>
</svg>
