<?xml version="1.0" encoding="UTF-8" standalone="no"?>
<!-- Created with Inkscape (http://www.inkscape.org/) -->

<svg
   width="750"
   height="850"
   viewBox="0 0 198.4375 224.89583"
   version="1.1"
   id="svg1"
   inkscape:version="1.3-beta (cedbd6c6ff, 2023-05-28)"
   sodipodi:docname="modes_model.svg"
   xmlns:inkscape="http://www.inkscape.org/namespaces/inkscape"
   xmlns:sodipodi="http://sodipodi.sourceforge.net/DTD/sodipodi-0.dtd"
   xmlns:xlink="http://www.w3.org/1999/xlink"
   xmlns="http://www.w3.org/2000/svg"
   xmlns:svg="http://www.w3.org/2000/svg">
  <sodipodi:namedview
     id="namedview1"
     pagecolor="#ffffff"
     bordercolor="#000000"
     borderopacity="0.25"
     inkscape:showpageshadow="2"
     inkscape:pageopacity="0.0"
     inkscape:pagecheckerboard="0"
     inkscape:deskcolor="#d1d1d1"
     inkscape:document-units="mm"
     inkscape:zoom="0.8088945"
     inkscape:cx="397.45603"
     inkscape:cy="467.30445"
     inkscape:window-width="1920"
     inkscape:window-height="1146"
     inkscape:window-x="-8"
     inkscape:window-y="-8"
     inkscape:window-maximized="1"
     inkscape:current-layer="layer1" />
  <defs
     id="defs1">
    <linearGradient
       id="linearGradient4898">
      <stop
         id="stop4900"
         offset="0"
         style="stop-color:#000000;stop-opacity:0.21655172;" />
      <stop
         id="stop4902"
         offset="1"
         style="stop-color:#ffffff;stop-opacity:0.21793103;" />
    </linearGradient>
    <linearGradient
       inkscape:collect="always"
       xlink:href="#linearGradient4898"
       id="linearGradient7928"
       gradientUnits="userSpaceOnUse"
       gradientTransform="matrix(0.73047031,0,0,0.98614168,-566.41604,-271.83403)"
       x1="835.74139"
       y1="388.85309"
       x2="986.74139"
       y2="388.85309" />
  </defs>
  <g
     inkscape:label="Layer 1"
     inkscape:groupmode="layer"
     id="layer1">
    <rect
       style="display:inline;vector-effect:none;fill:#4e4e4e;fill-opacity:1;fill-rule:evenodd;stroke:#b2b2b2;stroke-width:0.205185;stroke-linecap:butt;stroke-linejoin:round;stroke-miterlimit:4;stroke-dasharray:none;stroke-dashoffset:0;stroke-opacity:1;-inkscape-stroke:none;marker:none;marker-start:none;marker-mid:none;marker-end:none;paint-order:stroke fill markers"
       id="rect27"
       width="194.64035"
       height="218.51811"
       x="1.8985748"
       y="3.1888609" />
    <rect
       style="display:inline;overflow:visible;visibility:visible;fill:#d7f4d7;fill-opacity:1;fill-rule:nonzero;stroke:url(#linearGradient7928);stroke-width:0.848731;stroke-linecap:butt;stroke-linejoin:bevel;stroke-miterlimit:4;stroke-dasharray:none;stroke-dashoffset:0;stroke-opacity:1;marker:none;marker-start:none;marker-mid:none;marker-end:none;enable-background:accumulate"
       id="rect7008"
       width="109.57055"
       height="197.22833"
       x="44.433479"
       y="13.016021" />
    <g
       id="g26"
       transform="translate(-13.920934,-73.504169)">
      <text
         transform="scale(0.92333273,1.0830332)"
         xml:space="preserve"
         style="font-style:normal;font-variant:normal;font-weight:normal;font-stretch:normal;font-size:13.4089px;line-height:0%;font-family:'Alumni Sans Pinstripe';-inkscape-font-specification:'Alumni Sans Pinstripe, Normal';font-variant-ligatures:normal;font-variant-caps:normal;font-variant-numeric:normal;font-variant-east-asian:normal;text-align:start;writing-mode:lr-tb;text-anchor:start;display:inline;overflow:visible;visibility:visible;fill:#000000;fill-opacity:1;fill-rule:evenodd;stroke:#39b39f;stroke-width:0.248813;stroke-linecap:butt;stroke-linejoin:round;stroke-miterlimit:4;stroke-dasharray:none;stroke-dashoffset:0;stroke-opacity:1;marker:none;marker-start:none;marker-mid:none;marker-end:none;enable-background:accumulate"
         x="117.09928"
         y="211.46333"
         id="text7048"><tspan
           style="font-style:normal;font-variant:normal;font-weight:normal;font-stretch:normal;font-size:13.4089px;line-height:1;font-family:'Alumni Sans Pinstripe';-inkscape-font-specification:'Alumni Sans Pinstripe, Normal';font-variant-ligatures:normal;font-variant-caps:normal;font-variant-numeric:normal;font-variant-east-asian:normal;stroke:#39b39f;stroke-width:0.248813;stroke-opacity:1"
           y="211.46333"
           x="117.09928"
           id="tspan7258"
           sodipodi:role="line">vi</tspan><tspan
           style="font-style:normal;font-variant:normal;font-weight:normal;font-stretch:normal;font-size:13.4089px;line-height:1;font-family:'Alumni Sans Pinstripe';-inkscape-font-specification:'Alumni Sans Pinstripe, Normal';font-variant-ligatures:normal;font-variant-caps:normal;font-variant-numeric:normal;font-variant-east-asian:normal;stroke:#39b39f;stroke-width:0.248813;stroke-opacity:1"
           y="224.87224"
           x="117.09928"
           id="tspan7260"
           sodipodi:role="line">Submediant</tspan><tspan
           style="font-style:normal;font-variant:normal;font-weight:normal;font-stretch:normal;font-size:13.4089px;line-height:1;font-family:'Alumni Sans Pinstripe';-inkscape-font-specification:'Alumni Sans Pinstripe, Normal';font-variant-ligatures:normal;font-variant-caps:normal;font-variant-numeric:normal;font-variant-east-asian:normal;stroke:#39b39f;stroke-width:0.248813;stroke-opacity:1"
           y="238.28113"
           x="117.09928"
           id="tspan7262"
           sodipodi:role="line">Aeolean</tspan><tspan
           y="251.69003"
           x="117.09928"
           style="font-style:normal;font-variant:normal;font-weight:normal;font-stretch:normal;font-size:13.4089px;line-height:1;font-family:'Alumni Sans Pinstripe';-inkscape-font-specification:'Alumni Sans Pinstripe, Normal';font-variant-ligatures:normal;font-variant-caps:normal;font-variant-numeric:normal;font-variant-east-asian:normal;stroke:#39b39f;stroke-width:0.248813;stroke-opacity:1"
           id="tspan7264"
           sodipodi:role="line">la</tspan></text>
      <text
         transform="scale(0.8835363,1.1318154)"
         id="text7058"
         y="202.70375"
         x="120.62553"
         style="font-style:normal;font-variant:normal;font-weight:normal;font-stretch:normal;font-size:12.7px;line-height:0%;font-family:'Alumni Sans Pinstripe';-inkscape-font-specification:'Alumni Sans Pinstripe, Normal';font-variant-ligatures:normal;font-variant-caps:normal;font-variant-numeric:normal;font-variant-east-asian:normal;text-align:end;writing-mode:lr-tb;text-anchor:end;display:inline;overflow:visible;visibility:visible;fill:#000000;fill-opacity:1;fill-rule:evenodd;stroke:#b2b2b2;stroke-width:0.225502;stroke-linecap:butt;stroke-linejoin:round;stroke-miterlimit:4;stroke-dasharray:none;stroke-dashoffset:0;stroke-opacity:1;marker:none;marker-start:none;marker-mid:none;marker-end:none;enable-background:accumulate"
         xml:space="preserve"><tspan
           style="font-style:normal;font-variant:normal;font-weight:normal;font-stretch:normal;font-size:12.7px;line-height:1;font-family:'Alumni Sans Pinstripe';-inkscape-font-specification:'Alumni Sans Pinstripe, Normal';font-variant-ligatures:normal;font-variant-caps:normal;font-variant-numeric:normal;font-variant-east-asian:normal;stroke-width:0.225502"
           sodipodi:role="line"
           id="tspan7060"
           x="120.62553"
           y="202.70375">Numeral:</tspan><tspan
           style="font-style:normal;font-variant:normal;font-weight:normal;font-stretch:normal;font-size:12.7px;line-height:1;font-family:'Alumni Sans Pinstripe';-inkscape-font-specification:'Alumni Sans Pinstripe, Normal';font-variant-ligatures:normal;font-variant-caps:normal;font-variant-numeric:normal;font-variant-east-asian:normal;stroke-width:0.225502"
           sodipodi:role="line"
           id="tspan7062"
           x="120.62553"
           y="215.40375">Chord:</tspan><tspan
           style="font-style:normal;font-variant:normal;font-weight:normal;font-stretch:normal;font-size:12.7px;line-height:1;font-family:'Alumni Sans Pinstripe';-inkscape-font-specification:'Alumni Sans Pinstripe, Normal';font-variant-ligatures:normal;font-variant-caps:normal;font-variant-numeric:normal;font-variant-east-asian:normal;stroke-width:0.225502"
           sodipodi:role="line"
           id="tspan7064"
           x="120.62553"
           y="228.10374">Mode:</tspan><tspan
           style="font-style:normal;font-variant:normal;font-weight:normal;font-stretch:normal;font-size:12.7px;line-height:1;font-family:'Alumni Sans Pinstripe';-inkscape-font-specification:'Alumni Sans Pinstripe, Normal';font-variant-ligatures:normal;font-variant-caps:normal;font-variant-numeric:normal;font-variant-east-asian:normal;stroke-width:0.225502"
           sodipodi:role="line"
           id="tspan7066"
           x="120.62553"
           y="240.80376">Scale tone:</tspan></text>
    </g>
    <g
       id="g7012"
       inkscape:label="Layer 1"
       transform="matrix(0.73642608,0,0,0.73642608,-151.71583,-310.28007)"
       style="fill:#ffffff;fill-opacity:1">
      <path
         inkscape:export-ydpi="96"
         inkscape:export-xdpi="96"
         inkscape:export-filename="C:\Documents and Settings\XP120\My Documents\Imgs-Proj_InkScape\www-SiteProjs\GuitarLessons\Blank-Scale-Grid-BITMAP_blue[aligned].png"
         sodipodi:nodetypes="cccccccccccccccccccccccccccccccccccccccccccccccccccccccccccccccccccccccccccccccccccccccccccccccccccccccccccccccccccccccccccccccccccccccccccccccccccccccccccccccccccccccccccccccccccccccccccccccccccccccccccccccccccccccccccccccccccccccccccccccccccccccccccccccccccccccccccccccccccccccccccccccccccccccccc"
         id="path7014"
         d="m 289.04179,599.5826 v -63 -87 h 50 50 v 87 63 z m 19,0 h -8.5 -8.5 z m 20,0 h -9 -9 z m 20,0 h -9 -9 z m 20,0 h -9 -9 z m 19,0 h -8.5 -8.5 z m -87.5,-2 h 8.5 v -11 -12.07378 h -8.5 -8.5 v 12.07378 11 z m 19.5,0 h 9 v -11 -12.07378 h -9 -9 v 12.07378 11 z m 20,0 h 9 v -11 -12.07378 h -9 -9 v 12.07378 11 z m 20,0 h 9 v -11 -12.07378 h -9 -9 v 12.07378 11 z m 19.5,0 h 8.5 v -11 -12.07378 h -8.5 -8.5 v 12.07378 11 z m -79,-25 h 8.5 v -11 -12.07378 h -8.5 -8.5 v 12.07378 11 z m 19.5,0 h 9 v -11 -12.07378 h -9 -9 v 12.07378 11 z m 20,0 h 9 v -11 -12.07378 h -9 -9 v 12.07378 11 z m 20,0 h 9 v -11 -12.07378 h -9 -9 v 12.07378 11 z m 19.5,0 h 8.5 v -11 -12.07378 h -8.5 -8.5 v 12.07378 11 z m -79,-25 h 8.5 v -11 -12.07378 h -8.5 -8.5 v 12.07378 11 z m 19.5,0 h 9 v -11 -12.07378 h -9 -9 v 12.07378 11 z m 20,0 h 9 v -11 -12.07378 h -9 -9 v 12.07378 11 z m 20,0 h 9 v -11 -12.07378 h -9 -9 v 12.07378 11 z m 19.5,0 h 8.5 v -11 -12.07378 h -8.5 -8.5 v 12.07378 11 z m -79,-25 h 8.5 v -11 -12.07378 h -8.5 -8.5 v 12.07378 11 z m 19.5,0 h 9 v -11 -12.07378 h -9 -9 v 12.07378 11 z m 20,0 h 9 v -11 -12.07378 h -9 -9 v 12.07378 11 z m 20,0 h 9 v -11 -12.07378 h -9 -9 v 12.07378 11 z m 19.5,0 h 8.5 v -11 -12.07378 h -8.5 -8.5 v 12.07378 11 z m -79,-25 h 8.5 v -11 -11 h -8.5 -8.5 v 11 11 z m 19.5,0 h 9 v -11 -11 h -9 -9 v 11 11 z m 20,0 h 9 v -11 -11 h -9 -9 v 11 11 z m 20,0 h 9 v -11 -11 h -9 -9 v 11 11 z m 19.5,0 h 8.5 v -11 -11 h -8.5 -8.5 v 11 11 z m -79,-24 h 8.5 v -11 -11 h -8.5 -8.5 v 11 11 z m 19.5,0 h 9 v -11 -11 h -9 -9 v 10.33333 11.66667 z m 20,0 h 9 v -11 -11 h -9 -9 v 11 11 z m 20,0 h 9 v -11 -11 h -9 -9 v 11 11 z m 19.5,0 h 8.5 v -11 -11 h -8.5 -8.5 v 11 11 z"
         style="fill:#ffffff;fill-opacity:1" />
    </g>
    <path
       sodipodi:type="arc"
       style="display:inline;overflow:visible;visibility:visible;fill:#000000;fill-opacity:1;fill-rule:nonzero;stroke:none;stroke-width:100.811;stroke-linecap:butt;stroke-linejoin:bevel;stroke-miterlimit:4;stroke-dasharray:none;stroke-dashoffset:0;stroke-opacity:1;marker:none;marker-start:none;marker-mid:none;marker-end:none;enable-background:accumulate"
       id="path4788"
       sodipodi:cx="119.39715"
       sodipodi:cy="47.975601"
       sodipodi:rx="5.1549826"
       sodipodi:ry="5.1549826"
       d="m 124.55213,47.975601 a 5.1549826,5.1549826 0 0 1 -5.10047,5.154694 5.1549826,5.1549826 0 0 1 -5.20834,-5.045667 5.1549826,5.1549826 0 0 1 4.9903,-5.261415 5.1549826,5.1549826 0 0 1 5.3139,4.934383"
       sodipodi:start="0"
       sodipodi:end="6.2408825"
       sodipodi:open="true"
       sodipodi:arc-type="arc" />
    <path
       sodipodi:type="arc"
       style="display:inline;overflow:visible;visibility:visible;fill:#000000;fill-opacity:1;fill-rule:nonzero;stroke:none;stroke-width:100.811;stroke-linecap:butt;stroke-linejoin:bevel;stroke-miterlimit:4;stroke-dasharray:none;stroke-dashoffset:0;stroke-opacity:1;marker:none;marker-start:none;marker-mid:none;marker-end:none;enable-background:accumulate"
       id="path7443"
       sodipodi:cx="105.20924"
       sodipodi:cy="-85.591064"
       sodipodi:rx="5.1549826"
       sodipodi:ry="5.1549826"
       d="m 110.36423,-85.591064 a 5.1549826,5.1549826 0 0 1 -5.10047,5.154694 5.1549826,5.1549826 0 0 1 -5.20835,-5.045667 5.1549826,5.1549826 0 0 1 4.99031,-5.261416 5.1549826,5.1549826 0 0 1 5.31389,4.934383"
       sodipodi:start="0"
       sodipodi:end="6.2408825"
       sodipodi:open="true"
       transform="scale(1,-1)"
       sodipodi:arc-type="arc" />
    <path
       transform="scale(1,-1)"
       sodipodi:open="true"
       sodipodi:end="6.2408825"
       sodipodi:start="0"
       d="m 110.36423,-30.692335 a 5.1549826,5.1549826 0 0 1 -5.10047,5.154694 5.1549826,5.1549826 0 0 1 -5.20835,-5.045667 5.1549826,5.1549826 0 0 1 4.99031,-5.261415 5.1549826,5.1549826 0 0 1 5.31389,4.934383"
       sodipodi:ry="5.1549826"
       sodipodi:rx="5.1549826"
       sodipodi:cy="-30.692335"
       sodipodi:cx="105.20924"
       id="path7445"
       style="display:inline;overflow:visible;visibility:visible;fill:#000000;fill-opacity:1;fill-rule:nonzero;stroke:none;stroke-width:100.811;stroke-linecap:butt;stroke-linejoin:bevel;stroke-miterlimit:4;stroke-dasharray:none;stroke-dashoffset:0;stroke-opacity:1;marker:none;marker-start:none;marker-mid:none;marker-end:none;enable-background:accumulate"
       sodipodi:type="arc"
       sodipodi:arc-type="arc" />
    <path
       transform="scale(1,-1)"
       sodipodi:open="true"
       sodipodi:end="6.2408825"
       sodipodi:start="0"
       d="m 110.36423,-48.858528 a 5.1549826,5.1549826 0 0 1 -5.10047,5.154694 5.1549826,5.1549826 0 0 1 -5.20835,-5.045667 5.1549826,5.1549826 0 0 1 4.99031,-5.261415 5.1549826,5.1549826 0 0 1 5.31389,4.934383"
       sodipodi:ry="5.1549826"
       sodipodi:rx="5.1549826"
       sodipodi:cy="-48.858528"
       sodipodi:cx="105.20924"
       id="path7447"
       style="display:inline;overflow:visible;visibility:visible;fill:#ff0000;fill-opacity:1;fill-rule:nonzero;stroke:none;stroke-width:100.811;stroke-linecap:butt;stroke-linejoin:bevel;stroke-miterlimit:4;stroke-dasharray:none;stroke-dashoffset:0;stroke-opacity:1;marker:none;marker-start:none;marker-mid:none;marker-end:none;enable-background:accumulate"
       sodipodi:type="arc"
       sodipodi:arc-type="arc" />
    <path
       sodipodi:open="true"
       sodipodi:end="6.2408825"
       sodipodi:start="0"
       d="m 66.773044,48.310936 a 5.1549826,5.1549826 0 0 1 -5.100466,5.154694 5.1549826,5.1549826 0 0 1 -5.208346,-5.045667 5.1549826,5.1549826 0 0 1 4.990304,-5.261415 5.1549826,5.1549826 0 0 1 5.313896,4.934383"
       sodipodi:ry="5.1549826"
       sodipodi:rx="5.1549826"
       sodipodi:cy="48.310936"
       sodipodi:cx="61.618061"
       id="path7437"
       style="display:inline;overflow:visible;visibility:visible;fill:#c1a969;fill-opacity:1;fill-rule:nonzero;stroke:none;stroke-width:100.811;stroke-linecap:butt;stroke-linejoin:bevel;stroke-miterlimit:4;stroke-dasharray:none;stroke-dashoffset:0;stroke-opacity:1;marker:none;marker-start:none;marker-mid:none;marker-end:none;enable-background:accumulate"
       sodipodi:type="arc"
       sodipodi:arc-type="arc" />
    <path
       sodipodi:type="arc"
       style="display:inline;overflow:visible;visibility:visible;fill:#ff0000;fill-opacity:1;fill-rule:nonzero;stroke:none;stroke-width:100.811;stroke-linecap:butt;stroke-linejoin:bevel;stroke-miterlimit:4;stroke-dasharray:none;stroke-dashoffset:0;stroke-opacity:1;marker:none;marker-start:none;marker-mid:none;marker-end:none;enable-background:accumulate"
       id="path7439"
       sodipodi:cx="61.618061"
       sodipodi:cy="103.20966"
       sodipodi:rx="5.1549826"
       sodipodi:ry="5.1549826"
       d="m 66.773044,103.20966 a 5.1549826,5.1549826 0 0 1 -5.100466,5.1547 5.1549826,5.1549826 0 0 1 -5.208346,-5.04567 5.1549826,5.1549826 0 0 1 4.990304,-5.261415 5.1549826,5.1549826 0 0 1 5.313896,4.934385"
       sodipodi:start="0"
       sodipodi:end="6.2408825"
       sodipodi:open="true"
       sodipodi:arc-type="arc" />
    <path
       sodipodi:type="arc"
       style="display:inline;overflow:visible;visibility:visible;fill:#000000;fill-opacity:1;fill-rule:nonzero;stroke:none;stroke-width:100.811;stroke-linecap:butt;stroke-linejoin:bevel;stroke-miterlimit:4;stroke-dasharray:none;stroke-dashoffset:0;stroke-opacity:1;marker:none;marker-start:none;marker-mid:none;marker-end:none;enable-background:accumulate"
       id="path7441"
       sodipodi:cx="61.618061"
       sodipodi:cy="85.043465"
       sodipodi:rx="5.1549826"
       sodipodi:ry="5.1549826"
       d="m 66.773044,85.043465 a 5.1549826,5.1549826 0 0 1 -5.100466,5.154694 5.1549826,5.1549826 0 0 1 -5.208346,-5.045667 5.1549826,5.1549826 0 0 1 4.990304,-5.261416 5.1549826,5.1549826 0 0 1 5.313896,4.934383"
       sodipodi:start="0"
       sodipodi:end="6.2408825"
       sodipodi:open="true"
       sodipodi:arc-type="arc" />
    <path
       sodipodi:type="arc"
       style="display:inline;overflow:visible;visibility:visible;fill:#c1a969;fill-opacity:1;fill-rule:nonzero;stroke:none;stroke-width:100.811;stroke-linecap:butt;stroke-linejoin:bevel;stroke-miterlimit:4;stroke-dasharray:none;stroke-dashoffset:0;stroke-opacity:1;marker:none;marker-start:none;marker-mid:none;marker-end:none;enable-background:accumulate"
       id="path7545"
       sodipodi:cx="90.044769"
       sodipodi:cy="84.420418"
       sodipodi:rx="5.1549826"
       sodipodi:ry="5.1549826"
       d="m 95.199752,84.420418 a 5.1549826,5.1549826 0 0 1 -5.100466,5.154694 5.1549826,5.1549826 0 0 1 -5.208346,-5.045667 5.1549826,5.1549826 0 0 1 4.990304,-5.261415 5.1549826,5.1549826 0 0 1 5.313896,4.934383"
       sodipodi:start="0"
       sodipodi:end="6.2408825"
       sodipodi:open="true"
       sodipodi:arc-type="arc" />
    <path
       sodipodi:open="true"
       sodipodi:end="6.2408825"
       sodipodi:start="0"
       d="m 138.86804,47.471184 a 5.1549826,5.1549826 0 0 1 -5.10046,5.154694 5.1549826,5.1549826 0 0 1 -5.20835,-5.045667 5.1549826,5.1549826 0 0 1 4.9903,-5.261415 5.1549826,5.1549826 0 0 1 5.3139,4.934383"
       sodipodi:ry="5.1549826"
       sodipodi:rx="5.1549826"
       sodipodi:cy="47.471184"
       sodipodi:cx="133.71306"
       id="path7547"
       style="display:inline;overflow:visible;visibility:visible;fill:#c1a969;fill-opacity:1;fill-rule:nonzero;stroke:none;stroke-width:100.811;stroke-linecap:butt;stroke-linejoin:bevel;stroke-miterlimit:4;stroke-dasharray:none;stroke-dashoffset:0;stroke-opacity:1;marker:none;marker-start:none;marker-mid:none;marker-end:none;enable-background:accumulate"
       sodipodi:type="arc"
       sodipodi:arc-type="arc" />
    <path
       transform="scale(1,-1)"
       sodipodi:open="true"
       sodipodi:end="6.2408825"
       sodipodi:start="0"
       d="m 124.55213,-103.20966 a 5.1549826,5.1549826 0 0 1 -5.10047,5.154691 5.1549826,5.1549826 0 0 1 -5.20834,-5.045671 5.1549826,5.1549826 0 0 1 4.9903,-5.26141 5.1549826,5.1549826 0 0 1 5.3139,4.93438"
       sodipodi:ry="5.1549826"
       sodipodi:rx="5.1549826"
       sodipodi:cy="-103.20966"
       sodipodi:cx="119.39715"
       id="path7529"
       style="display:inline;overflow:visible;visibility:visible;fill:#000000;fill-opacity:1;fill-rule:nonzero;stroke:none;stroke-width:100.811;stroke-linecap:butt;stroke-linejoin:bevel;stroke-miterlimit:4;stroke-dasharray:none;stroke-dashoffset:0;stroke-opacity:1;marker:none;marker-start:none;marker-mid:none;marker-end:none;enable-background:accumulate"
       sodipodi:type="arc"
       sodipodi:arc-type="arc" />
    <path
       sodipodi:type="arc"
       style="display:inline;overflow:visible;visibility:visible;fill:#000000;fill-opacity:1;fill-rule:nonzero;stroke:none;stroke-width:100.811;stroke-linecap:butt;stroke-linejoin:bevel;stroke-miterlimit:4;stroke-dasharray:none;stroke-dashoffset:0;stroke-opacity:1;marker:none;marker-start:none;marker-mid:none;marker-end:none;enable-background:accumulate"
       id="path7533"
       sodipodi:cx="119.39715"
       sodipodi:cy="-66.477135"
       sodipodi:rx="5.1549826"
       sodipodi:ry="5.1549826"
       d="m 124.55213,-66.477135 a 5.1549826,5.1549826 0 0 1 -5.10047,5.154695 5.1549826,5.1549826 0 0 1 -5.20834,-5.045668 5.1549826,5.1549826 0 0 1 4.9903,-5.261415 5.1549826,5.1549826 0 0 1 5.3139,4.934383"
       sodipodi:start="0"
       sodipodi:end="6.2408825"
       sodipodi:open="true"
       transform="scale(1,-1)"
       sodipodi:arc-type="arc" />
    <g
       transform="matrix(0.73642608,0,0,0.73642608,179.94553,-347.77876)"
       id="g7549">
      <g
         transform="translate(-188.03999,169.68525)"
         id="g7551">
        <path
           transform="matrix(0.9981312,0,0,1.1407214,-39.921897,224.38355)"
           sodipodi:open="true"
           sodipodi:end="6.2408825"
           sodipodi:start="0"
           d="m 93.675055,126.17559 a 7.0131059,6.1364675 0 0 1 -6.938939,6.13612 7.0131059,6.1364675 0 0 1 -7.085704,-6.00633 7.0131059,6.1364675 0 0 1 6.789069,-6.26317 7.0131059,6.1364675 0 0 1 7.2293,5.87387"
           sodipodi:ry="6.1364675"
           sodipodi:rx="7.0131059"
           sodipodi:cy="126.17559"
           sodipodi:cx="86.661949"
           id="path7553"
           style="display:inline;overflow:visible;visibility:visible;fill:#000000;fill-opacity:1;fill-rule:nonzero;stroke:none;stroke-width:128.291;stroke-linecap:butt;stroke-linejoin:bevel;stroke-miterlimit:4;stroke-dasharray:none;stroke-dashoffset:0;stroke-opacity:1;marker:none;marker-start:none;marker-mid:none;marker-end:none;enable-background:accumulate"
           sodipodi:type="arc"
           sodipodi:arc-type="arc" />
        <path
           sodipodi:type="arc"
           style="display:inline;overflow:visible;visibility:visible;fill:#000000;fill-opacity:1;fill-rule:nonzero;stroke:none;stroke-width:128.291;stroke-linecap:butt;stroke-linejoin:bevel;stroke-miterlimit:4;stroke-dasharray:none;stroke-dashoffset:0;stroke-opacity:1;marker:none;marker-start:none;marker-mid:none;marker-end:none;enable-background:accumulate"
           id="path7555"
           sodipodi:cx="86.661949"
           sodipodi:cy="126.17559"
           sodipodi:rx="7.0131059"
           sodipodi:ry="6.1364675"
           d="m 93.675055,126.17559 a 7.0131059,6.1364675 0 0 1 -6.938939,6.13612 7.0131059,6.1364675 0 0 1 -7.085704,-6.00633 7.0131059,6.1364675 0 0 1 6.789069,-6.26317 7.0131059,6.1364675 0 0 1 7.2293,5.87387"
           sodipodi:start="0"
           sodipodi:end="6.2408825"
           sodipodi:open="true"
           transform="matrix(0.9981312,0,0,1.1407214,-39.921897,298.93105)"
           sodipodi:arc-type="arc" />
        <path
           sodipodi:type="arc"
           style="display:inline;overflow:visible;visibility:visible;fill:#000000;fill-opacity:1;fill-rule:nonzero;stroke:none;stroke-width:128.291;stroke-linecap:butt;stroke-linejoin:bevel;stroke-miterlimit:4;stroke-dasharray:none;stroke-dashoffset:0;stroke-opacity:1;marker:none;marker-start:none;marker-mid:none;marker-end:none;enable-background:accumulate"
           id="path7557"
           sodipodi:cx="86.661949"
           sodipodi:cy="126.17559"
           sodipodi:rx="7.0131059"
           sodipodi:ry="6.1364675"
           d="m 93.675055,126.17559 a 7.0131059,6.1364675 0 0 1 -6.938939,6.13612 7.0131059,6.1364675 0 0 1 -7.085704,-6.00633 7.0131059,6.1364675 0 0 1 6.789069,-6.26317 7.0131059,6.1364675 0 0 1 7.2293,5.87387"
           sodipodi:start="0"
           sodipodi:end="6.2408825"
           sodipodi:open="true"
           transform="matrix(0.9981312,0,0,1.1407214,-39.921897,274.263)"
           sodipodi:arc-type="arc" />
      </g>
    </g>
    <path
       sodipodi:type="arc"
       style="display:inline;overflow:visible;visibility:visible;fill:#000000;fill-opacity:1;fill-rule:nonzero;stroke:none;stroke-width:100.811;stroke-linecap:butt;stroke-linejoin:bevel;stroke-miterlimit:4;stroke-dasharray:none;stroke-dashoffset:0;stroke-opacity:1;marker:none;marker-start:none;marker-mid:none;marker-end:none;enable-background:accumulate"
       id="path7576"
       sodipodi:cx="90.044762"
       sodipodi:cy="48.418465"
       sodipodi:rx="5.1549826"
       sodipodi:ry="5.1549826"
       d="m 95.199744,48.418465 a 5.1549826,5.1549826 0 0 1 -5.100466,5.154694 5.1549826,5.1549826 0 0 1 -5.208346,-5.045667 5.1549826,5.1549826 0 0 1 4.990304,-5.261416 5.1549826,5.1549826 0 0 1 5.313896,4.934383"
       sodipodi:start="0"
       sodipodi:end="6.2408825"
       sodipodi:open="true"
       sodipodi:arc-type="arc" />
  </g>
</svg>
