<?xml version="1.0" encoding="UTF-8" standalone="no"?>
<svg
   width="650"
   height="154"
   viewBox="0 0 650 154"
   version="1.1"
   id="neutility-logo"
   xmlns="http://www.w3.org/2000/svg"
   xmlns:svg="http://www.w3.org/2000/svg">
  <defs
     id="defs1" />
  <g
     id="g3"
     transform="translate(-60.16209)">
    <g
       id="g2"
       transform="translate(60.940531,2.2749837)">
      <path
         id="path5"
         style="fill:#236ee2;fill-opacity:0;stroke-width:0.550155"
         d="M 148.62959,74.725014 A 72.950399,72.950399 0 0 1 75.679193,147.67541 72.950399,72.950399 0 0 1 2.7287942,74.725014 72.950399,72.950399 0 0 1 75.679193,1.7746154 72.950399,72.950399 0 0 1 148.62959,74.725014 Z" />
      <path
         style="baseline-shift:baseline;display:inline;overflow:visible;vector-effect:none;fill:#e8f0fc;fill-opacity:1;stroke:#2563c8;stroke-width:0.364499;stroke-opacity:1;enable-background:accumulate;stop-color:#000000"
         d="M 75.6792,1.8251626 C 35.520193,1.8251622 2.7793475,34.56601 2.7793483,74.725015 c 0,40.159005 32.7408477,72.899855 72.8998517,72.899855 40.15901,0 72.89985,-32.74085 72.89985,-72.899855 0,-40.159005 -32.74084,-72.8998524 -72.89985,-72.8998524 z m 0,17.3023244 c 30.80821,0 55.59753,24.789321 55.59753,55.597528 0,30.808205 -24.78933,55.597525 -55.59753,55.597525 -30.808202,0 -55.597527,-24.78932 -55.597527,-55.597525 0,-30.808207 24.789321,-55.597528 55.597527,-55.597528 z"
         id="path6" />
      <path
         id="path4"
         style="vector-effect:none;fill:#e8f0fc;fill-opacity:1;stroke:#2563c8;stroke-width:0.364499;stroke-opacity:1;stop-color:#000000"
         d="M 113.80117,69.622444 A 14.629844,14.629844 0 0 1 99.171327,84.252285 14.629844,14.629844 0 0 1 84.541482,69.622444 14.629844,14.629844 0 0 1 99.171327,54.992599 14.629844,14.629844 0 0 1 113.80117,69.622444 Z" />
    </g>
    <g
       id="g1"
       transform="translate(-56.44344,-31.493094)">
      <rect
         style="fill:#000000;fill-opacity:1;stroke:#236ee2;stroke-width:1.87494;stroke-linecap:square;paint-order:fill markers stroke"
         id="rect1"
         width="5.1250572"
         height="370.16199"
         x="134.07614"
         y="-761.60144"
         transform="rotate(90)" />
      <text
         x="396.27036"
         y="127.69962"
         font-family="'Noto Nastaliq Urdu'"
         font-size="60px"
         fill="#236ee2"
         stroke="#ff0707"
         stroke-width="3.8"
         id="text3"
         style="font-style:normal;font-variant:normal;font-weight:normal;font-stretch:normal;font-size:73.8712px;font-family:'Noto Nastaliq Urdu';-inkscape-font-specification:'Noto Nastaliq Urdu, Normal';font-variant-ligatures:normal;font-variant-caps:normal;font-variant-numeric:normal;font-variant-east-asian:normal;fill:#e8f0fc;fill-opacity:1;stroke:#2563c8;stroke-width:1.708;stroke-dasharray:none;stroke-opacity:1;paint-order:fill markers stroke"><tspan
   style="font-style:normal;font-variant:normal;font-weight:normal;font-stretch:normal;font-size:73.8712px;font-family:'Noto Nastaliq Urdu';-inkscape-font-specification:'Noto Nastaliq Urdu, Normal';font-variant-ligatures:normal;font-variant-caps:normal;font-variant-numeric:normal;font-variant-east-asian:normal;fill:#e8f0fc;fill-opacity:1;stroke:#2563c8;stroke-width:1.708;stroke-linecap:square;stroke-dasharray:none;stroke-opacity:1;paint-order:fill markers stroke"
   id="tspan3"><tspan
   style="font-style:normal;font-variant:normal;font-weight:normal;font-stretch:normal;font-size:73.8712px;font-family:'Noto Nastaliq Urdu';-inkscape-font-specification:'Noto Nastaliq Urdu, Normal';font-variant-ligatures:normal;font-variant-caps:normal;font-variant-numeric:normal;font-variant-east-asian:normal;fill:#000000;fill-opacity:1;stroke:#2563c8;stroke-width:1.708;stroke-dasharray:none;stroke-opacity:1"
   id="tspan1">Ne</tspan><tspan
   style="font-style:normal;font-variant:normal;font-weight:normal;font-stretch:normal;font-size:73.8712px;font-family:'Noto Nastaliq Urdu';-inkscape-font-specification:'Noto Nastaliq Urdu, Normal';font-variant-ligatures:normal;font-variant-caps:normal;font-variant-numeric:normal;font-variant-east-asian:normal;fill:#000000;fill-opacity:1"
   id="tspan2">U</tspan>tility</tspan>._</text>
    </g>
    <path
       style="fill:#e8f0fc;fill-opacity:1;stroke:#e8f0fc;stroke-width:1.43631;stroke-linecap:square;stroke-dasharray:none;stroke-opacity:1;paint-order:fill markers stroke"
       d="M 273.00083,18.948035 V 135.05196"
       id="path2" />
  </g>
</svg>
