<?xml version="1.0" encoding="utf-8"?>
<!-- Generator: Adobe Illustrator 21.1.0, SVG Export Plug-In . SVG Version: 6.00 Build 0)  -->
<svg version="1.1" id="Capa_1" xmlns="http://www.w3.org/2000/svg" xmlns:xlink="http://www.w3.org/1999/xlink" x="0px" y="0px"
	 viewBox="0 0 963 963" style="enable-background:new 0 0 963 963;" xml:space="preserve">
<style type="text/css">
	.st0{fill:#FFFFFF;}
</style>
<g>
	<path class="st0" d="M0,481.5C0,747.4,215.6,963,481.5,963S963,747.4,963,481.5S747.4,0,481.5,0S0,215.6,0,481.5z M691.6,543.3
		L478.2,776.5c-17.8,19.4-42.1,29.2-66.4,29.2c-21.7,0-43.5-7.8-60.7-23.6c-36.7-33.6-39.2-90.5-5.6-127.2l157.7-172.3L340.6,305.3
		c-33.6-36.6-31.1-93.6,5.5-127.2s93.6-31.1,127.2,5.5l218.3,238.1C723.1,456.2,723.1,508.9,691.6,543.3z"/>
</g>
</svg>
