<?xml version="1.0" encoding="UTF-8" standalone="no"?>
<!-- Created with Inkscape (http://www.inkscape.org/) -->

<svg
   width="150mm"
   height="150mm"
   viewBox="0 0 150 150"
   version="1.1"
   id="svg1"
   inkscape:version="1.3-beta (cedbd6c6ff, 2023-05-28)"
   sodipodi:docname="rj_textedit.svg"
   xmlns:inkscape="http://www.inkscape.org/namespaces/inkscape"
   xmlns:sodipodi="http://sodipodi.sourceforge.net/DTD/sodipodi-0.dtd"
   xmlns="http://www.w3.org/2000/svg"
   xmlns:svg="http://www.w3.org/2000/svg">
  <sodipodi:namedview
     id="namedview1"
     pagecolor="#ffffff"
     bordercolor="#000000"
     borderopacity="0.25"
     inkscape:showpageshadow="2"
     inkscape:pageopacity="0.0"
     inkscape:pagecheckerboard="0"
     inkscape:deskcolor="#d1d1d1"
     inkscape:document-units="mm"
     inkscape:zoom="0.8088945"
     inkscape:cx="283.72056"
     inkscape:cy="264.5586"
     inkscape:window-width="1920"
     inkscape:window-height="1146"
     inkscape:window-x="-8"
     inkscape:window-y="-8"
     inkscape:window-maximized="1"
     inkscape:current-layer="layer1" />
  <defs
     id="defs1" />
  <g
     inkscape:label="Layer 1"
     inkscape:groupmode="layer"
     id="layer1">
    <path
       id="path17629"
       style="font-style:italic;font-size:192px;line-height:125%;font-family:'Anticlaire Display SSi';-inkscape-font-specification:'Anticlaire Display SSi, Italic';letter-spacing:0px;word-spacing:0px;white-space:pre;display:inline;fill:#3a8ad7;fill-opacity:1;stroke-width:0.68154px"
       d="m 96.169034,11.520805 c 0.25558,0.34077 0.46856,0.63894 0.63895,0.89452 0.17039,0.25558 0.31947,0.48986 0.44726,0.70284 2.087222,3.74848 3.130826,7.24138 3.130826,10.47869 0,1.70386 -0.23427,4.00406 -0.702834,6.90061 l -9.665372,61.84052 c -2.32949,-3.30717 -4.3979,-6.69712 -6.20442,-10.1712 -0.99171,-1.84173 -2.05469,-3.9842 -3.18807,-6.42805 l -1.96608,-4.46329 -4.09058,-9.56287 0.95576,-0.37139 2.07257,-0.74411 c 3.01054,-1.16879 5.43691,-2.44437 7.27864,-3.82568 1.84174,-1.41672 3.32859,-3.11617 4.46197,-5.09957 2.26675,-3.78973 3.40105,-7.49169 3.40105,-11.10433 0,-2.30217 -0.42519,-4.39116 -1.27523,-6.26831 -0.85003,-1.91257 -2.07213,-3.57769 -3.66594,-4.99442 -1.59382,-1.41672 -3.47154,-2.47838 -5.63203,-3.18674 -1.45214,-0.49585 -2.97465,-0.83323 -4.56846,-1.01032 -1.55839,-0.1771 -4.74602,-0.35404 -9.562871,-0.53113 -0.81462,-0.0708 -2.05454,-0.10649 -3.71919,-0.10649 H 23.83251 c 0.24793,0.31876 0.496183,0.76179 0.744106,1.32847 1.841735,3.22305 2.762102,6.33936 2.762102,9.34989 0,1.70007 -0.159113,3.40085 -0.477876,5.10092 l -7.491628,47.65462 c -0.531267,3.11679 -1.415976,5.70227 -2.655611,7.75652 -1.204214,2.05425 -3.223217,4.28585 -6.056664,6.694285 -0.212512,0.17709 -0.7090075,0.58445 -1.4882055,1.22198 H 49.068167 c -0.495857,-0.49585 -0.851068,-0.90322 -1.06358,-1.22198 -1.487558,-1.87717 -2.531386,-3.506635 -3.133494,-4.887935 -0.602106,-1.38131 -0.903838,-2.97512 -0.903838,-4.78143 0,-1.52298 0.142629,-3.11679 0.425962,-4.78144 l 7.968174,-49.7272 0.8506,-0.21167 0.744098,-0.10648 c 0.389603,-0.0354 0.743486,-0.0532 1.062251,-0.0532 0.318756,-0.0354 0.690469,-0.0532 1.115485,-0.0532 4.498098,0 7.791349,0.65562 9.881018,1.96608 2.12507,1.27505 3.188071,3.15144 3.188071,5.6307 0,1.02713 -0.24827,2.37402 -0.74411,4.03867 -0.566691,1.80631 -2.089201,3.91313 -4.568461,6.32155 -1.80631,1.70007 -4.568748,2.94 -8.287636,3.7192 -0.956291,0.21251 -1.895816,0.31814 -2.816681,0.31814 l -1.220653,0.10649 h -0.957086 c 0.425014,2.97511 1.009326,5.82667 1.753105,8.55387 0.74378,2.72718 1.788936,5.80784 3.134822,9.2434 1.345889,3.40013 2.904039,6.85383 4.674943,10.36022 2.231336,4.49809 4.091226,7.86266 5.578786,10.094 1.522981,2.231335 2.939852,3.701675 4.250311,4.410045 1.34589,0.70836 3.08099,1.06225 5.20607,1.06225 h 3.93085 9.123591 l -0.4619,2.95512 -0.12779,0.51115 -0.38337,2.74746 c -1.107511,6.00609 -2.87525,11.05375 -5.30324,15.14299 -2.385401,4.08925 -5.94219,7.98681 -10.67038,11.69269 -0.63894,0.55375 -1.42698,1.1714 -2.3641,1.85294 0.59635,-0.0426 1.12881,-0.0852 1.59737,-0.12779 h 1.78904 c 10.13792,-0.76673 18.31642,-2.21501 24.53548,-4.34482 6.261665,-2.12982 10.989855,-5.00507 14.184575,-8.62576 3.23732,-3.57809 5.30324,-7.98681 6.19776,-13.22615 l 0.38337,-2.3641 0.51115,-3.13082 11.94827,-76.162216 c 0.1704,-1.27789 0.34077,-2.19371 0.51115,-2.74747 0.80933,-3.15212 1.83164,-5.81439 3.06694,-7.9868 1.27789,-2.17241 3.13084,-4.43002 5.55882,-6.77282 0.12782,-0.17037 0.66024,-0.66024 1.59736,-1.46957 z"
       inkscape:export-filename="C:\Users\jsaba\OneDrive\Pictures\Creative_Imaging\InkScape\rect18758z.png"
       inkscape:export-xdpi="72"
       inkscape:export-ydpi="72" />
  </g>
</svg>
