<?xml version="1.0" encoding="UTF-8" standalone="no"?>
<svg
   viewBox="0 0 609.79205 679.42859"
   version="1.1"
   id="svg3"
   sodipodi:docname="adb.svg"
   inkscape:export-filename="PLAIN_SVG_icon-set-symbols1-exclamation-mark.png"
   inkscape:export-xdpi="96"
   inkscape:export-ydpi="96"
   width="609.79205"
   height="679.42859"
   inkscape:version="1.4 (86a8ad7, 2024-10-11)"
   xmlns:inkscape="http://www.inkscape.org/namespaces/inkscape"
   xmlns:sodipodi="http://sodipodi.sourceforge.net/DTD/sodipodi-0.dtd"
   xmlns:xlink="http://www.w3.org/1999/xlink"
   xmlns="http://www.w3.org/2000/svg"
   xmlns:svg="http://www.w3.org/2000/svg"><defs
   id="defs3">
  <linearGradient
     id="swatch179"
     inkscape:swatch="solid">
    <stop
       style="stop-color:#2d527c;stop-opacity:1;"
       offset="0"
       id="stop180" />
  </linearGradient>
  <clipPath
     clipPathUnits="userSpaceOnUse"
     id="clipPath54">
    <path
       id="path54"
       style="stroke-width:0.0999999;stroke-linecap:square;paint-order:markers fill stroke;stop-color:#000000"
       d="m 1691.1994,-792.32001 h 1634.8919 v 92.82806 H 1691.1994 Z" />
  </clipPath>
  <clipPath
     clipPathUnits="userSpaceOnUse"
     id="clipPath25">
    <rect
       style="fill:#ff0000;stroke:none;stroke-width:3;stroke-linecap:square;stroke-linejoin:miter;paint-order:stroke markers fill;stop-color:#000000"
       id="rect25-8"
       width="78"
       height="45.033199"
       x="763.61322"
       y="452.82422" />
  </clipPath>
  <linearGradient
     id="linearGradient4"
     inkscape:collect="always">
    <stop
       style="stop-color:#ffffff;stop-opacity:1;"
       offset="0"
       id="stop4" />
    <stop
       style="stop-color:#ffffff;stop-opacity:0;"
       offset="1"
       id="stop5" />
  </linearGradient>
  <linearGradient
     id="linearGradient2"
     inkscape:collect="always">
    <stop
       style="stop-color:#545454;stop-opacity:1;"
       offset="0"
       id="stop2" />
    <stop
       style="stop-color:#b9b9b9;stop-opacity:1;"
       offset="1"
       id="stop3" />
  </linearGradient>
  <linearGradient
     inkscape:collect="always"
     xlink:href="#linearGradient2"
     id="linearGradient3"
     x1="300.81271"
     y1="82.16629"
     x2="300.81271"
     y2="553.64008"
     gradientUnits="userSpaceOnUse" />
  <linearGradient
     inkscape:collect="always"
     xlink:href="#linearGradient4"
     id="linearGradient5"
     x1="-151.84178"
     y1="297.5"
     x2="803.61426"
     y2="297.5"
     gradientUnits="userSpaceOnUse" />
  <meshgradient
     inkscape:collect="always"
     id="meshgradient190"
     gradientUnits="userSpaceOnUse"
     x="86.229683"
     y="34.297588"
     gradientTransform="matrix(1.1993672,0,0,1.1993672,-89.014551,-22.447888)">
    <meshrow
       id="meshrow190">
      <meshpatch
         id="meshpatch190">
        <stop
           path="c 306.526,0  613.053,0  919.579,0"
           style="stop-color:#ffffff;stop-opacity:1"
           id="stop190" />
        <stop
           path="c 0,91.3571  0,182.714  0,274.071"
           style="stop-color:#2d527c;stop-opacity:1"
           id="stop191" />
        <stop
           path="c -306.526,0  -613.053,0  -919.579,0"
           style="stop-color:#ffffff;stop-opacity:1"
           id="stop192" />
        <stop
           path="c 0,-91.3571  0,-182.714  0,-274.071"
           style="stop-color:#2d527c;stop-opacity:1"
           id="stop193" />
      </meshpatch>
    </meshrow>
  </meshgradient>
  <linearGradient
     inkscape:collect="always"
     xlink:href="#swatch179"
     id="linearGradient204"
     gradientUnits="userSpaceOnUse"
     gradientTransform="matrix(1.1993672,0,0,1.1993672,-89.014551,-22.447888)"
     x1="86.229683"
     y1="171.33321"
     x2="1005.8084"
     y2="171.33321" />
</defs>
<sodipodi:namedview
   id="namedview3"
   pagecolor="#ffffff"
   bordercolor="#000000"
   borderopacity="0.25"
   inkscape:showpageshadow="2"
   inkscape:pageopacity="0.0"
   inkscape:pagecheckerboard="0"
   inkscape:deskcolor="#d1d1d1"
   inkscape:zoom="1.3172834"
   inkscape:cx="294.88776"
   inkscape:cy="338.99342"
   inkscape:window-width="1920"
   inkscape:window-height="1139"
   inkscape:window-x="-8"
   inkscape:window-y="30"
   inkscape:window-maximized="1"
   inkscape:current-layer="layer4"
   showgrid="false"
   inkscape:rotation="-6" />









/&amp;gt;<g
   inkscape:groupmode="layer"
   id="layer3"
   inkscape:label="scrap"
   style="display:none"
   transform="translate(-30.243719,-47.15633)"
   sodipodi:insensitive="true">
  <rect
     style="display:inline;fill:url(#linearGradient3);fill-rule:evenodd;stroke:url(#linearGradient5);stroke-width:4.08945;stroke-dasharray:none;paint-order:stroke fill markers"
     id="rect2"
     width="951.36658"
     height="209.49855"
     x="-149.79706"
     y="192.75072"
     inkscape:label="rect2"
     transform="translate(37.642333,43.359039)" />
  <g
     inkscape:groupmode="layer"
     id="layer1"
     inkscape:label="text"
     transform="translate(37.642333,43.359039)"
     style="display:none"
     sodipodi:insensitive="true">
    <g
       id="text5"
       transform="matrix(58.509948,-1.5268618,15.175357,111.6408,-826.86007,-2208.9898)"
       style="display:inline">
      <ellipse
         style="display:none;fill:#0000ff;fill-opacity:1;fill-rule:evenodd;stroke:#a5a5a5;stroke-width:0.0123511;stroke-dasharray:none;paint-order:stroke fill markers"
         id="circle6"
         cx="13.40049"
         cy="22.645258"
         inkscape:label="circle6"
         rx="5.1011386"
         ry="2.6342719" />
      <ellipse
         style="display:none;fill:#0000ff;fill-opacity:1;fill-rule:evenodd;stroke:#a5a5a5;stroke-width:0.0123511;stroke-dasharray:none;paint-order:stroke fill markers"
         id="ellipse6"
         cx="13.40049"
         cy="22.645258"
         inkscape:label="circle6"
         rx="5.1011386"
         ry="2.6342719" />
      <path
         id="path5"
         style="color:#000000;-inkscape-font-specification:'Housegrind Personal Use Only, Normal';display:none;fill:#51de47;stroke-linecap:round;stroke-linejoin:round;-inkscape-stroke:none;paint-order:stroke fill markers"
         d="m 16.877235,19.816406 c -0.110874,0 -0.218984,0.04323 -0.296851,0.121087 -0.07674,0.07675 -0.121117,0.182937 -0.121117,0.291025 0,0.113819 0.04214,0.223741 0.121117,0.302727 0.07787,0.07786 0.185975,0.121104 0.296851,0.121104 0.106584,0 0.20872,-0.04436 0.285168,-0.119145 0.08408,-0.07808 0.130852,-0.188807 0.130852,-0.304686 0,-0.110374 -0.04908,-0.217032 -0.130852,-0.292966 -0.07645,-0.07478 -0.178582,-0.119146 -0.285168,-0.119146 z m -7.3593608,1.17575 v 3.5e-5 c -0.074423,0 -0.1527848,0.01919 -0.2441472,0.05078 -0.092672,0.0278 -0.1910595,0.06421 -0.2949035,0.109368 a 0.12352335,0.12352335 0 0 0 -0.00198,0.002 c -0.095898,0.04359 -0.1961949,0.08879 -0.3007781,0.136724 -0.096275,0.04178 -0.1885991,0.07654 -0.2753663,0.105468 l 0.042968,-0.0059 a 0.12352335,0.12352335 0 0 0 -0.052737,0.0098 c -0.057395,0.02551 -0.1214984,0.0761 -0.1367265,0.154284 -1.322e-4,6.62e-4 1.238e-4,0.0013 0,0.002 -0.010573,0.05653 0.011314,0.115285 0.041021,0.156243 0.029338,0.04528 0.069907,0.07824 0.1152423,0.09767 a 0.12352335,0.12352335 0 0 0 0.00977,0.0039 c 0.057376,0.01917 0.1224488,0.01224 0.1738202,-0.0098 0.031777,-0.01362 0.070739,-0.03269 0.1191363,-0.05469 a 0.12352335,0.12352335 0 0 0 0.00782,-0.0039 c 0.04397,-0.02398 0.090259,-0.04622 0.1386734,-0.06639 a 0.12352335,0.12352335 0 0 0 0.00779,-0.002 c 0.049782,-0.02489 0.095203,-0.04666 0.1347795,-0.06249 0.015241,-0.0061 0.026598,-0.0089 0.036422,-0.01158 0.00912,0.003 0.020762,0.0064 0.035852,0.01548 0.048718,0.02922 0.1077505,0.06004 0.1757672,0.09179 a 0.12352335,0.12352335 0 0 0 0.00587,0.002 c 0.029515,0.01181 0.064237,0.01924 0.095705,0.0293 -0.122456,0.0635 -0.2635125,0.138582 -0.3652641,0.189458 -0.1947549,0.09521 -0.3474888,0.16654 -0.457008,0.212877 a 0.12352335,0.12352335 0 0 0 -0.00782,0.0039 c -0.074335,0.03716 -0.1347076,0.09754 -0.1718732,0.171879 -0.032871,0.06574 -0.052737,0.134735 -0.052737,0.205077 0,0.06561 0.027656,0.135468 0.074221,0.185557 0.031057,0.03418 0.081664,0.06249 0.1289048,0.06249 0.049262,0 0.087637,-0.01704 0.1210833,-0.03712 a 0.12352335,0.12352335 0 0 0 0.00393,-0.002 c 0.084343,-0.055 0.1591592,-0.07813 0.2324316,-0.07813 0.089381,0 0.1739202,0.01231 0.2538822,0.03516 a 0.12352335,0.12352335 0 0 0 0.00587,0 c 0.084708,0.02016 0.1616419,0.04666 0.2324316,0.07813 0.086706,0.03856 0.1667201,0.06242 0.2441136,0.06835 0.095757,0.0068 0.193057,-0.01803 0.3183682,-0.06444 a 0.12352335,0.12352335 0 0 0 0.00393,-0.002 c 0.1266705,-0.04976 0.2615445,-0.111949 0.4081985,-0.187498 0.150171,-0.07509 0.300833,-0.156003 0.455061,-0.244133 a 0.12352335,0.12352335 0 0 0 0.0039,-0.002 l 0.423809,-0.253893 a 0.12352335,0.12352335 0 0 0 0,-0.002 c 0.135051,-0.08278 0.24821,-0.15225 0.339852,-0.208977 a 0.12352335,0.12352335 0 0 0 0.0019,0 c 0.0474,-0.03016 0.05678,-0.03633 0.08594,-0.05469 0.0018,-6.97e-4 0.0041,7.13e-4 0.0059,0 0.08616,-0.03446 0.159108,-0.06546 0.220683,-0.09181 0.04326,-0.0173 0.08435,-0.02071 0.125011,-0.02344 a 0.12352335,0.12352335 0 0 0 0.0039,0.002 c 0.02215,0.02215 0.05029,0.05784 0.08204,0.105468 0.03395,0.05092 0.0722,0.110814 0.115242,0.17968 a 0.12352335,0.12352335 0 0 0 0.002,0.0039 c 0.02247,0.0337 0.04962,0.06884 0.07422,0.103509 -0.05098,0.03537 -0.10294,0.07167 -0.152336,0.105468 -0.0774,0.0516 -0.148282,0.09951 -0.212895,0.142583 -0.06379,0.03832 -0.120175,0.07114 -0.167979,0.101567 -0.0441,0.02649 -0.07463,0.04573 -0.0996,0.06445 a 0.12352335,0.12352335 0 0 0 -0.0019,0.002 c -0.05193,0.04039 -0.09403,0.09059 -0.117189,0.152343 a 0.12352335,0.12352335 0 0 0 -0.0059,0.01368 c -0.01282,0.05127 -0.01389,0.106704 0.0039,0.16016 a 0.12352335,0.12352335 0 0 0 0.0019,0.0059 c 0.02241,0.05604 0.0774,0.100017 0.128905,0.117187 a 0.12352335,0.12352335 0 0 0 0.02148,0.0059 c 0.07205,0.01029 0.135352,-0.01665 0.189463,-0.05272 a 0.12352335,0.12352335 0 0 0 0.0039,-0.002 c 0.04392,-0.03195 0.140015,-0.09791 0.283189,-0.193358 l 0.408198,-0.271489 c 0.06612,0.07089 0.131141,0.144022 0.205107,0.201177 a 0.12352335,0.12352335 0 0 0 0.0039,0.002 c 0.108815,0.07914 0.228624,0.132833 0.355461,0.158202 a 0.12352335,0.12352335 0 0 0 0.0039,0 c 0.184552,0.02993 0.389572,0.0098 0.615252,-0.05469 0.224184,-0.06277 0.455464,-0.14731 0.695314,-0.253911 0.237976,-0.105767 0.475198,-0.221962 0.712871,-0.349601 0.203277,-0.109167 0.38224,-0.205407 0.552747,-0.294925 -0.02762,0.05187 -0.0511,0.0919 -0.0801,0.148425 a 0.12352335,0.12352335 0 0 0 -0.002,0.002 l -0.240253,0.482425 c -0.476355,0.284481 -0.870097,0.583047 -1.167966,0.898437 -0.305375,0.318826 -0.531207,0.615831 -0.67383,0.896478 -0.144033,0.275064 -0.217732,0.517538 -0.203126,0.734375 3.3e-5,6.85e-4 -3.3e-5,0.0013 0,0.002 3.8e-5,5.36e-4 -3.8e-5,0.0014 0,0.002 0.0054,0.104243 0.02956,0.197996 0.0801,0.275388 0.0512,0.07841 0.132994,0.134865 0.22461,0.156243 a 0.12352335,0.12352335 0 0 0 0.0039,0 c 0.14845,0.02969 0.29895,0.02422 0.443346,-0.01562 0.142053,-0.04059 0.281893,-0.118471 0.421894,-0.230473 a 0.12352335,0.12352335 0 0 0 0.002,-0.002 c 0.136312,-0.11281 0.274641,-0.263069 0.417966,-0.451186 0.139242,-0.184158 0.285494,-0.412938 0.439452,-0.685542 v -0.002 c 0.126008,-0.2216 0.260955,-0.45899 0.404305,-0.710938 a 0.12352335,0.12352335 0 0 0 0.002,-0.002 c 0.131643,-0.242717 0.258962,-0.475975 0.382819,-0.70312 0.193792,-0.07391 0.40449,-0.152787 0.640597,-0.238274 0.252582,-0.09145 0.492292,-0.178974 0.718779,-0.261728 a 0.12352335,0.12352335 0 0 0 0.002,0 c 0.226608,-0.08716 0.423965,-0.164999 0.58984,-0.230473 0.166678,-0.06579 0.262464,-0.104566 0.320315,-0.136706 a 0.12352335,0.12352335 0 0 0 0.0059,-0.0039 c 0.05016,-0.03135 0.09295,-0.08045 0.113262,-0.140624 0.02117,-0.05624 0.01486,-0.135803 -0.02343,-0.189457 -0.03742,-0.05328 -0.09771,-0.08501 -0.152335,-0.09181 -0.07317,-0.0091 -0.137358,0.01172 -0.205073,0.04297 a 0.12352335,0.12352335 0 0 0 -0.0039,0.002 c -0.05358,0.02679 -0.149976,0.06755 -0.283222,0.119128 -0.13013,0.04772 -0.283387,0.103027 -0.460936,0.167979 -0.179403,0.06128 -0.372724,0.130492 -0.582018,0.208978 -0.11085,0.03926 -0.223895,0.0806 -0.335959,0.121087 0.0632,-0.122718 0.136449,-0.259611 0.183622,-0.36132 l 0.002,-0.002 c 0.04369,-0.0897 0.07504,-0.164366 0.09765,-0.222654 0.02284,-0.05891 0.04519,-0.08551 0.03518,-0.166021 -0.0049,-0.0447 -0.02316,-0.09345 -0.05861,-0.128905 -0.03654,-0.03655 -0.08297,-0.05518 -0.126925,-0.06251 -0.06402,-0.01067 -0.132459,-0.0091 -0.201178,0 -0.12905,0.0099 -0.256499,0.04581 -0.380873,0.107427 -0.114766,0.05297 -0.249272,0.121229 -0.400377,0.203118 -0.01053,0.0048 -0.0133,0.01955 -0.02347,0.0254 -0.01506,0.0067 -0.0319,0.0037 -0.04686,0.01172 -0.041,0.01815 -0.09422,0.04588 -0.177714,0.09181 a 0.12352335,0.12352335 0 0 0 -0.002,0 c -0.08101,0.0469 -0.181667,0.103112 -0.302725,0.167962 -0.121203,0.06493 -0.253336,0.135253 -0.396483,0.208995 -0.141051,0.06834 -0.282919,0.131611 -0.423843,0.191399 -0.135395,0.05494 -0.264673,0.100883 -0.390608,0.138665 a 0.12352335,0.12352335 0 0 0 -0.002,0 c -0.118179,0.03668 -0.215292,0.05469 -0.289062,0.05469 -0.06253,0 -0.125705,-0.02609 -0.201179,-0.101568 -0.05742,-0.05742 -0.107676,-0.129954 -0.160157,-0.199217 0.07058,-0.04711 0.141811,-0.09525 0.207053,-0.140624 0.104806,-0.06987 0.199966,-0.132495 0.283189,-0.18944 a 0.12352335,0.12352335 0 0 0 0.002,-0.002 c 0.08319,-0.06129 0.153352,-0.113918 0.210914,-0.158202 0.05647,-0.04343 0.09525,-0.0719 0.111348,-0.08397 a 0.12352335,0.12352335 0 0 0 0.01172,-0.01172 c 0.03931,-0.03931 0.0739,-0.0811 0.08788,-0.142583 0.01366,-0.0601 -0.01548,-0.137021 -0.05858,-0.177739 -0.05292,-0.04985 -0.130562,-0.05935 -0.187516,-0.04687 -0.05821,0.01273 -0.11089,0.03928 -0.169926,0.07617 a 0.12352335,0.12352335 0 0 0 -0.0039,0.0039 l -0.744124,0.50392 c -0.04809,-0.07558 -0.09642,-0.152932 -0.14062,-0.220713 -0.07335,-0.112468 -0.154264,-0.196586 -0.261737,-0.232414 -0.09237,-0.03188 -0.194887,-0.03945 -0.298832,-0.0254 h -0.002 c -0.0964,0.0098 -0.19439,0.03158 -0.29299,0.06445 -0.097,0.03233 -0.19097,0.07108 -0.283188,0.117187 -0.08657,0.03901 -0.164069,0.07617 -0.234378,0.111327 h 0.01171 c -0.0019,0.001 -0.0059,0.0028 -0.0078,0.0039 a 0.12352335,0.12352335 0 0 0 -0.01578,0.002 c -0.0075,0.0047 -0.01035,0.01441 -0.01756,0.01954 -0.03045,0.01806 -0.0518,0.02838 -0.09963,0.05859 -0.07675,0.04688 -0.171551,0.101619 -0.283188,0.16602 a 0.12352335,0.12352335 0 0 0 -0.0019,0.002 c -0.108412,0.06505 -0.225642,0.135158 -0.351568,0.208977 a 0.12352335,0.12352335 0 0 0 -0.0019,0 c -0.120805,0.07334 -0.234414,0.141038 -0.341799,0.201176 -0.107035,0.05994 -0.200035,0.108938 -0.279294,0.146484 a 0.12352335,0.12352335 0 0 0 -0.0019,0 c -0.03713,0.01857 -0.06851,0.03148 -0.087884,0.03906 -0.011871,0.0046 -0.00442,0.0055 -0.00403,0.0059 -3.8e-4,-2.73e-4 -0.00156,3.86e-4 -0.00185,0 -0.040078,-0.05457 -0.090897,-0.09624 -0.1562301,-0.128905 -0.053199,-0.0266 -0.1270592,-0.03317 -0.1953379,-0.04492 0.1226755,-0.06757 0.2443727,-0.135461 0.3593895,-0.203117 0.1488725,-0.08757 0.2834915,-0.16737 0.4023255,-0.242192 a 0.12352335,0.12352335 0 0 0 0,-0.002 c 0.120699,-0.07759 0.209516,-0.13113 0.25979,-0.158202 0.06607,-0.03557 0.119849,-0.0659 0.15623,-0.138665 0.01205,-0.02411 0.02346,-0.05065 0.02346,-0.08789 0,-0.03405 -0.01881,-0.07496 -0.043,-0.103509 -0.04325,-0.05108 -0.104382,-0.06737 -0.15623,-0.06837 -0.05615,-0.0053 -0.110276,0.0052 -0.160158,0.02734 a 0.12352335,0.12352335 0 0 0 -0.0019,0 c -0.122301,0.05522 -0.222644,0.07715 -0.300778,0.07423 -0.08866,-0.008 -0.1660315,-0.0257 -0.2304853,-0.05077 -0.072101,-0.02803 -0.1336075,-0.05737 -0.1874828,-0.08789 l -0.00393,-0.002 c -0.069976,-0.04233 -0.1463605,-0.06835 -0.2246101,-0.06835 z m 5.9785008,0.533234 c -0.0019,0.0033 -1.77e-4,0.0083 -0.002,0.01172 -0.0011,0.0027 -0.0048,0.0031 -0.0059,0.0059 z m -3.656233,0.08009 -0.0039,0.01952 c 0.0011,-0.0034 -0.0029,-0.0081 -0.002,-0.01172 8.05e-4,-0.0036 0.0052,-0.0041 0.0059,-0.0078 z m -1.8574046,0.669958 0.011716,0.01564 c -0.00373,-0.006 -0.01144,-0.0081 -0.015542,-0.01359 0.00229,9.52e-4 0.0091,0.0042 0.00383,-0.002 z m 4.9042596,1.185509 c -0.07044,0.144718 -0.140633,0.288257 -0.220682,0.43555 -0.111507,0.197198 -0.221765,0.375769 -0.328137,0.533199 -0.10914,0.155046 -0.212474,0.278977 -0.3086,0.371097 a 0.12352335,0.12352335 0 0 0 -0.002,0.002 c -0.07443,0.07443 -0.121951,0.08776 -0.162105,0.09767 -3.77e-4,-0.01354 -0.0029,-0.01139 0,-0.03321 a 0.12352335,0.12352335 0 0 0 0,-0.0039 c 0.01004,-0.100443 0.06679,-0.256644 0.179661,-0.453111 0.111425,-0.189833 0.27619,-0.405195 0.494169,-0.644544 a 0.12352335,0.12352335 0 0 0 0.002,-0.002 c 0.09077,-0.103482 0.233542,-0.201555 0.345693,-0.302744 z" />
      <ellipse
         style="display:inline;fill:#0000ff;fill-opacity:1;fill-rule:evenodd;stroke:#a5a5a5;stroke-width:0.0123511;stroke-dasharray:none;paint-order:stroke fill markers"
         id="ellipse7"
         cx="13.285523"
         cy="22.859577"
         inkscape:label="circle6"
         rx="5.1011386"
         ry="2.6342719" />
      <path
         id="path7"
         style="color:#000000;-inkscape-font-specification:'Housegrind Personal Use Only, Normal';display:inline;fill:#51de47;stroke-linecap:round;stroke-linejoin:round;-inkscape-stroke:none;paint-order:stroke fill markers"
         d="m 16.877235,20.437691 c -0.110874,0 -0.218984,0.04323 -0.296851,0.121087 -0.07674,0.07675 -0.121117,0.182937 -0.121117,0.291025 0,0.113819 0.04214,0.223741 0.121117,0.302727 0.07787,0.07786 0.185975,0.121104 0.296851,0.121104 0.106584,0 0.20872,-0.04436 0.285168,-0.119145 0.08408,-0.07808 0.130852,-0.188807 0.130852,-0.304686 0,-0.110374 -0.04908,-0.217032 -0.130852,-0.292966 -0.07645,-0.07478 -0.178582,-0.119146 -0.285168,-0.119146 z m -7.3593608,1.17575 v 3.5e-5 c -0.074423,0 -0.1527848,0.01919 -0.2441472,0.05078 -0.092672,0.0278 -0.1910595,0.06421 -0.2949035,0.109368 a 0.12352335,0.12352335 0 0 0 -0.00198,0.002 c -0.095898,0.04359 -0.1961949,0.08879 -0.3007781,0.136724 -0.096275,0.04178 -0.1885991,0.07654 -0.2753663,0.105468 l 0.042968,-0.0059 a 0.12352335,0.12352335 0 0 0 -0.052737,0.0098 c -0.057395,0.02551 -0.1214984,0.0761 -0.1367265,0.154284 -1.322e-4,6.62e-4 1.238e-4,0.0013 0,0.002 -0.010573,0.05653 0.011314,0.115285 0.041021,0.156243 0.029338,0.04528 0.069907,0.07824 0.1152423,0.09767 a 0.12352335,0.12352335 0 0 0 0.00977,0.0039 c 0.057376,0.01917 0.1224488,0.01224 0.1738202,-0.0098 0.031777,-0.01362 0.070739,-0.03269 0.1191363,-0.05469 a 0.12352335,0.12352335 0 0 0 0.00782,-0.0039 c 0.04397,-0.02398 0.090259,-0.04622 0.1386734,-0.06639 a 0.12352335,0.12352335 0 0 0 0.00779,-0.002 c 0.049782,-0.02489 0.095203,-0.04666 0.1347795,-0.06249 0.015241,-0.0061 0.026598,-0.0089 0.036422,-0.01158 0.00912,0.003 0.020762,0.0064 0.035852,0.01548 0.048718,0.02922 0.1077505,0.06004 0.1757672,0.09179 a 0.12352335,0.12352335 0 0 0 0.00587,0.002 c 0.029515,0.01181 0.064237,0.01924 0.095705,0.0293 -0.122456,0.0635 -0.2635125,0.138582 -0.3652641,0.189458 -0.1947549,0.09521 -0.3474888,0.16654 -0.457008,0.212877 a 0.12352335,0.12352335 0 0 0 -0.00782,0.0039 c -0.074335,0.03716 -0.1347076,0.09754 -0.1718732,0.171879 -0.032871,0.06574 -0.052737,0.134735 -0.052737,0.205077 0,0.06561 0.027656,0.135468 0.074221,0.185557 0.031057,0.03418 0.081664,0.06249 0.1289048,0.06249 0.049262,0 0.087637,-0.01704 0.1210833,-0.03712 a 0.12352335,0.12352335 0 0 0 0.00393,-0.002 c 0.084343,-0.055 0.1591592,-0.07813 0.2324316,-0.07813 0.089381,0 0.1739202,0.01231 0.2538822,0.03516 a 0.12352335,0.12352335 0 0 0 0.00587,0 c 0.084708,0.02016 0.1616419,0.04666 0.2324316,0.07813 0.086706,0.03856 0.1667201,0.06242 0.2441136,0.06835 0.095757,0.0068 0.193057,-0.01803 0.3183682,-0.06444 a 0.12352335,0.12352335 0 0 0 0.00393,-0.002 c 0.1266705,-0.04976 0.2615445,-0.111949 0.4081985,-0.187498 0.150171,-0.07509 0.300833,-0.156003 0.455061,-0.244133 a 0.12352335,0.12352335 0 0 0 0.0039,-0.002 l 0.423809,-0.253893 a 0.12352335,0.12352335 0 0 0 0,-0.002 c 0.135051,-0.08278 0.24821,-0.15225 0.339852,-0.208977 a 0.12352335,0.12352335 0 0 0 0.0019,0 c 0.0474,-0.03016 0.05678,-0.03633 0.08594,-0.05469 0.0018,-6.97e-4 0.0041,7.13e-4 0.0059,0 0.08616,-0.03446 0.159108,-0.06546 0.220683,-0.09181 0.04326,-0.0173 0.08435,-0.02071 0.125011,-0.02344 a 0.12352335,0.12352335 0 0 0 0.0039,0.002 c 0.02215,0.02215 0.05029,0.05784 0.08204,0.105468 0.03395,0.05092 0.0722,0.110814 0.115242,0.17968 a 0.12352335,0.12352335 0 0 0 0.002,0.0039 c 0.02247,0.0337 0.04962,0.06884 0.07422,0.103509 -0.05098,0.03537 -0.10294,0.07167 -0.152336,0.105468 -0.0774,0.0516 -0.148282,0.09951 -0.212895,0.142583 -0.06379,0.03832 -0.120175,0.07114 -0.167979,0.101567 -0.0441,0.02649 -0.07463,0.04573 -0.0996,0.06445 a 0.12352335,0.12352335 0 0 0 -0.0019,0.002 c -0.05193,0.04039 -0.09403,0.09059 -0.117189,0.152343 a 0.12352335,0.12352335 0 0 0 -0.0059,0.01368 c -0.01282,0.05127 -0.01389,0.106704 0.0039,0.16016 a 0.12352335,0.12352335 0 0 0 0.0019,0.0059 c 0.02241,0.05604 0.0774,0.100017 0.128905,0.117187 a 0.12352335,0.12352335 0 0 0 0.02148,0.0059 c 0.07205,0.01029 0.135352,-0.01665 0.189463,-0.05272 a 0.12352335,0.12352335 0 0 0 0.0039,-0.002 c 0.04392,-0.03195 0.140015,-0.09791 0.283189,-0.193358 l 0.408198,-0.271489 c 0.06612,0.07089 0.131141,0.144022 0.205107,0.201177 a 0.12352335,0.12352335 0 0 0 0.0039,0.002 c 0.108815,0.07914 0.228624,0.132833 0.355461,0.158202 a 0.12352335,0.12352335 0 0 0 0.0039,0 c 0.184552,0.02993 0.389572,0.0098 0.615252,-0.05469 0.224184,-0.06277 0.455464,-0.14731 0.695314,-0.253911 0.237976,-0.105767 0.475198,-0.221962 0.712871,-0.349601 0.203277,-0.109167 0.38224,-0.205407 0.552747,-0.294925 -0.02762,0.05187 -0.0511,0.0919 -0.0801,0.148425 a 0.12352335,0.12352335 0 0 0 -0.002,0.002 l -0.240253,0.482425 c -0.476355,0.284481 -0.870097,0.583047 -1.167966,0.898437 -0.305375,0.318826 -0.531207,0.615831 -0.67383,0.896478 -0.144033,0.275064 -0.217732,0.517538 -0.203126,0.734375 3.3e-5,6.85e-4 -3.3e-5,0.0013 0,0.002 3.8e-5,5.36e-4 -3.8e-5,0.0014 0,0.002 0.0054,0.104243 0.02956,0.197996 0.0801,0.275388 0.0512,0.07841 0.132994,0.134865 0.22461,0.156243 a 0.12352335,0.12352335 0 0 0 0.0039,0 c 0.14845,0.02969 0.29895,0.02422 0.443346,-0.01562 0.142053,-0.04059 0.281893,-0.118471 0.421894,-0.230473 a 0.12352335,0.12352335 0 0 0 0.002,-0.002 c 0.136312,-0.11281 0.274641,-0.263069 0.417966,-0.451186 0.139242,-0.184158 0.285494,-0.412938 0.439452,-0.685542 v -0.002 c 0.126008,-0.2216 0.260955,-0.45899 0.404305,-0.710938 a 0.12352335,0.12352335 0 0 0 0.002,-0.002 c 0.131643,-0.242717 0.258962,-0.475975 0.382819,-0.70312 0.193792,-0.07391 0.40449,-0.152787 0.640597,-0.238274 0.252582,-0.09145 0.492292,-0.178974 0.718779,-0.261728 a 0.12352335,0.12352335 0 0 0 0.002,0 c 0.226608,-0.08716 0.423965,-0.164999 0.58984,-0.230473 0.166678,-0.06579 0.262464,-0.104566 0.320315,-0.136706 a 0.12352335,0.12352335 0 0 0 0.0059,-0.0039 c 0.05016,-0.03135 0.09295,-0.08045 0.113262,-0.140624 0.02117,-0.05624 0.01486,-0.135803 -0.02343,-0.189457 -0.03742,-0.05328 -0.09771,-0.08501 -0.152335,-0.09181 -0.07317,-0.0091 -0.137358,0.01172 -0.205073,0.04297 a 0.12352335,0.12352335 0 0 0 -0.0039,0.002 c -0.05358,0.02679 -0.149976,0.06755 -0.283222,0.119128 -0.13013,0.04772 -0.283387,0.103027 -0.460936,0.167979 -0.179403,0.06128 -0.372724,0.130492 -0.582018,0.208978 -0.11085,0.03926 -0.223895,0.0806 -0.335959,0.121087 0.0632,-0.122718 0.136449,-0.259611 0.183622,-0.36132 l 0.002,-0.002 c 0.04369,-0.0897 0.07504,-0.164366 0.09765,-0.222654 0.02284,-0.05891 0.04519,-0.08551 0.03518,-0.166021 -0.0049,-0.0447 -0.02316,-0.09345 -0.05861,-0.128905 -0.03654,-0.03655 -0.08297,-0.05518 -0.126925,-0.06251 -0.06402,-0.01067 -0.132459,-0.0091 -0.201178,0 -0.12905,0.0099 -0.256499,0.04581 -0.380873,0.107427 -0.114766,0.05297 -0.249272,0.121229 -0.400377,0.203118 -0.01053,0.0048 -0.0133,0.01955 -0.02347,0.0254 -0.01506,0.0067 -0.0319,0.0037 -0.04686,0.01172 -0.041,0.01815 -0.09422,0.04588 -0.177714,0.09181 a 0.12352335,0.12352335 0 0 0 -0.002,0 c -0.08101,0.0469 -0.181667,0.103112 -0.302725,0.167962 -0.121203,0.06493 -0.253336,0.135253 -0.396483,0.208995 -0.141051,0.06834 -0.282919,0.131611 -0.423843,0.191399 -0.135395,0.05494 -0.264673,0.100883 -0.390608,0.138665 a 0.12352335,0.12352335 0 0 0 -0.002,0 c -0.118179,0.03668 -0.215292,0.05469 -0.289062,0.05469 -0.06253,0 -0.125705,-0.02609 -0.201179,-0.101568 -0.05742,-0.05742 -0.107676,-0.129954 -0.160157,-0.199217 0.07058,-0.04711 0.141811,-0.09525 0.207053,-0.140624 0.104806,-0.06987 0.199966,-0.132495 0.283189,-0.18944 a 0.12352335,0.12352335 0 0 0 0.002,-0.002 c 0.08319,-0.06129 0.153352,-0.113918 0.210914,-0.158202 0.05647,-0.04343 0.09525,-0.0719 0.111348,-0.08397 a 0.12352335,0.12352335 0 0 0 0.01172,-0.01172 c 0.03931,-0.03931 0.0739,-0.0811 0.08788,-0.142583 0.01366,-0.0601 -0.01548,-0.137021 -0.05858,-0.177739 -0.05292,-0.04985 -0.130562,-0.05935 -0.187516,-0.04687 -0.05821,0.01273 -0.11089,0.03928 -0.169926,0.07617 a 0.12352335,0.12352335 0 0 0 -0.0039,0.0039 l -0.744124,0.50392 c -0.04809,-0.07558 -0.09642,-0.152932 -0.14062,-0.220713 -0.07335,-0.112468 -0.154264,-0.196586 -0.261737,-0.232414 -0.09237,-0.03188 -0.194887,-0.03945 -0.298832,-0.0254 h -0.002 c -0.0964,0.0098 -0.19439,0.03158 -0.29299,0.06445 -0.097,0.03233 -0.19097,0.07108 -0.283188,0.117187 -0.08657,0.03901 -0.164069,0.07617 -0.234378,0.111327 h 0.01171 c -0.0019,0.001 -0.0059,0.0028 -0.0078,0.0039 a 0.12352335,0.12352335 0 0 0 -0.01578,0.002 c -0.0075,0.0047 -0.01035,0.01441 -0.01756,0.01954 -0.03045,0.01806 -0.0518,0.02838 -0.09963,0.05859 -0.07675,0.04688 -0.171551,0.101619 -0.283188,0.16602 a 0.12352335,0.12352335 0 0 0 -0.0019,0.002 c -0.108412,0.06505 -0.225642,0.135158 -0.351568,0.208977 a 0.12352335,0.12352335 0 0 0 -0.0019,0 c -0.120805,0.07334 -0.234414,0.141038 -0.341799,0.201176 -0.107035,0.05994 -0.200035,0.108938 -0.279294,0.146484 a 0.12352335,0.12352335 0 0 0 -0.0019,0 c -0.03713,0.01857 -0.06851,0.03148 -0.087884,0.03906 -0.011871,0.0046 -0.00442,0.0055 -0.00403,0.0059 -3.8e-4,-2.73e-4 -0.00156,3.86e-4 -0.00185,0 -0.040078,-0.05457 -0.090897,-0.09624 -0.1562301,-0.128905 -0.053199,-0.0266 -0.1270592,-0.03317 -0.1953379,-0.04492 0.1226755,-0.06757 0.2443727,-0.135461 0.3593895,-0.203117 0.1488725,-0.08757 0.2834915,-0.16737 0.4023255,-0.242192 a 0.12352335,0.12352335 0 0 0 0,-0.002 c 0.120699,-0.07759 0.209516,-0.13113 0.25979,-0.158202 0.06607,-0.03557 0.119849,-0.0659 0.15623,-0.138665 0.01205,-0.02411 0.02346,-0.05065 0.02346,-0.08789 0,-0.03405 -0.01881,-0.07496 -0.043,-0.103509 -0.04325,-0.05108 -0.104382,-0.06737 -0.15623,-0.06837 -0.05615,-0.0053 -0.110276,0.0052 -0.160158,0.02734 a 0.12352335,0.12352335 0 0 0 -0.0019,0 c -0.122301,0.05522 -0.222644,0.07715 -0.300778,0.07423 -0.08866,-0.008 -0.1660315,-0.0257 -0.2304853,-0.05077 -0.072101,-0.02803 -0.1336075,-0.05737 -0.1874828,-0.08789 l -0.00393,-0.002 c -0.069976,-0.04233 -0.1463605,-0.06835 -0.2246101,-0.06835 z m 5.9785008,0.533234 c -0.0019,0.0033 -1.77e-4,0.0083 -0.002,0.01172 -0.0011,0.0027 -0.0048,0.0031 -0.0059,0.0059 z m -3.656233,0.08009 -0.0039,0.01952 c 0.0011,-0.0034 -0.0029,-0.0081 -0.002,-0.01172 8.05e-4,-0.0036 0.0052,-0.0041 0.0059,-0.0078 z m -1.8574046,0.669958 0.011716,0.01564 c -0.00373,-0.006 -0.01144,-0.0081 -0.015542,-0.01359 0.00229,9.52e-4 0.0091,0.0042 0.00383,-0.002 z m 4.9042596,1.185509 c -0.07044,0.144718 -0.140633,0.288257 -0.220682,0.43555 -0.111507,0.197198 -0.221765,0.375769 -0.328137,0.533199 -0.10914,0.155046 -0.212474,0.278977 -0.3086,0.371097 a 0.12352335,0.12352335 0 0 0 -0.002,0.002 c -0.07443,0.07443 -0.121951,0.08776 -0.162105,0.09767 -3.77e-4,-0.01354 -0.0029,-0.01139 0,-0.03321 a 0.12352335,0.12352335 0 0 0 0,-0.0039 c 0.01004,-0.100443 0.06679,-0.256644 0.179661,-0.453111 0.111425,-0.189833 0.27619,-0.405195 0.494169,-0.644544 a 0.12352335,0.12352335 0 0 0 0.002,-0.002 c 0.09077,-0.103482 0.233542,-0.201555 0.345693,-0.302744 z" />
    </g>
  </g>
</g>
<g
   inkscape:groupmode="layer"
   id="layer2"
   inkscape:label="custom_bottom"
   style="display:none"
   transform="translate(-30.243719,-47.15633)">
  <g
     id="g3"
     transform="translate(-451.57753,643.88702)">
    <path
       id="rect3-0"
       style="display:inline;fill:#000000;fill-rule:evenodd;stroke:#a5a5a5;stroke-width:1.072;paint-order:stroke fill markers"
       d="M 299.10468,-16.242649 A 296.79663,296.79663 0 0 0 3.34296,280.48001 296.79663,296.79663 0 0 0 299.10468,577.20267 Z" />
    <circle
       style="display:inline;fill:#ffffff;fill-rule:evenodd;stroke:#a5a5a5;stroke-width:1.40671;paint-order:stroke fill markers"
       id="path3"
       cx="300.30695"
       cy="280.48001"
       r="296.79663" />
    <circle
       style="display:inline;fill:#0000ff;fill-opacity:1;fill-rule:evenodd;stroke:#a5a5a5;stroke-width:1;stroke-dasharray:none;paint-order:stroke fill markers"
       id="circle5"
       cx="300.30695"
       cy="280.48001"
       r="296.79663" />
  </g>
</g>
<g
   inkscape:groupmode="layer"
   id="layer4"
   inkscape:label="text2">
  <text
     xml:space="preserve"
     style="font-size:5651.91px;font-family:'D3 Circuitism';-inkscape-font-specification:'D3 Circuitism, Normal';fill:url(#linearGradient204);fill-opacity:1;fill-rule:nonzero;stroke:url(#meshgradient190);stroke-width:11.9937;stroke-linecap:round;stroke-linejoin:round;stroke-dasharray:none;stroke-dashoffset:0;paint-order:markers stroke fill;stop-color:#000000"
     x="20.403334"
     y="341.40274"
     id="text1"
     transform="scale(0.5388161,1.8559208)"
     inkscape:transform-center-x="-405.88355"
     inkscape:transform-center-y="288.23982"><tspan
       sodipodi:role="line"
       id="tspan1"
       x="20.403334"
       y="341.40274"
       style="font-style:normal;font-variant:normal;font-weight:normal;font-stretch:normal;font-size:450.444px;font-family:'D3 Circuitism';-inkscape-font-specification:'D3 Circuitism, Normal';font-variant-ligatures:normal;font-variant-caps:normal;font-variant-numeric:normal;font-variant-east-asian:normal;fill:url(#linearGradient204);fill-opacity:1;fill-rule:nonzero;stroke:url(#meshgradient190);stroke-width:11.9937;stroke-linecap:round;stroke-linejoin:round;stroke-dasharray:none;stroke-dashoffset:0;paint-order:markers stroke fill">adb</tspan></text>
</g>
<script
   id="mesh_polyfill"
   type="text/javascript">
!function(){const t=&quot;http://www.w3.org/2000/svg&quot;,e=&quot;http://www.w3.org/1999/xlink&quot;,s=&quot;http://www.w3.org/1999/xhtml&quot;,r=2;if(document.createElementNS(t,&quot;meshgradient&quot;).x)return;const n=(t,e,s,r)=&gt;{let n=new x(.5*(e.x+s.x),.5*(e.y+s.y)),o=new x(.5*(t.x+e.x),.5*(t.y+e.y)),i=new x(.5*(s.x+r.x),.5*(s.y+r.y)),a=new x(.5*(n.x+o.x),.5*(n.y+o.y)),h=new x(.5*(n.x+i.x),.5*(n.y+i.y)),l=new x(.5*(a.x+h.x),.5*(a.y+h.y));return[[t,o,a,l],[l,h,i,r]]},o=t=&gt;{let e=t[0].distSquared(t[1]),s=t[2].distSquared(t[3]),r=.25*t[0].distSquared(t[2]),n=.25*t[1].distSquared(t[3]),o=e&gt;s?e:s,i=r&gt;n?r:n;return 18*(o&gt;i?o:i)},i=(t,e)=&gt;Math.sqrt(t.distSquared(e)),a=(t,e)=&gt;t.scale(2/3).add(e.scale(1/3)),h=t=&gt;{let e,s,r,n,o,i,a,h=new g;return t.match(/(\w+\(\s*[^)]+\))+/g).forEach(t=&gt;{let l=t.match(/[\w.-]+/g),d=l.shift();switch(d){case&quot;translate&quot;:2===l.length?e=new g(1,0,0,1,l[0],l[1]):(console.error(&quot;mesh.js: translate does not have 2 arguments!&quot;),e=new g(1,0,0,1,0,0)),h=h.append(e);break;case&quot;scale&quot;:1===l.length?s=new g(l[0],0,0,l[0],0,0):2===l.length?s=new g(l[0],0,0,l[1],0,0):(console.error(&quot;mesh.js: scale does not have 1 or 2 arguments!&quot;),s=new g(1,0,0,1,0,0)),h=h.append(s);break;case&quot;rotate&quot;:if(3===l.length&amp;&amp;(e=new g(1,0,0,1,l[1],l[2]),h=h.append(e)),l[0]){r=l[0]*Math.PI/180;let t=Math.cos(r),e=Math.sin(r);Math.abs(t)&lt;1e-16&amp;&amp;(t=0),Math.abs(e)&lt;1e-16&amp;&amp;(e=0),a=new g(t,e,-e,t,0,0),h=h.append(a)}else console.error(&quot;math.js: No argument to rotate transform!&quot;);3===l.length&amp;&amp;(e=new g(1,0,0,1,-l[1],-l[2]),h=h.append(e));break;case&quot;skewX&quot;:l[0]?(r=l[0]*Math.PI/180,n=Math.tan(r),o=new g(1,0,n,1,0,0),h=h.append(o)):console.error(&quot;math.js: No argument to skewX transform!&quot;);break;case&quot;skewY&quot;:l[0]?(r=l[0]*Math.PI/180,n=Math.tan(r),i=new g(1,n,0,1,0,0),h=h.append(i)):console.error(&quot;math.js: No argument to skewY transform!&quot;);break;case&quot;matrix&quot;:6===l.length?h=h.append(new g(...l)):console.error(&quot;math.js: Incorrect number of arguments for matrix!&quot;);break;default:console.error(&quot;mesh.js: Unhandled transform type: &quot;+d)}}),h},l=t=&gt;{let e=[],s=t.split(/[ ,]+/);for(let t=0,r=s.length-1;t&lt;r;t+=2)e.push(new x(parseFloat(s[t]),parseFloat(s[t+1])));return e},d=(t,e)=&gt;{for(let s in e)t.setAttribute(s,e[s])},c=(t,e,s,r,n)=&gt;{let o,i,a=[0,0,0,0];for(let h=0;h&lt;3;++h)e[h]&lt;t[h]&amp;&amp;e[h]&lt;s[h]||t[h]&lt;e[h]&amp;&amp;s[h]&lt;e[h]?a[h]=0:(a[h]=.5*((e[h]-t[h])/r+(s[h]-e[h])/n),o=Math.abs(3*(e[h]-t[h])/r),i=Math.abs(3*(s[h]-e[h])/n),a[h]&gt;o?a[h]=o:a[h]&gt;i&amp;&amp;(a[h]=i));return a},u=[[1,0,0,0,0,0,0,0,0,0,0,0,0,0,0,0],[0,0,0,0,1,0,0,0,0,0,0,0,0,0,0,0],[-3,3,0,0,-2,-1,0,0,0,0,0,0,0,0,0,0],[2,-2,0,0,1,1,0,0,0,0,0,0,0,0,0,0],[0,0,0,0,0,0,0,0,1,0,0,0,0,0,0,0],[0,0,0,0,0,0,0,0,0,0,0,0,1,0,0,0],[0,0,0,0,0,0,0,0,-3,3,0,0,-2,-1,0,0],[0,0,0,0,0,0,0,0,2,-2,0,0,1,1,0,0],[-3,0,3,0,0,0,0,0,-2,0,-1,0,0,0,0,0],[0,0,0,0,-3,0,3,0,0,0,0,0,-2,0,-1,0],[9,-9,-9,9,6,3,-6,-3,6,-6,3,-3,4,2,2,1],[-6,6,6,-6,-3,-3,3,3,-4,4,-2,2,-2,-2,-1,-1],[2,0,-2,0,0,0,0,0,1,0,1,0,0,0,0,0],[0,0,0,0,2,0,-2,0,0,0,0,0,1,0,1,0],[-6,6,6,-6,-4,-2,4,2,-3,3,-3,3,-2,-1,-2,-1],[4,-4,-4,4,2,2,-2,-2,2,-2,2,-2,1,1,1,1]],f=t=&gt;{let e=[];for(let s=0;s&lt;16;++s){e[s]=0;for(let r=0;r&lt;16;++r)e[s]+=u[s][r]*t[r]}return e},p=(t,e,s)=&gt;{const r=e*e,n=s*s,o=e*e*e,i=s*s*s;return t[0]+t[1]*e+t[2]*r+t[3]*o+t[4]*s+t[5]*s*e+t[6]*s*r+t[7]*s*o+t[8]*n+t[9]*n*e+t[10]*n*r+t[11]*n*o+t[12]*i+t[13]*i*e+t[14]*i*r+t[15]*i*o},y=t=&gt;{let e=[],s=[],r=[];for(let s=0;s&lt;4;++s)e[s]=[],e[s][0]=n(t[0][s],t[1][s],t[2][s],t[3][s]),e[s][1]=[],e[s][1].push(...n(...e[s][0][0])),e[s][1].push(...n(...e[s][0][1])),e[s][2]=[],e[s][2].push(...n(...e[s][1][0])),e[s][2].push(...n(...e[s][1][1])),e[s][2].push(...n(...e[s][1][2])),e[s][2].push(...n(...e[s][1][3]));for(let t=0;t&lt;8;++t){s[t]=[];for(let r=0;r&lt;4;++r)s[t][r]=[],s[t][r][0]=n(e[0][2][t][r],e[1][2][t][r],e[2][2][t][r],e[3][2][t][r]),s[t][r][1]=[],s[t][r][1].push(...n(...s[t][r][0][0])),s[t][r][1].push(...n(...s[t][r][0][1])),s[t][r][2]=[],s[t][r][2].push(...n(...s[t][r][1][0])),s[t][r][2].push(...n(...s[t][r][1][1])),s[t][r][2].push(...n(...s[t][r][1][2])),s[t][r][2].push(...n(...s[t][r][1][3]))}for(let t=0;t&lt;8;++t){r[t]=[];for(let e=0;e&lt;8;++e)r[t][e]=[],r[t][e][0]=s[t][0][2][e],r[t][e][1]=s[t][1][2][e],r[t][e][2]=s[t][2][2][e],r[t][e][3]=s[t][3][2][e]}return r};class x{constructor(t,e){this.x=t||0,this.y=e||0}toString(){return`(x=${this.x}, y=${this.y})`}clone(){return new x(this.x,this.y)}add(t){return new x(this.x+t.x,this.y+t.y)}scale(t){return void 0===t.x?new x(this.x*t,this.y*t):new x(this.x*t.x,this.y*t.y)}distSquared(t){let e=this.x-t.x,s=this.y-t.y;return e*e+s*s}transform(t){let e=this.x*t.a+this.y*t.c+t.e,s=this.x*t.b+this.y*t.d+t.f;return new x(e,s)}}class g{constructor(t,e,s,r,n,o){void 0===t?(this.a=1,this.b=0,this.c=0,this.d=1,this.e=0,this.f=0):(this.a=t,this.b=e,this.c=s,this.d=r,this.e=n,this.f=o)}toString(){return`affine: ${this.a} ${this.c} ${this.e} \n       ${this.b} ${this.d} ${this.f}`}append(t){t instanceof g||console.error(&quot;mesh.js: argument to Affine.append is not affine!&quot;);let e=this.a*t.a+this.c*t.b,s=this.b*t.a+this.d*t.b,r=this.a*t.c+this.c*t.d,n=this.b*t.c+this.d*t.d,o=this.a*t.e+this.c*t.f+this.e,i=this.b*t.e+this.d*t.f+this.f;return new g(e,s,r,n,o,i)}}class w{constructor(t,e){this.nodes=t,this.colors=e}paintCurve(t,e){if(o(this.nodes)&gt;r){const s=n(...this.nodes);let r=[[],[]],o=[[],[]];for(let t=0;t&lt;4;++t)r[0][t]=this.colors[0][t],r[1][t]=(this.colors[0][t]+this.colors[1][t])/2,o[0][t]=r[1][t],o[1][t]=this.colors[1][t];let i=new w(s[0],r),a=new w(s[1],o);i.paintCurve(t,e),a.paintCurve(t,e)}else{let s=Math.round(this.nodes[0].x);if(s&gt;=0&amp;&amp;s&lt;e){let r=4*(~~this.nodes[0].y*e+s);t[r]=Math.round(this.colors[0][0]),t[r+1]=Math.round(this.colors[0][1]),t[r+2]=Math.round(this.colors[0][2]),t[r+3]=Math.round(this.colors[0][3])}}}}class m{constructor(t,e){this.nodes=t,this.colors=e}split(){let t=[[],[],[],[]],e=[[],[],[],[]],s=[[[],[]],[[],[]]],r=[[[],[]],[[],[]]];for(let s=0;s&lt;4;++s){const r=n(this.nodes[0][s],this.nodes[1][s],this.nodes[2][s],this.nodes[3][s]);t[0][s]=r[0][0],t[1][s]=r[0][1],t[2][s]=r[0][2],t[3][s]=r[0][3],e[0][s]=r[1][0],e[1][s]=r[1][1],e[2][s]=r[1][2],e[3][s]=r[1][3]}for(let t=0;t&lt;4;++t)s[0][0][t]=this.colors[0][0][t],s[0][1][t]=this.colors[0][1][t],s[1][0][t]=(this.colors[0][0][t]+this.colors[1][0][t])/2,s[1][1][t]=(this.colors[0][1][t]+this.colors[1][1][t])/2,r[0][0][t]=s[1][0][t],r[0][1][t]=s[1][1][t],r[1][0][t]=this.colors[1][0][t],r[1][1][t]=this.colors[1][1][t];return[new m(t,s),new m(e,r)]}paint(t,e){let s,n=!1;for(let t=0;t&lt;4;++t)if((s=o([this.nodes[0][t],this.nodes[1][t],this.nodes[2][t],this.nodes[3][t]]))&gt;r){n=!0;break}if(n){let s=this.split();s[0].paint(t,e),s[1].paint(t,e)}else{new w([...this.nodes[0]],[...this.colors[0]]).paintCurve(t,e)}}}class b{constructor(t){this.readMesh(t),this.type=t.getAttribute(&quot;type&quot;)||&quot;bilinear&quot;}readMesh(t){let e=[[]],s=[[]],r=Number(t.getAttribute(&quot;x&quot;)),n=Number(t.getAttribute(&quot;y&quot;));e[0][0]=new x(r,n);let o=t.children;for(let t=0,r=o.length;t&lt;r;++t){e[3*t+1]=[],e[3*t+2]=[],e[3*t+3]=[],s[t+1]=[];let r=o[t].children;for(let n=0,o=r.length;n&lt;o;++n){let o=r[n].children;for(let r=0,i=o.length;r&lt;i;++r){let i=r;0!==t&amp;&amp;++i;let h,d=o[r].getAttribute(&quot;path&quot;),c=&quot;l&quot;;null!=d&amp;&amp;(c=(h=d.match(/\s*([lLcC])\s*(.*)/))[1]);let u=l(h[2]);switch(c){case&quot;l&quot;:0===i?(e[3*t][3*n+3]=u[0].add(e[3*t][3*n]),e[3*t][3*n+1]=a(e[3*t][3*n],e[3*t][3*n+3]),e[3*t][3*n+2]=a(e[3*t][3*n+3],e[3*t][3*n])):1===i?(e[3*t+3][3*n+3]=u[0].add(e[3*t][3*n+3]),e[3*t+1][3*n+3]=a(e[3*t][3*n+3],e[3*t+3][3*n+3]),e[3*t+2][3*n+3]=a(e[3*t+3][3*n+3],e[3*t][3*n+3])):2===i?(0===n&amp;&amp;(e[3*t+3][3*n+0]=u[0].add(e[3*t+3][3*n+3])),e[3*t+3][3*n+1]=a(e[3*t+3][3*n],e[3*t+3][3*n+3]),e[3*t+3][3*n+2]=a(e[3*t+3][3*n+3],e[3*t+3][3*n])):(e[3*t+1][3*n]=a(e[3*t][3*n],e[3*t+3][3*n]),e[3*t+2][3*n]=a(e[3*t+3][3*n],e[3*t][3*n]));break;case&quot;L&quot;:0===i?(e[3*t][3*n+3]=u[0],e[3*t][3*n+1]=a(e[3*t][3*n],e[3*t][3*n+3]),e[3*t][3*n+2]=a(e[3*t][3*n+3],e[3*t][3*n])):1===i?(e[3*t+3][3*n+3]=u[0],e[3*t+1][3*n+3]=a(e[3*t][3*n+3],e[3*t+3][3*n+3]),e[3*t+2][3*n+3]=a(e[3*t+3][3*n+3],e[3*t][3*n+3])):2===i?(0===n&amp;&amp;(e[3*t+3][3*n+0]=u[0]),e[3*t+3][3*n+1]=a(e[3*t+3][3*n],e[3*t+3][3*n+3]),e[3*t+3][3*n+2]=a(e[3*t+3][3*n+3],e[3*t+3][3*n])):(e[3*t+1][3*n]=a(e[3*t][3*n],e[3*t+3][3*n]),e[3*t+2][3*n]=a(e[3*t+3][3*n],e[3*t][3*n]));break;case&quot;c&quot;:0===i?(e[3*t][3*n+1]=u[0].add(e[3*t][3*n]),e[3*t][3*n+2]=u[1].add(e[3*t][3*n]),e[3*t][3*n+3]=u[2].add(e[3*t][3*n])):1===i?(e[3*t+1][3*n+3]=u[0].add(e[3*t][3*n+3]),e[3*t+2][3*n+3]=u[1].add(e[3*t][3*n+3]),e[3*t+3][3*n+3]=u[2].add(e[3*t][3*n+3])):2===i?(e[3*t+3][3*n+2]=u[0].add(e[3*t+3][3*n+3]),e[3*t+3][3*n+1]=u[1].add(e[3*t+3][3*n+3]),0===n&amp;&amp;(e[3*t+3][3*n+0]=u[2].add(e[3*t+3][3*n+3]))):(e[3*t+2][3*n]=u[0].add(e[3*t+3][3*n]),e[3*t+1][3*n]=u[1].add(e[3*t+3][3*n]));break;case&quot;C&quot;:0===i?(e[3*t][3*n+1]=u[0],e[3*t][3*n+2]=u[1],e[3*t][3*n+3]=u[2]):1===i?(e[3*t+1][3*n+3]=u[0],e[3*t+2][3*n+3]=u[1],e[3*t+3][3*n+3]=u[2]):2===i?(e[3*t+3][3*n+2]=u[0],e[3*t+3][3*n+1]=u[1],0===n&amp;&amp;(e[3*t+3][3*n+0]=u[2])):(e[3*t+2][3*n]=u[0],e[3*t+1][3*n]=u[1]);break;default:console.error(&quot;mesh.js: &quot;+c+&quot; invalid path type.&quot;)}if(0===t&amp;&amp;0===n||r&gt;0){let e=window.getComputedStyle(o[r]).stopColor.match(/^rgb\s*\(\s*(\d+)\s*,\s*(\d+)\s*,\s*(\d+)\s*\)$/i),a=window.getComputedStyle(o[r]).stopOpacity,h=255;a&amp;&amp;(h=Math.floor(255*a)),e&amp;&amp;(0===i?(s[t][n]=[],s[t][n][0]=Math.floor(e[1]),s[t][n][1]=Math.floor(e[2]),s[t][n][2]=Math.floor(e[3]),s[t][n][3]=h):1===i?(s[t][n+1]=[],s[t][n+1][0]=Math.floor(e[1]),s[t][n+1][1]=Math.floor(e[2]),s[t][n+1][2]=Math.floor(e[3]),s[t][n+1][3]=h):2===i?(s[t+1][n+1]=[],s[t+1][n+1][0]=Math.floor(e[1]),s[t+1][n+1][1]=Math.floor(e[2]),s[t+1][n+1][2]=Math.floor(e[3]),s[t+1][n+1][3]=h):3===i&amp;&amp;(s[t+1][n]=[],s[t+1][n][0]=Math.floor(e[1]),s[t+1][n][1]=Math.floor(e[2]),s[t+1][n][2]=Math.floor(e[3]),s[t+1][n][3]=h))}}e[3*t+1][3*n+1]=new x,e[3*t+1][3*n+2]=new x,e[3*t+2][3*n+1]=new x,e[3*t+2][3*n+2]=new x,e[3*t+1][3*n+1].x=(-4*e[3*t][3*n].x+6*(e[3*t][3*n+1].x+e[3*t+1][3*n].x)+-2*(e[3*t][3*n+3].x+e[3*t+3][3*n].x)+3*(e[3*t+3][3*n+1].x+e[3*t+1][3*n+3].x)+-1*e[3*t+3][3*n+3].x)/9,e[3*t+1][3*n+2].x=(-4*e[3*t][3*n+3].x+6*(e[3*t][3*n+2].x+e[3*t+1][3*n+3].x)+-2*(e[3*t][3*n].x+e[3*t+3][3*n+3].x)+3*(e[3*t+3][3*n+2].x+e[3*t+1][3*n].x)+-1*e[3*t+3][3*n].x)/9,e[3*t+2][3*n+1].x=(-4*e[3*t+3][3*n].x+6*(e[3*t+3][3*n+1].x+e[3*t+2][3*n].x)+-2*(e[3*t+3][3*n+3].x+e[3*t][3*n].x)+3*(e[3*t][3*n+1].x+e[3*t+2][3*n+3].x)+-1*e[3*t][3*n+3].x)/9,e[3*t+2][3*n+2].x=(-4*e[3*t+3][3*n+3].x+6*(e[3*t+3][3*n+2].x+e[3*t+2][3*n+3].x)+-2*(e[3*t+3][3*n].x+e[3*t][3*n+3].x)+3*(e[3*t][3*n+2].x+e[3*t+2][3*n].x)+-1*e[3*t][3*n].x)/9,e[3*t+1][3*n+1].y=(-4*e[3*t][3*n].y+6*(e[3*t][3*n+1].y+e[3*t+1][3*n].y)+-2*(e[3*t][3*n+3].y+e[3*t+3][3*n].y)+3*(e[3*t+3][3*n+1].y+e[3*t+1][3*n+3].y)+-1*e[3*t+3][3*n+3].y)/9,e[3*t+1][3*n+2].y=(-4*e[3*t][3*n+3].y+6*(e[3*t][3*n+2].y+e[3*t+1][3*n+3].y)+-2*(e[3*t][3*n].y+e[3*t+3][3*n+3].y)+3*(e[3*t+3][3*n+2].y+e[3*t+1][3*n].y)+-1*e[3*t+3][3*n].y)/9,e[3*t+2][3*n+1].y=(-4*e[3*t+3][3*n].y+6*(e[3*t+3][3*n+1].y+e[3*t+2][3*n].y)+-2*(e[3*t+3][3*n+3].y+e[3*t][3*n].y)+3*(e[3*t][3*n+1].y+e[3*t+2][3*n+3].y)+-1*e[3*t][3*n+3].y)/9,e[3*t+2][3*n+2].y=(-4*e[3*t+3][3*n+3].y+6*(e[3*t+3][3*n+2].y+e[3*t+2][3*n+3].y)+-2*(e[3*t+3][3*n].y+e[3*t][3*n+3].y)+3*(e[3*t][3*n+2].y+e[3*t+2][3*n].y)+-1*e[3*t][3*n].y)/9}}this.nodes=e,this.colors=s}paintMesh(t,e){let s=(this.nodes.length-1)/3,r=(this.nodes[0].length-1)/3;if(&quot;bilinear&quot;===this.type||s&lt;2||r&lt;2){let n;for(let o=0;o&lt;s;++o)for(let s=0;s&lt;r;++s){let r=[];for(let t=3*o,e=3*o+4;t&lt;e;++t)r.push(this.nodes[t].slice(3*s,3*s+4));let i=[];i.push(this.colors[o].slice(s,s+2)),i.push(this.colors[o+1].slice(s,s+2)),(n=new m(r,i)).paint(t,e)}}else{let n,o,a,h,l,d,u;const x=s,g=r;s++,r++;let w=new Array(s);for(let t=0;t&lt;s;++t){w[t]=new Array(r);for(let e=0;e&lt;r;++e)w[t][e]=[],w[t][e][0]=this.nodes[3*t][3*e],w[t][e][1]=this.colors[t][e]}for(let t=0;t&lt;s;++t)for(let e=0;e&lt;r;++e)0!==t&amp;&amp;t!==x&amp;&amp;(n=i(w[t-1][e][0],w[t][e][0]),o=i(w[t+1][e][0],w[t][e][0]),w[t][e][2]=c(w[t-1][e][1],w[t][e][1],w[t+1][e][1],n,o)),0!==e&amp;&amp;e!==g&amp;&amp;(n=i(w[t][e-1][0],w[t][e][0]),o=i(w[t][e+1][0],w[t][e][0]),w[t][e][3]=c(w[t][e-1][1],w[t][e][1],w[t][e+1][1],n,o));for(let t=0;t&lt;r;++t){w[0][t][2]=[],w[x][t][2]=[];for(let e=0;e&lt;4;++e)n=i(w[1][t][0],w[0][t][0]),o=i(w[x][t][0],w[x-1][t][0]),w[0][t][2][e]=n&gt;0?2*(w[1][t][1][e]-w[0][t][1][e])/n-w[1][t][2][e]:0,w[x][t][2][e]=o&gt;0?2*(w[x][t][1][e]-w[x-1][t][1][e])/o-w[x-1][t][2][e]:0}for(let t=0;t&lt;s;++t){w[t][0][3]=[],w[t][g][3]=[];for(let e=0;e&lt;4;++e)n=i(w[t][1][0],w[t][0][0]),o=i(w[t][g][0],w[t][g-1][0]),w[t][0][3][e]=n&gt;0?2*(w[t][1][1][e]-w[t][0][1][e])/n-w[t][1][3][e]:0,w[t][g][3][e]=o&gt;0?2*(w[t][g][1][e]-w[t][g-1][1][e])/o-w[t][g-1][3][e]:0}for(let s=0;s&lt;x;++s)for(let r=0;r&lt;g;++r){let n=i(w[s][r][0],w[s+1][r][0]),o=i(w[s][r+1][0],w[s+1][r+1][0]),c=i(w[s][r][0],w[s][r+1][0]),x=i(w[s+1][r][0],w[s+1][r+1][0]),g=[[],[],[],[]];for(let t=0;t&lt;4;++t){(d=[])[0]=w[s][r][1][t],d[1]=w[s+1][r][1][t],d[2]=w[s][r+1][1][t],d[3]=w[s+1][r+1][1][t],d[4]=w[s][r][2][t]*n,d[5]=w[s+1][r][2][t]*n,d[6]=w[s][r+1][2][t]*o,d[7]=w[s+1][r+1][2][t]*o,d[8]=w[s][r][3][t]*c,d[9]=w[s+1][r][3][t]*x,d[10]=w[s][r+1][3][t]*c,d[11]=w[s+1][r+1][3][t]*x,d[12]=0,d[13]=0,d[14]=0,d[15]=0,u=f(d);for(let e=0;e&lt;9;++e){g[t][e]=[];for(let s=0;s&lt;9;++s)g[t][e][s]=p(u,e/8,s/8),g[t][e][s]&gt;255?g[t][e][s]=255:g[t][e][s]&lt;0&amp;&amp;(g[t][e][s]=0)}}h=[];for(let t=3*s,e=3*s+4;t&lt;e;++t)h.push(this.nodes[t].slice(3*r,3*r+4));l=y(h);for(let s=0;s&lt;8;++s)for(let r=0;r&lt;8;++r)(a=new m(l[s][r],[[[g[0][s][r],g[1][s][r],g[2][s][r],g[3][s][r]],[g[0][s][r+1],g[1][s][r+1],g[2][s][r+1],g[3][s][r+1]]],[[g[0][s+1][r],g[1][s+1][r],g[2][s+1][r],g[3][s+1][r]],[g[0][s+1][r+1],g[1][s+1][r+1],g[2][s+1][r+1],g[3][s+1][r+1]]]])).paint(t,e)}}}transform(t){if(t instanceof x)for(let e=0,s=this.nodes.length;e&lt;s;++e)for(let s=0,r=this.nodes[0].length;s&lt;r;++s)this.nodes[e][s]=this.nodes[e][s].add(t);else if(t instanceof g)for(let e=0,s=this.nodes.length;e&lt;s;++e)for(let s=0,r=this.nodes[0].length;s&lt;r;++s)this.nodes[e][s]=this.nodes[e][s].transform(t)}scale(t){for(let e=0,s=this.nodes.length;e&lt;s;++e)for(let s=0,r=this.nodes[0].length;s&lt;r;++s)this.nodes[e][s]=this.nodes[e][s].scale(t)}}document.querySelectorAll(&quot;rect,circle,ellipse,path,text&quot;).forEach((r,n)=&gt;{let o=r.getAttribute(&quot;id&quot;);o||(o=&quot;patchjs_shape&quot;+n,r.setAttribute(&quot;id&quot;,o));const i=r.style.fill.match(/^url\(\s*&quot;?\s*#([^\s&quot;]+)&quot;?\s*\)/),a=r.style.stroke.match(/^url\(\s*&quot;?\s*#([^\s&quot;]+)&quot;?\s*\)/);if(i&amp;&amp;i[1]){const a=document.getElementById(i[1]);if(a&amp;&amp;&quot;meshgradient&quot;===a.nodeName){const i=r.getBBox();let l=document.createElementNS(s,&quot;canvas&quot;);d(l,{width:i.width,height:i.height});const c=l.getContext(&quot;2d&quot;);let u=c.createImageData(i.width,i.height);const f=new b(a);&quot;objectBoundingBox&quot;===a.getAttribute(&quot;gradientUnits&quot;)&amp;&amp;f.scale(new x(i.width,i.height));const p=a.getAttribute(&quot;gradientTransform&quot;);null!=p&amp;&amp;f.transform(h(p)),&quot;userSpaceOnUse&quot;===a.getAttribute(&quot;gradientUnits&quot;)&amp;&amp;f.transform(new x(-i.x,-i.y)),f.paintMesh(u.data,l.width),c.putImageData(u,0,0);const y=document.createElementNS(t,&quot;image&quot;);d(y,{width:i.width,height:i.height,x:i.x,y:i.y});let g=l.toDataURL();y.setAttributeNS(e,&quot;xlink:href&quot;,g),r.parentNode.insertBefore(y,r),r.style.fill=&quot;none&quot;;const w=document.createElementNS(t,&quot;use&quot;);w.setAttributeNS(e,&quot;xlink:href&quot;,&quot;#&quot;+o);const m=&quot;patchjs_clip&quot;+n,M=document.createElementNS(t,&quot;clipPath&quot;);M.setAttribute(&quot;id&quot;,m),M.appendChild(w),r.parentElement.insertBefore(M,r),y.setAttribute(&quot;clip-path&quot;,&quot;url(#&quot;+m+&quot;)&quot;),u=null,l=null,g=null}}if(a&amp;&amp;a[1]){const o=document.getElementById(a[1]);if(o&amp;&amp;&quot;meshgradient&quot;===o.nodeName){const i=parseFloat(r.style.strokeWidth.slice(0,-2))*(parseFloat(r.style.strokeMiterlimit)||parseFloat(r.getAttribute(&quot;stroke-miterlimit&quot;))||1),a=r.getBBox(),l=Math.trunc(a.width+i),c=Math.trunc(a.height+i),u=Math.trunc(a.x-i/2),f=Math.trunc(a.y-i/2);let p=document.createElementNS(s,&quot;canvas&quot;);d(p,{width:l,height:c});const y=p.getContext(&quot;2d&quot;);let g=y.createImageData(l,c);const w=new b(o);&quot;objectBoundingBox&quot;===o.getAttribute(&quot;gradientUnits&quot;)&amp;&amp;w.scale(new x(l,c));const m=o.getAttribute(&quot;gradientTransform&quot;);null!=m&amp;&amp;w.transform(h(m)),&quot;userSpaceOnUse&quot;===o.getAttribute(&quot;gradientUnits&quot;)&amp;&amp;w.transform(new x(-u,-f)),w.paintMesh(g.data,p.width),y.putImageData(g,0,0);const M=document.createElementNS(t,&quot;image&quot;);d(M,{width:l,height:c,x:0,y:0});let S=p.toDataURL();M.setAttributeNS(e,&quot;xlink:href&quot;,S);const k=&quot;pattern_clip&quot;+n,A=document.createElementNS(t,&quot;pattern&quot;);d(A,{id:k,patternUnits:&quot;userSpaceOnUse&quot;,width:l,height:c,x:u,y:f}),A.appendChild(M),o.parentNode.appendChild(A),r.style.stroke=&quot;url(#&quot;+k+&quot;)&quot;,g=null,p=null,S=null}}})}();
</script>
</svg>
