<?xml version="1.0" encoding="UTF-8" standalone="no"?>
<!-- Created with Inkscape (http://www.inkscape.org/) -->

<svg
   xmlns:dc="http://purl.org/dc/elements/1.1/"
   xmlns:cc="http://creativecommons.org/ns#"
   xmlns:rdf="http://www.w3.org/1999/02/22-rdf-syntax-ns#"
   xmlns:svg="http://www.w3.org/2000/svg"
   xmlns="http://www.w3.org/2000/svg"
   xmlns:xlink="http://www.w3.org/1999/xlink"
   xmlns:sodipodi="http://sodipodi.sourceforge.net/DTD/sodipodi-0.dtd"
   xmlns:inkscape="http://www.inkscape.org/namespaces/inkscape"
   width="744.09448819"
   height="1052.3622047"
   id="svg3928"
   version="1.1"
   inkscape:version="0.48.1 "
   sodipodi:docname="New document 5">
  <defs
     id="defs3930">
    <linearGradient
       inkscape:collect="always"
       xlink:href="#linearGradient3184"
       id="linearGradient3196"
       gradientUnits="userSpaceOnUse"
       x1="216.63451"
       y1="670.70093"
       x2="216.63451"
       y2="743.93964"
       gradientTransform="translate(-111.1348,-527.92007)" />
    <linearGradient
       id="linearGradient3184">
      <stop
         id="stop3186"
         offset="0"
         style="stop-color:#00008b;stop-opacity:1" />
      <stop
         style="stop-color:#ff00ff;stop-opacity:1"
         offset="0.25458851"
         id="stop3190" />
      <stop
         id="stop3188"
         offset="1"
         style="stop-color:#00008b;stop-opacity:1" />
    </linearGradient>
  </defs>
  <sodipodi:namedview
     id="base"
     pagecolor="#ffffff"
     bordercolor="#666666"
     borderopacity="1.0"
     inkscape:pageopacity="0.0"
     inkscape:pageshadow="2"
     inkscape:zoom="0.68132437"
     inkscape:cx="372.04724"
     inkscape:cy="526.18109"
     inkscape:document-units="px"
     inkscape:current-layer="layer1"
     showgrid="false"
     inkscape:window-width="1280"
     inkscape:window-height="934"
     inkscape:window-x="-4"
     inkscape:window-y="30"
     inkscape:window-maximized="1" />
  <metadata
     id="metadata3933">
    <rdf:RDF>
      <cc:Work
         rdf:about="">
        <dc:format>image/svg+xml</dc:format>
        <dc:type
           rdf:resource="http://purl.org/dc/dcmitype/StillImage" />
        <dc:title></dc:title>
      </cc:Work>
    </rdf:RDF>
  </metadata>
  <g
     inkscape:label="Layer 1"
     inkscape:groupmode="layer"
     id="layer1">
    <text
       sodipodi:linespacing="125%"
       id="text3851"
       y="459.92419"
       x="294.75443"
       style="font-size:110.70907593px;font-style:normal;font-weight:bold;line-height:125%;letter-spacing:0px;word-spacing:0px;fill:#000000;fill-opacity:1;stroke:#a9a9ea;stroke-width:2.0577693;stroke-linecap:round;stroke-linejoin:round;stroke-miterlimit:4;stroke-opacity:0.68156427;stroke-dasharray:none;font-family:Sans;-inkscape-font-specification:Nova Ultra SSi Bold"
       xml:space="preserve"><tspan
         style="font-style:normal;font-variant:normal;font-weight:bold;font-stretch:normal;stroke:#a9a9ea;stroke-width:2.0577693;stroke-linecap:round;stroke-linejoin:round;stroke-miterlimit:4;stroke-opacity:0.68156427;stroke-dasharray:none;font-family:Nova Ultra SSi;-inkscape-font-specification:Nova Ultra SSi Bold"
         y="459.92419"
         x="294.75443"
         id="tspan3853"
         sodipodi:role="line">back</tspan></text>
    <text
       xml:space="preserve"
       style="font-size:0.00077701px;font-style:normal;font-weight:bold;line-height:125%;letter-spacing:0px;word-spacing:0px;fill:#000000;fill-opacity:1;stroke:#a9a9ea;stroke-width:0.00001444;stroke-linecap:round;stroke-linejoin:round;stroke-miterlimit:4;stroke-opacity:0.68156427;stroke-dasharray:none;font-family:Sans;-inkscape-font-specification:Nova Ultra SSi Bold"
       x="303.73367"
       y="464.8125"
       id="text3861"
       sodipodi:linespacing="125%"><tspan
         sodipodi:role="line"
         id="tspan3863"
         x="303.73367"
         y="464.8125"
         style="font-style:normal;font-variant:normal;font-weight:bold;font-stretch:normal;stroke:#a9a9ea;stroke-width:0.00001444;stroke-linecap:round;stroke-linejoin:round;stroke-miterlimit:4;stroke-opacity:0.68156427;stroke-dasharray:none;font-family:Nova Ultra SSi;-inkscape-font-specification:Nova Ultra SSi Bold">back</tspan></text>
    <text
       xml:space="preserve"
       style="font-size:114.97225952px;font-style:normal;font-weight:bold;line-height:125%;letter-spacing:0px;word-spacing:0px;fill:#000000;fill-opacity:1;stroke:none;font-family:Sans;-inkscape-font-specification:Nova Ultra SSi Bold"
       x="291.91214"
       y="461.47693"
       id="text3875"
       sodipodi:linespacing="125%"><tspan
         sodipodi:role="line"
         id="tspan3877"
         x="291.91214"
         y="461.47693"
         style="font-style:normal;font-variant:normal;font-weight:bold;font-stretch:normal;stroke:none;font-family:Nova Ultra SSi;-inkscape-font-specification:Nova Ultra SSi Bold">back</tspan></text>
    <path
       inkscape:connector-curvature="0"
       style="fill:#ffb605;fill-opacity:1;fill-rule:evenodd;stroke:none;stroke-width:3;marker:none;visibility:visible;display:inline;overflow:visible;enable-background:accumulate"
       d="M 228.4852,173.44948 L 228.4852,241.38698 L 335.26645,241.38698 L 335.26645,173.44948 L 228.4852,173.44948 z M 236.9852,180.94948 L 243.76645,180.94948 L 243.76645,199.51198 L 243.89145,199.51198 C 244.50095,198.48054 245.35993,197.72307 246.4852,197.23073 C 247.56356,196.73847 248.68804,196.48077 249.8602,196.48073 C 251.19642,196.48077 252.32872,196.82437 253.26645,197.48073 C 254.20414,198.13716 254.94991,199.08204 255.45395,200.32448 C 255.95796,201.56698 256.20393,203.08972 256.20395,204.91823 L 256.20395,225.48073 C 256.20394,228.15322 255.64949,230.20305 254.5477,231.66823 C 253.44587,233.13341 251.87627,233.85573 249.8602,233.85573 C 248.50049,233.85573 247.29403,233.59414 246.20395,233.04323 C 245.11385,232.49232 244.21192,231.77 243.4852,230.85573 L 243.32895,230.85573 L 243.32895,233.44948 L 236.9852,233.44948 L 236.9852,180.94948 z M 306.5477,180.94948 L 313.2977,180.94948 L 313.2977,212.41823 L 313.45395,212.41823 L 319.57895,196.94948 L 325.9227,196.94948 L 319.3602,213.29323 L 326.76645,233.44948 L 319.57895,233.44948 L 313.45395,214.63698 L 313.2977,214.63698 L 313.2977,233.44948 L 306.5477,233.44948 L 306.5477,180.94948 z M 270.6102,196.48073 C 273.82186,196.48077 276.21529,197.17966 277.7977,198.57448 C 279.38007,199.96937 280.17268,202.23786 280.1727,205.35573 L 280.1727,233.44948 L 273.8602,233.44948 L 273.8602,229.60573 C 273.57888,229.9105 273.22746,230.33999 272.82895,230.85573 C 272.43039,231.37147 272.13367,231.7385 271.9227,231.94948 C 270.63332,233.23884 269.03251,233.85573 267.1102,233.85573 C 265.60986,233.85573 264.39166,233.61756 263.45395,233.13698 C 262.51623,232.65639 261.76266,231.72325 261.2352,230.29323 C 260.70774,228.86322 260.45395,226.73919 260.45395,223.94948 C 260.45396,220.36273 260.62575,217.90293 260.95395,216.54323 C 261.28215,215.18355 261.9381,213.97318 262.9227,212.91823 C 263.76664,212.02742 264.78569,211.43004 266.01645,211.13698 C 267.2472,210.84397 269.71871,210.6995 273.4227,210.69948 L 273.4227,204.79323 C 273.42269,203.62111 273.22746,202.76214 272.82895,202.19948 C 272.43039,201.63688 271.68856,201.35576 270.6102,201.35573 C 269.62558,201.35576 268.89155,201.5666 268.4227,202.01198 C 267.95385,202.45743 267.73519,203.2305 267.7352,204.35573 L 267.7352,207.66823 L 260.9852,207.66823 L 260.9852,204.44948 C 260.98521,199.15142 264.18684,196.48077 270.6102,196.48073 z M 293.70395,196.48073 C 296.68117,196.48077 298.91845,197.13671 300.3602,198.44948 C 301.8019,199.76231 302.51643,201.53494 302.51645,203.76198 L 302.51645,209.26198 L 296.1727,209.26198 L 296.1727,205.19948 C 296.17269,202.6208 295.31371,201.35576 293.57895,201.35573 C 292.75843,201.35576 292.11811,201.70325 291.6727,202.41823 C 291.22729,203.13327 291.01644,204.19138 291.01645,205.57448 L 291.01645,225.66823 C 291.01645,227.91875 291.86761,229.04323 293.57895,229.04323 C 295.3137,229.04323 296.17269,227.88752 296.1727,225.54323 L 296.1727,221.13698 L 302.51645,221.13698 L 302.51645,226.66823 C 302.51642,228.42645 302.07912,229.83986 301.2352,230.91823 C 300.39125,231.9966 299.33704,232.75407 298.0477,233.19948 C 296.75833,233.6449 295.34492,233.85573 293.7977,233.85573 C 290.98455,233.85573 288.6731,233.14122 286.89145,231.69948 C 285.1098,230.25774 284.2352,227.95802 284.2352,224.79323 L 284.2352,206.29323 C 284.23521,204.72258 284.4265,203.32479 284.8602,202.10573 C 285.2939,200.88673 285.95375,199.85596 286.7977,199.01198 C 287.64163,198.16807 288.62946,197.55899 289.76645,197.13698 C 290.90342,196.71505 292.2036,196.48077 293.70395,196.48073 z M 246.8602,201.35573 C 245.87559,201.35576 245.08688,201.81649 244.5477,202.73073 C 244.0085,203.64503 243.76644,205.15215 243.76645,207.26198 L 243.76645,225.66823 C 243.76643,226.91071 244.0085,227.86731 244.5477,228.51198 C 245.08687,229.15666 245.73502,229.48073 246.4852,229.48073 C 247.49323,229.48074 248.25461,229.09419 248.7352,228.35573 C 249.21577,227.61728 249.45394,226.26244 249.45395,224.29323 L 249.45395,206.23073 C 249.45394,202.97219 248.59496,201.35576 246.8602,201.35573 z M 271.2352,215.51198 C 270.1568,215.512 269.34079,215.74236 268.76645,216.19948 C 268.19209,216.65664 267.80165,217.44143 267.57895,218.54323 C 267.35623,219.64505 267.23519,221.13656 267.2352,223.01198 C 267.23521,224.72332 267.31328,226.00788 267.45395,226.88698 C 267.5946,227.7661 267.8523,228.35567 268.20395,228.63698 C 268.55557,228.91829 269.11782,229.04323 269.89145,229.04323 C 271.01671,229.04323 271.86395,228.68013 272.4852,227.91823 C 273.10642,227.15634 273.42269,226.12165 273.4227,224.85573 L 273.4227,215.51198 L 271.2352,215.51198 z"
       id="rect2907"
       inkscape:export-filename="C:\Documents and Settings\Epoch04\My Documents\My Pictures\!_CreativeImaging\!_Imaging.Inkscape\Icons\www\back-icon-01.png"
       inkscape:export-xdpi="96"
       inkscape:export-ydpi="96" />
    <rect
       y="142.78085"
       x="49.493633"
       height="73.238716"
       width="112.01215"
       id="rect3192"
       style="fill:url(#linearGradient3196);fill-opacity:1;fill-rule:evenodd;stroke:none;stroke-width:9.99999905;marker:none;visibility:visible;display:inline;overflow:visible;enable-background:accumulate" />
    <path
       inkscape:connector-curvature="0"
       inkscape:export-ydpi="96"
       inkscape:export-xdpi="96"
       inkscape:export-filename="C:\Documents and Settings\Epoch04\My Documents\My Pictures\!_CreativeImaging\!_Imaging.Inkscape\Icons\www\back-icon-02.png.png"
       id="path3194"
       d="M 50.471127,143.75836 L 50.471127,212.91461 L 159.62739,212.91461 L 159.62739,143.75836 L 50.471127,143.75836 z M 51.658627,144.35211 L 158.43989,144.35211 L 158.43989,212.28961 L 51.658627,212.28961 L 51.658627,144.35211 z M 60.15863,151.85211 L 60.15863,204.35211 L 66.50238,204.35211 L 66.50238,201.75836 L 66.65863,201.75836 C 67.38536,202.67263 68.28729,203.39495 69.37739,203.94586 C 70.46747,204.49677 71.67393,204.75836 73.03364,204.75836 C 75.04971,204.75836 76.61931,204.03604 77.72114,202.57086 C 78.82293,201.10568 79.37738,199.05585 79.37739,196.38336 L 79.37739,175.82086 C 79.37737,173.99235 79.1314,172.46961 78.62739,171.22711 C 78.12335,169.98467 77.37758,169.03979 76.43989,168.38336 C 75.50216,167.727 74.36986,167.3834 73.03364,167.38336 C 71.86148,167.3834 70.737,167.6411 69.65864,168.13336 C 68.53337,168.6257 67.67439,169.38317 67.06488,170.41461 L 66.93988,170.41461 L 66.93988,151.85211 L 60.15863,151.85211 z M 129.72114,151.85211 L 129.72114,204.35211 L 136.47114,204.35211 L 136.47114,185.53961 L 136.62739,185.53961 L 142.75239,204.35211 L 149.93989,204.35211 L 142.53364,184.19586 L 149.09614,167.85211 L 142.75239,167.85211 L 136.62739,183.32086 L 136.47114,183.32086 L 136.47114,151.85211 L 129.72114,151.85211 z M 93.78364,167.38336 C 87.36028,167.3834 84.15865,170.05405 84.15864,175.35211 L 84.15864,178.57086 L 90.90864,178.57086 L 90.90864,175.25836 C 90.90863,174.13313 91.12729,173.36006 91.59614,172.91461 C 92.06499,172.46923 92.79902,172.25839 93.78364,172.25836 C 94.862,172.25839 95.60383,172.53951 96.00239,173.10211 C 96.4009,173.66477 96.59613,174.52374 96.59614,175.69586 L 96.59614,181.60211 C 92.89215,181.60213 90.42064,181.7466 89.18989,182.03961 C 87.95913,182.33267 86.94008,182.93005 86.09614,183.82086 C 85.11154,184.87581 84.45559,186.08618 84.12739,187.44586 C 83.79919,188.80556 83.6274,191.26536 83.62739,194.85211 C 83.62739,197.64182 83.88118,199.76585 84.40864,201.19586 C 84.9361,202.62588 85.68967,203.55902 86.62739,204.03961 C 87.5651,204.52019 88.7833,204.75836 90.28364,204.75836 C 92.20595,204.75836 93.80676,204.14147 95.09614,202.85211 C 95.30711,202.64113 95.60383,202.2741 96.00239,201.75836 C 96.4009,201.24262 96.75232,200.81313 97.03364,200.50836 L 97.03364,204.35211 L 103.34614,204.35211 L 103.34614,176.25836 C 103.34612,173.14049 102.55351,170.872 100.97114,169.47711 C 99.38873,168.08229 96.9953,167.3834 93.78364,167.38336 z M 116.87739,167.38336 C 115.37704,167.3834 114.07686,167.61768 112.93989,168.03961 C 111.8029,168.46162 110.81507,169.0707 109.97114,169.91461 C 109.12719,170.75859 108.46734,171.78936 108.03364,173.00836 C 107.59994,174.22742 107.40865,175.62521 107.40864,177.19586 L 107.40864,195.69586 C 107.40864,198.86065 108.28324,201.16037 110.06489,202.60211 C 111.84654,204.04385 114.15799,204.75836 116.97114,204.75836 C 118.51836,204.75836 119.93177,204.54753 121.22114,204.10211 C 122.51048,203.6567 123.56469,202.89923 124.40864,201.82086 C 125.25256,200.74249 125.68986,199.32908 125.68989,197.57086 L 125.68989,192.03961 L 119.34614,192.03961 L 119.34614,196.44586 C 119.34613,198.79015 118.48714,199.94586 116.75239,199.94586 C 115.04105,199.94586 114.18989,198.82138 114.18989,196.57086 L 114.18989,176.47711 C 114.18988,175.09401 114.40073,174.0359 114.84614,173.32086 C 115.29155,172.60588 115.93187,172.25839 116.75239,172.25836 C 118.48715,172.25839 119.34613,173.52343 119.34614,176.10211 L 119.34614,180.16461 L 125.68989,180.16461 L 125.68989,174.66461 C 125.68987,172.43757 124.97534,170.66494 123.53364,169.35211 C 122.09189,168.03934 119.85461,167.3834 116.87739,167.38336 z M 70.03364,172.25836 C 71.7684,172.25839 72.62738,173.87482 72.62739,177.13336 L 72.62739,195.19586 C 72.62738,197.16507 72.38921,198.51991 71.90864,199.25836 C 71.42805,199.99682 70.66667,200.38337 69.65864,200.38336 C 68.90846,200.38336 68.26031,200.05929 67.72114,199.41461 C 67.18193,198.76994 66.93986,197.81334 66.93988,196.57086 L 66.93988,178.16461 C 66.93987,176.05478 67.18193,174.54766 67.72114,173.63336 C 68.26032,172.71912 69.04903,172.25839 70.03364,172.25836 z M 94.40864,186.41461 L 96.59614,186.41461 L 96.59614,195.75836 C 96.59613,197.02428 96.27986,198.05897 95.65864,198.82086 C 95.03739,199.58276 94.19015,199.94586 93.06489,199.94586 C 92.29126,199.94586 91.72901,199.82092 91.37739,199.53961 C 91.02574,199.2583 90.76804,198.66873 90.62739,197.78961 C 90.48672,196.91051 90.40865,195.62595 90.40864,193.91461 C 90.40863,192.03919 90.52967,190.54768 90.75239,189.44586 C 90.97509,188.34406 91.36553,187.55927 91.93989,187.10211 C 92.51423,186.64499 93.33024,186.41463 94.40864,186.41461 z"
       style="fill:#ffffff;fill-opacity:1;fill-rule:evenodd;stroke:#ffb605;stroke-width:1.95500004;stroke-linecap:round;stroke-linejoin:round;stroke-miterlimit:4;stroke-opacity:1;stroke-dasharray:none;stroke-dashoffset:0;marker:none;visibility:visible;display:inline;overflow:visible;enable-background:accumulate" />
    <rect
       style="fill:none;stroke:#000000;stroke-width:2.99999976;stroke-linecap:butt;stroke-linejoin:miter;stroke-miterlimit:4;stroke-opacity:1;stroke-dasharray:none;stroke-dashoffset:0;marker:none;visibility:visible;display:inline;overflow:visible;enable-background:accumulate"
       id="rect3249"
       width="104.83189"
       height="64.622406"
       x="48.985149"
       y="263.08047" />
    <path
       transform="translate(16.673947,-314.66614)"
       sodipodi:type="arc"
       style="fill:#000000;fill-opacity:1;stroke:#cdc931;stroke-width:1;stroke-linecap:butt;stroke-linejoin:miter;stroke-miterlimit:4;stroke-opacity:1;stroke-dasharray:none;stroke-dashoffset:1.80000011"
       id="path3833"
       sodipodi:cx="233.74379"
       sodipodi:cy="418.74747"
       sodipodi:rx="61.204735"
       sodipodi:ry="61.204735"
       d="M 294.94852,418.74747 A 61.204735,61.204735 0 1 1 172.53905,418.74747 A 61.204735,61.204735 0 1 1 294.94852,418.74747 z" />
    <path
       style="font-size:84.74476624px;font-style:normal;font-variant:normal;font-weight:bold;font-stretch:normal;text-align:start;line-height:100%;writing-mode:lr-tb;text-anchor:start;fill:#3030c8;fill-opacity:1;stroke:#b3b3ed;stroke-width:1.17674053;stroke-linecap:butt;stroke-linejoin:miter;stroke-miterlimit:4;stroke-opacity:1;stroke-dasharray:none;font-family:Nova Ultra SSi;-inkscape-font-specification:Nova Ultra SSi Bold"
       d="M 367.82022,29.03142 L 367.82022,108.15642 L 495.82022,108.15642 L 495.82022,29.03142 L 367.82022,29.03142 z M 369.32022,29.59392 L 370.32022,29.59392 L 493.32022,29.59392 L 494.32022,29.59392 L 494.32022,30.56267 L 494.32022,106.59392 L 494.32022,107.59392 L 493.32022,107.59392 L 370.32022,107.59392 L 369.32022,107.59392 L 369.32022,106.59392 L 369.32022,30.56267 L 369.32022,29.59392 z M 371.28897,31.56267 L 371.28897,105.62517 L 492.35147,105.62517 L 492.35147,31.56267 L 371.28897,31.56267 z M 378.10147,37.25017 L 387.69522,37.25017 L 387.69522,57.18767 C 388.21809,56.77168 388.83645,56.41565 389.57022,56.09392 C 390.92365,55.47327 392.35663,55.15646 393.85147,55.15642 C 395.58766,55.15646 397.07968,55.6 398.32022,56.46892 C 399.56071,57.33793 400.47213,58.54224 401.10147,60.09392 C 401.73075,61.64568 402.07019,63.51723 402.07022,65.71892 L 402.07022,89.437666 C 402.07019,92.694566 401.35812,95.245866 399.94522,97.125166 C 398.53227,99.004476 396.50145,99.937666 393.85147,99.937666 C 392.1118,99.937666 390.54326,99.603826 389.16397,98.906416 C 388.42738,98.533986 387.78162,98.126726 387.22647,97.687666 L 387.22647,99.468916 L 378.10147,99.468916 L 378.10147,37.25017 z M 460.41397,37.25017 L 470.03897,37.25017 L 470.03897,70.00017 L 475.69522,55.68767 L 484.60147,55.68767 L 477.00772,75.406416 L 485.57022,99.468916 L 475.66397,99.468916 L 470.03897,82.156416 L 470.03897,99.468916 L 460.41397,99.468916 L 460.41397,37.25017 z M 418.50772,55.15642 C 422.45425,55.15646 425.43658,56.04203 427.44522,57.81267 C 429.45381,59.5834 430.44519,62.39137 430.44522,66.21892 L 430.44522,99.468916 L 421.32022,99.468916 L 421.32022,96.687666 C 421.08118,96.977356 420.80149,97.331386 420.63272,97.500166 C 418.9896,99.143266 416.93486,99.937666 414.44522,99.937666 C 412.54694,99.937666 410.98077,99.643266 409.72647,99.000166 C 408.47216,98.357066 407.5075,97.122366 406.85147,95.343916 C 406.19543,93.565476 405.85147,91.023876 405.85147,87.687666 C 405.85147,83.463546 406.04867,80.519146 406.44522,78.875166 C 406.84177,77.231226 407.68315,75.730366 408.94522,74.375166 C 410.01935,73.235536 411.32668,72.495886 412.88272,72.125166 C 414.43874,71.754506 417.1118,71.562696 420.85147,71.562666 L 420.85147,65.56267 C 420.85145,64.38857 420.6799,63.58814 420.35147,63.12517 C 420.02301,62.66228 419.4077,62.43771 418.50772,62.43767 C 417.63357,62.43771 417.00167,62.58685 416.63272,62.93767 C 416.26374,63.28857 416.07021,64.02154 416.07022,65.09392 L 416.07022,69.71892 L 406.47647,69.71892 L 406.47647,65.15642 C 406.47647,58.49095 410.48875,55.15646 418.50772,55.15642 z M 445.88272,55.15642 C 449.56718,55.15646 452.32171,56.00927 454.16397,57.68767 C 456.00619,59.36616 456.91395,61.61163 456.91397,64.40642 L 456.91397,71.562666 L 447.78897,71.562666 L 447.78897,66.06267 C 447.78895,63.63857 447.12128,62.43771 445.72647,62.43767 C 445.13163,62.43771 444.61266,62.72413 444.22647,63.34392 C 443.84025,63.96378 443.66396,65.01378 443.66397,66.46892 L 443.66397,89.656416 C 443.66396,91.701246 444.35922,92.750176 445.72647,92.750166 C 447.12128,92.750176 447.78895,91.653616 447.78897,89.500166 L 447.78897,83.625166 L 456.91397,83.625166 L 456.91397,90.812666 C 456.91395,93.017846 456.37257,94.802326 455.28897,96.187666 C 454.20533,97.573016 452.84972,98.564826 451.22647,99.125166 C 449.60318,99.685506 447.8452,99.937666 445.94522,99.937666 C 442.46073,99.937666 439.62237,99.030986 437.38272,97.218916 C 435.14306,95.406856 434.00772,92.561596 434.00772,88.656416 L 434.00772,67.31267 C 434.00772,65.40236 434.28746,63.71723 434.82022,62.21892 C 435.35298,60.72068 436.13746,59.43297 437.19522,58.37517 C 438.25297,57.31745 439.4978,56.50689 440.94522,55.96892 C 442.39262,55.43103 444.04995,55.15646 445.88272,55.15642 z M 390.35147,62.43767 C 389.58077,62.43771 388.94607,62.83857 388.44522,63.68767 C 387.94435,64.53684 387.69521,66.11163 387.69522,68.40642 L 387.69522,89.656416 C 387.69521,90.904696 387.94585,91.814826 388.41397,92.375166 C 388.88206,92.935516 389.37969,93.218926 389.94522,93.218916 C 390.76589,93.218926 391.39779,92.900176 391.82022,92.250166 C 392.24262,91.600176 392.4452,90.218066 392.44522,88.093916 L 392.44522,67.25017 C 392.4452,64.04159 391.74628,62.43771 390.35147,62.43767 z M 419.22647,78.781416 C 418.21266,78.781436 417.44779,78.975186 416.94522,79.375166 C 416.44262,79.775186 416.07991,80.524536 415.85147,81.656416 C 415.62301,82.788326 415.50771,84.447376 415.50772,86.593916 C 415.50771,88.535306 415.58335,89.949956 415.72647,90.843916 C 415.86956,91.737886 416.05706,92.283576 416.28897,92.468916 C 416.52085,92.654266 416.96202,92.750176 417.63272,92.750166 C 418.62581,92.750176 419.41008,92.381636 419.97647,91.687666 C 420.54283,90.993706 420.85145,90.029486 420.85147,88.750166 L 420.85147,78.781416 L 419.22647,78.781416 z"
       id="text2914"
       inkscape:connector-curvature="0" />
    <text
       xml:space="preserve"
       style="font-size:40px;font-style:normal;font-weight:normal;line-height:125%;letter-spacing:0px;word-spacing:0px;fill:#000000;fill-opacity:1;stroke:none;font-family:Sans"
       x="340.76758"
       y="266.71109"
       id="text3835"
       sodipodi:linespacing="125%"><tspan
         sodipodi:role="line"
         id="tspan3837"
         x="340.76758"
         y="266.71109"
         style="font-style:normal;font-variant:normal;font-weight:normal;font-stretch:normal;font-family:Nova Ultra SSi;-inkscape-font-specification:Nova Ultra SSi">back</tspan></text>
    <text
       sodipodi:linespacing="125%"
       id="text3839"
       y="266.71109"
       x="340.76758"
       style="font-size:40px;font-style:normal;font-weight:normal;line-height:125%;letter-spacing:0px;word-spacing:0px;fill:#000000;fill-opacity:1;stroke:none;font-family:Sans"
       xml:space="preserve"><tspan
         style="font-style:normal;font-variant:normal;font-weight:normal;font-stretch:normal;font-family:Nova Ultra SSi;-inkscape-font-specification:Nova Ultra SSi"
         y="266.71109"
         x="340.76758"
         id="tspan3841"
         sodipodi:role="line">back</tspan></text>
    <text
       sodipodi:linespacing="125%"
       id="text3847"
       y="67.35849"
       x="26.000378"
       style="font-size:40px;font-style:normal;font-weight:normal;line-height:125%;letter-spacing:0px;word-spacing:0px;fill:#000000;fill-opacity:1;stroke:none;font-family:Sans"
       xml:space="preserve"><tspan
         style="font-style:normal;font-variant:normal;font-weight:normal;font-stretch:normal;font-family:Nova Ultra SSi;-inkscape-font-specification:Nova Ultra SSi"
         y="67.35849"
         x="26.000378"
         id="tspan3849"
         sodipodi:role="line">back</tspan></text>
    <text
       sodipodi:linespacing="125%"
       id="text3851-1"
       y="206.91556"
       x="549.27338"
       style="font-size:110.70907593px;font-style:normal;font-weight:bold;line-height:125%;letter-spacing:0px;word-spacing:0px;fill:#000000;fill-opacity:1;stroke:#a9a9ea;stroke-width:2.0577693;stroke-linecap:round;stroke-linejoin:round;stroke-miterlimit:4;stroke-opacity:0.68156427;stroke-dasharray:none;font-family:Sans;-inkscape-font-specification:Nova Ultra SSi Bold"
       xml:space="preserve"><tspan
         style="font-style:normal;font-variant:normal;font-weight:bold;font-stretch:normal;stroke:#a9a9ea;stroke-width:2.0577693;stroke-linecap:round;stroke-linejoin:round;stroke-miterlimit:4;stroke-opacity:0.68156427;stroke-dasharray:none;font-family:Nova Ultra SSi;-inkscape-font-specification:Nova Ultra SSi Bold"
         y="206.91556"
         x="549.27338"
         id="tspan3853-7"
         sodipodi:role="line">back</tspan></text>
    <text
       xml:space="preserve"
       style="font-size:0.00077701px;font-style:normal;font-weight:bold;line-height:125%;letter-spacing:0px;word-spacing:0px;fill:#000000;fill-opacity:1;stroke:#a9a9ea;stroke-width:0.00001444;stroke-linecap:round;stroke-linejoin:round;stroke-miterlimit:4;stroke-opacity:0.68156427;stroke-dasharray:none;font-family:Sans;-inkscape-font-specification:Nova Ultra SSi Bold"
       x="330.75455"
       y="191.25565"
       id="text3861-4"
       sodipodi:linespacing="125%"><tspan
         sodipodi:role="line"
         id="tspan3863-0"
         x="330.75455"
         y="191.25565"
         style="font-style:normal;font-variant:normal;font-weight:bold;font-stretch:normal;stroke:#a9a9ea;stroke-width:0.00001444;stroke-linecap:round;stroke-linejoin:round;stroke-miterlimit:4;stroke-opacity:0.68156427;stroke-dasharray:none;font-family:Nova Ultra SSi;-inkscape-font-specification:Nova Ultra SSi Bold">back</tspan></text>
    <text
       xml:space="preserve"
       style="font-size:114.97225952px;font-style:normal;font-weight:bold;line-height:125%;letter-spacing:0px;word-spacing:0px;fill:#000000;fill-opacity:1;stroke:none;font-family:Sans;-inkscape-font-specification:Nova Ultra SSi Bold"
       x="549.36658"
       y="108.66267"
       id="text3875-9"
       sodipodi:linespacing="125%"><tspan
         sodipodi:role="line"
         id="tspan3877-4"
         x="549.36658"
         y="108.66267"
         style="font-style:normal;font-variant:normal;font-weight:bold;font-stretch:normal;stroke:none;font-family:Nova Ultra SSi;-inkscape-font-specification:Nova Ultra SSi Bold">back</tspan></text>
  </g>
</svg>
